<svg width="501" height="501" viewBox="0 0 501 501" fill="none" xmlns="http://www.w3.org/2000/svg">
<path d="M347.969 114.884L90.6211 141.978L125.154 469.985L382.502 442.891L347.969 114.884Z" fill="#E0E0E0"/>
<path d="M357.786 121.901L103.006 160.114L147.998 460.089L402.778 421.875L357.786 121.901Z" fill="#EBEBEB"/>
<path d="M457.997 148.986C457.997 148.986 447.877 142.316 435.617 166.426C423.357 190.536 418.667 204.426 418.667 204.426C418.667 204.426 415.417 209.426 411.947 206.176C408.477 202.926 403.717 193.496 397.817 195.176C391.697 196.926 389.677 203.756 390.817 213.796C391.957 223.836 393.737 245.916 393.887 247.916C394.037 249.916 392.887 252.766 390.187 250.916C387.487 249.066 371.777 231.586 363.937 239.526C356.097 247.466 363.937 274.886 364.747 277.906C365.557 280.926 364.957 282.206 363.517 282.906C362.077 283.606 357.367 277.286 352.707 272.506C348.047 267.726 341.797 262.996 337.657 267.946C333.517 272.896 332.197 293.486 351.777 326.946L361.877 341.876L379.877 340.876C418.357 336.386 433.997 322.936 435.457 316.636C436.917 310.336 429.387 308.216 422.757 307.366C416.127 306.516 408.207 306.596 407.937 305.006C407.667 303.416 408.347 302.166 411.237 301.006C414.127 299.846 440.747 289.576 442.357 278.536C443.967 267.496 420.587 265.536 417.447 264.446C414.307 263.356 415.947 260.766 417.597 259.696C419.247 258.626 437.967 246.696 446.687 241.596C455.407 236.496 459.637 230.766 457.357 224.826C455.147 219.096 444.797 220.946 440.067 220.166C435.337 219.386 437.417 213.746 437.417 213.746C437.417 213.746 445.727 201.646 457.577 177.306C469.427 152.966 457.727 148.876 457.727 148.876" fill="#E0E0E0"/>
<path d="M446.958 170.566C446.958 170.566 446.888 170.746 446.728 171.086L446.028 172.596L443.268 178.426C440.868 183.426 437.338 190.676 432.948 199.596C424.168 217.426 411.878 241.936 398.138 268.996C384.398 296.056 372.038 320.596 363.138 338.386L352.658 359.476L349.878 365.206L349.118 366.696C348.948 367.026 348.848 367.186 348.848 367.186C348.848 367.186 348.918 367.006 349.068 366.666L349.778 365.156L352.538 359.386C354.938 354.386 358.458 347.136 362.848 338.216C371.628 320.376 383.958 295.826 397.668 268.746C411.378 241.666 423.758 217.166 432.668 199.366C437.078 190.476 440.668 183.286 443.138 178.276C444.368 175.806 445.328 173.876 445.998 172.546L446.748 171.066C446.878 170.736 446.958 170.566 446.958 170.566Z" fill="#EBEBEB"/>
<path d="M403.938 208.616C404.139 209.003 404.293 209.413 404.397 209.836C404.657 210.626 404.997 211.836 405.397 213.226C406.217 216.106 407.238 220.106 408.288 224.536C409.338 228.966 410.227 232.876 410.938 235.906C411.267 237.266 411.538 238.416 411.758 239.346C411.885 239.76 411.972 240.185 412.018 240.616C411.815 240.229 411.657 239.819 411.548 239.396C411.288 238.606 410.948 237.446 410.548 236.006C409.758 233.116 408.787 229.106 407.737 224.666C406.687 220.226 405.738 216.346 405.008 213.326C404.678 211.966 404.398 210.816 404.168 209.896C404.052 209.477 403.975 209.049 403.938 208.616Z" fill="#EBEBEB"/>
<path d="M413.678 240.936C413.678 240.786 421.788 238.316 431.888 235.406C441.988 232.496 450.218 230.276 450.258 230.406C450.298 230.536 442.148 233.036 432.048 235.936C421.948 238.836 413.718 241.086 413.678 240.936Z" fill="#EBEBEB"/>
<path d="M390.748 281.556C391.188 281.486 391.634 281.466 392.078 281.496H395.688C398.738 281.496 402.948 281.496 407.588 281.316C412.228 281.136 416.438 280.846 419.468 280.606L423.068 280.326C423.51 280.271 423.956 280.271 424.398 280.326C423.973 280.449 423.538 280.533 423.098 280.576C422.248 280.706 421.028 280.866 419.508 281.036C416.508 281.386 412.268 281.746 407.608 281.916C402.948 282.086 398.738 282.046 395.678 281.916C394.158 281.856 392.928 281.796 392.068 281.726C391.623 281.716 391.181 281.659 390.748 281.556Z" fill="#EBEBEB"/>
<path d="M375.518 254.256C375.788 254.561 376.023 254.897 376.218 255.256C376.688 256.026 377.268 256.986 377.958 258.106C379.408 260.526 380.588 264.676 383.518 267.606C385.658 271.336 387.578 274.726 388.938 277.196C389.558 278.346 390.088 279.336 390.528 280.126C390.745 280.476 390.917 280.852 391.038 281.246C390.767 280.94 390.532 280.605 390.338 280.246C389.858 279.479 389.278 278.529 388.598 277.396C387.148 274.986 385.178 271.626 383.038 267.896C380.898 264.166 378.978 260.776 377.618 258.316L376.028 255.426C375.806 255.061 375.634 254.667 375.518 254.256Z" fill="#EBEBEB"/>
<path d="M350.717 287.546C351.055 287.949 351.353 288.385 351.607 288.846L353.847 292.486C355.727 295.576 358.277 299.866 361.077 304.616C363.877 309.366 366.367 313.686 368.157 316.816C368.997 318.326 369.707 319.576 370.247 320.556C370.521 321.001 370.755 321.469 370.947 321.956C370.611 321.554 370.313 321.122 370.057 320.666L367.817 317.016C365.937 313.936 363.387 309.646 360.597 304.896C357.807 300.146 355.297 295.826 353.507 292.686C352.667 291.186 351.967 289.926 351.417 288.956C351.143 288.507 350.909 288.035 350.717 287.546Z" fill="#EBEBEB"/>
<path d="M370.697 320.996C371.253 320.913 371.815 320.873 372.377 320.876L376.957 320.736C380.817 320.596 386.157 320.396 392.037 320.016C397.917 319.636 403.247 319.156 407.097 318.776L411.657 318.336C412.213 318.254 412.775 318.22 413.337 318.236C412.795 318.378 412.244 318.481 411.687 318.546C410.617 318.716 409.057 318.936 407.137 319.166C403.297 319.646 397.977 320.166 392.077 320.566C386.177 320.966 380.837 321.096 376.957 321.126C375.027 321.126 373.457 321.126 372.377 321.126C371.814 321.138 371.252 321.094 370.697 320.996Z" fill="#EBEBEB"/>
<path d="M71.7968 313.505C73.5781 312.6 75.5238 312.065 77.5172 311.931C79.5105 311.797 81.5104 312.067 83.3968 312.725C87.175 314.062 90.5961 316.248 93.3968 319.115C98.9368 324.475 102.397 332.645 104.397 340.115C95.9968 341.795 87.3068 336.975 83.0568 334.255C76.3268 329.955 66.7768 318.105 71.8068 313.525" fill="#112EC1"/>
<path d="M118.987 341.855C116.993 340.863 115.295 339.363 114.066 337.505C112.837 335.648 112.12 333.499 111.987 331.275C111.889 329.046 112.236 326.819 113.006 324.724C113.777 322.63 114.957 320.71 116.477 319.075C117.857 317.545 119.687 316.145 121.737 316.245C122.697 316.352 123.611 316.712 124.386 317.289C125.161 317.865 125.768 318.637 126.147 319.525C126.876 321.321 127.114 323.278 126.837 325.195C126.207 331.765 124.397 338.005 119.037 341.855" fill="#112EC1"/>
<path d="M132.558 362.745C132.154 362.402 131.786 362.021 131.458 361.605L128.558 358.395C126.178 355.655 122.698 351.825 120.458 346.625C118.474 342.221 117.694 337.369 118.198 332.565C118.36 331.123 118.696 329.706 119.198 328.345C119.336 327.974 119.492 327.61 119.668 327.255C119.778 327.015 119.848 326.885 119.868 326.895C119.239 328.753 118.801 330.669 118.558 332.615C118.183 337.349 119.015 342.101 120.978 346.425C123.158 351.525 126.548 355.365 128.858 358.165C130.028 359.565 130.988 360.695 131.618 361.495C131.97 361.881 132.285 362.3 132.558 362.745Z" fill="#263238"/>
<path d="M79.877 321.886C80.0875 321.987 80.2883 322.108 80.477 322.246L82.107 323.356C83.527 324.356 85.557 325.766 88.047 327.556C93.047 331.146 99.857 336.196 107.257 341.946C114.657 347.696 121.257 353.056 125.967 356.996C128.317 358.996 130.207 360.576 131.507 361.706L132.987 363.016C133.327 363.326 133.497 363.486 133.477 363.506C133.278 363.39 133.091 363.256 132.917 363.106L131.367 361.876L125.717 357.306C120.877 353.426 114.297 348.136 106.877 342.426C99.457 336.716 92.697 331.586 87.777 327.916L81.947 323.576L80.367 322.376C80.1852 322.232 80.0208 322.067 79.877 321.886Z" fill="#263238"/>
<path d="M115.877 353.555C111.72 351.341 107.097 350.148 102.388 350.075C97.6788 350.002 93.0201 351.051 88.797 353.135C86.667 354.215 84.417 356.035 84.607 358.415C84.797 360.795 87.327 362.245 89.607 362.925C94.4299 364.245 99.536 364.108 104.281 362.529C109.026 360.95 113.196 358.002 116.267 354.055" fill="#112EC1"/>
<path d="M95.1973 356.745C95.607 356.459 96.0461 356.218 96.5073 356.025C97.0248 355.749 97.5592 355.505 98.1073 355.295C98.8182 354.987 99.546 354.72 100.287 354.495C101.176 354.192 102.081 353.938 102.997 353.735C104.05 353.49 105.115 353.299 106.187 353.165C108.653 352.889 111.142 352.889 113.607 353.165C116.071 353.471 118.49 354.062 120.817 354.925C121.842 355.307 122.844 355.747 123.817 356.245C124.661 356.669 125.482 357.136 126.277 357.645C127.027 358.075 127.617 358.585 128.177 358.975C128.653 359.317 129.107 359.687 129.537 360.085C129.928 360.384 130.289 360.719 130.617 361.085C130.527 361.185 128.977 359.715 126.067 357.945C125.275 357.462 124.457 357.022 123.617 356.625C122.661 356.151 121.68 355.731 120.677 355.365C118.383 354.545 116.005 353.982 113.587 353.685C111.161 353.425 108.714 353.425 106.287 353.685C105.229 353.804 104.178 353.978 103.137 354.205C102.137 354.375 101.257 354.655 100.437 354.875C97.1373 355.855 95.2473 356.855 95.1973 356.745Z" fill="#263238"/>
<path d="M375.477 392.775C368.477 388.275 365.957 382.505 364.857 374.255C364.337 370.116 364.709 365.914 365.949 361.931C367.19 357.948 369.269 354.277 372.047 351.165C376.707 346.025 383.247 342.515 386.637 336.455C390.237 329.995 389.777 321.455 394.917 316.105C398.457 312.455 403.787 311.315 408.147 308.715C411.717 306.595 414.597 303.525 417.827 300.935C421.057 298.345 424.937 296.145 429.077 296.295C435.327 296.525 440.417 302.455 440.947 308.685C441.477 314.915 438.237 321.015 433.627 325.245C430.287 328.305 426.117 330.715 424.007 334.735C420.007 342.265 424.877 352.345 420.587 359.735C417.457 365.105 409.997 367.905 409.187 374.075C408.887 376.345 409.617 378.615 409.687 380.905C409.907 388.055 403.447 394.065 396.457 395.605C389.467 397.145 382.207 395.215 375.457 392.805" fill="#455A64"/>
<path d="M416.546 321.936C416.344 322.238 416.113 322.519 415.856 322.776L413.746 325.046C412.816 326.046 411.676 327.216 410.446 328.676C409.216 330.136 407.696 331.676 406.236 333.616C404.776 335.556 403.056 337.526 401.436 339.846C400.626 341.006 399.716 342.146 398.896 343.416L396.346 347.296C392.668 353.122 389.433 359.215 386.666 365.526C383.975 371.868 381.785 378.411 380.116 385.096C379.406 388.196 378.716 391.096 378.316 393.936C377.916 396.776 377.516 399.326 377.246 401.716C376.976 404.106 376.886 406.276 376.726 408.186C376.566 410.096 376.556 411.736 376.536 413.086C376.516 414.436 376.486 415.386 376.466 416.186C376.475 416.548 376.445 416.91 376.376 417.266C376.309 416.91 376.282 416.547 376.296 416.186C376.296 415.386 376.246 414.356 376.206 413.076C376.166 411.796 376.136 410.076 376.206 408.166C376.276 406.256 376.306 404.056 376.596 401.656C376.886 399.256 377.066 396.656 377.596 393.816C378.126 390.976 378.596 388.036 379.326 384.916C380.974 378.173 383.165 371.575 385.876 365.186C388.663 358.832 391.943 352.707 395.686 346.866L398.276 342.986C399.116 341.726 400.036 340.576 400.866 339.426C402.526 337.116 404.236 335.096 405.776 333.236C407.316 331.376 408.776 329.786 410.086 328.356C411.396 326.926 412.536 325.756 413.506 324.816C414.476 323.876 415.156 323.206 415.736 322.656C415.981 322.389 416.253 322.148 416.546 321.936Z" fill="#263238"/>
<path d="M381.718 139.576H124.088V442.906H381.718V139.576Z" fill="#FAFAFA"/>
<path d="M381.727 442.906C381.727 440.906 381.627 320.316 381.487 139.576L381.727 139.806H124.117L124.377 139.546C124.377 251.546 124.377 355.856 124.377 442.876L124.157 442.656L381.797 442.876L124.157 443.096H123.877V442.876C123.877 355.876 123.877 251.536 123.877 139.546V139.286H124.167H381.777H382.007V139.526C381.817 320.316 381.727 440.896 381.727 442.906Z" fill="#263238"/>
<path d="M267.447 189.146H262.447L261.367 191.556H260.367L264.487 182.556H265.427L269.547 191.556H268.547L267.447 189.146ZM267.107 188.376L264.937 183.536L262.777 188.426L267.107 188.376Z" fill="black"/>
<path d="M276.957 181.996V191.556H276.077V190.216C275.806 190.66 275.421 191.024 274.962 191.27C274.504 191.516 273.988 191.636 273.467 191.616C272.586 191.569 271.756 191.185 271.149 190.544C270.542 189.903 270.203 189.054 270.203 188.171C270.203 187.288 270.542 186.439 271.149 185.798C271.756 185.157 272.586 184.774 273.467 184.726C273.974 184.714 274.476 184.831 274.925 185.065C275.374 185.299 275.757 185.644 276.037 186.066V181.996H276.957ZM276.047 188.166C276.024 187.673 275.856 187.198 275.565 186.799C275.274 186.401 274.872 186.096 274.409 185.924C273.947 185.752 273.444 185.72 272.963 185.831C272.482 185.942 272.044 186.192 271.704 186.55C271.364 186.907 271.136 187.357 271.05 187.843C270.963 188.329 271.021 188.83 271.216 189.283C271.411 189.736 271.735 190.122 272.148 190.393C272.561 190.664 273.044 190.807 273.537 190.806C273.88 190.811 274.219 190.745 274.534 190.612C274.85 190.48 275.134 190.283 275.37 190.035C275.606 189.787 275.788 189.493 275.904 189.171C276.021 188.85 276.07 188.508 276.047 188.166Z" fill="black"/>
<path d="M285.688 181.996V191.556H284.808V190.216C284.536 190.66 284.152 191.024 283.693 191.27C283.234 191.516 282.718 191.636 282.198 191.616C281.316 191.569 280.487 191.185 279.879 190.544C279.272 189.903 278.934 189.054 278.934 188.171C278.934 187.288 279.272 186.439 279.879 185.798C280.487 185.157 281.316 184.774 282.198 184.726C282.705 184.714 283.206 184.831 283.655 185.065C284.105 185.299 284.488 185.644 284.768 186.066V181.996H285.688ZM284.778 188.166C284.754 187.673 284.587 187.198 284.295 186.799C284.004 186.401 283.602 186.096 283.14 185.924C282.677 185.752 282.174 185.72 281.693 185.831C281.212 185.942 280.775 186.192 280.434 186.55C280.094 186.907 279.867 187.357 279.78 187.843C279.693 188.329 279.751 188.83 279.946 189.283C280.142 189.736 280.466 190.122 280.878 190.393C281.291 190.664 281.774 190.807 282.268 190.806C282.61 190.811 282.949 190.745 283.265 190.612C283.58 190.48 283.865 190.283 284.1 190.035C284.336 189.787 284.518 189.493 284.635 189.171C284.751 188.85 284.8 188.508 284.778 188.166Z" fill="black"/>
<path d="M297.708 184.776V191.556H296.878V190.316C296.629 190.734 296.272 191.075 295.844 191.304C295.415 191.533 294.933 191.641 294.448 191.616C294.058 191.655 293.665 191.606 293.297 191.472C292.929 191.339 292.596 191.125 292.322 190.846C292.047 190.566 291.839 190.229 291.712 189.859C291.585 189.489 291.543 189.095 291.588 188.706V184.776H292.508V188.616C292.508 190.056 293.248 190.796 294.508 190.796C294.829 190.813 295.149 190.76 295.447 190.64C295.745 190.52 296.014 190.336 296.233 190.102C296.453 189.868 296.62 189.589 296.72 189.284C296.821 188.979 296.855 188.655 296.818 188.336V184.776H297.708Z" fill="black"/>
<path d="M299.326 190.786L299.736 190.056C300.438 190.558 301.283 190.825 302.146 190.816C303.436 190.816 303.966 190.386 303.966 189.716C303.966 187.946 299.566 189.336 299.566 186.716C299.566 185.606 300.566 184.776 302.246 184.776C303.088 184.765 303.918 184.983 304.646 185.406L304.246 186.146C303.654 185.753 302.956 185.551 302.246 185.566C301.026 185.566 300.486 186.046 300.486 186.686C300.486 188.516 304.876 187.136 304.876 189.686C304.876 190.856 303.876 191.616 302.086 191.616C301.101 191.644 300.133 191.353 299.326 190.786Z" fill="black"/>
<path d="M312.468 188.426H306.798C306.817 188.756 306.901 189.079 307.046 189.377C307.191 189.674 307.394 189.94 307.642 190.159C307.89 190.377 308.18 190.544 308.493 190.65C308.806 190.756 309.138 190.799 309.468 190.776C309.857 190.789 310.244 190.716 310.602 190.562C310.96 190.408 311.279 190.177 311.538 189.886L312.048 190.486C311.721 190.851 311.318 191.139 310.866 191.329C310.415 191.519 309.927 191.607 309.438 191.586C308.973 191.614 308.507 191.545 308.07 191.383C307.634 191.22 307.235 190.969 306.901 190.644C306.567 190.32 306.305 189.929 306.13 189.497C305.956 189.065 305.873 188.602 305.888 188.136C305.863 187.688 305.93 187.24 306.084 186.818C306.239 186.397 306.478 186.012 306.786 185.686C307.094 185.36 307.466 185.101 307.878 184.923C308.29 184.746 308.734 184.654 309.183 184.654C309.631 184.654 310.075 184.746 310.488 184.923C310.9 185.101 311.271 185.36 311.58 185.686C311.888 186.012 312.127 186.397 312.281 186.818C312.436 187.24 312.502 187.688 312.478 188.136C312.478 188.246 312.468 188.346 312.468 188.426ZM306.798 187.736H311.598C311.543 187.137 311.267 186.581 310.823 186.175C310.378 185.77 309.799 185.545 309.198 185.545C308.597 185.545 308.017 185.77 307.573 186.175C307.129 186.581 306.853 187.137 306.798 187.736Z" fill="black"/>
<path d="M317.758 184.726V185.616H317.538C317.215 185.6 316.892 185.655 316.593 185.778C316.294 185.901 316.025 186.088 315.807 186.327C315.589 186.567 315.427 186.851 315.332 187.16C315.237 187.469 315.212 187.796 315.258 188.116V191.566H314.338V184.786H315.218V186.116C315.453 185.656 315.82 185.277 316.274 185.029C316.727 184.781 317.244 184.676 317.758 184.726Z" fill="black"/>
<path d="M248.707 279.717C248.707 279.717 248.707 279.517 248.707 279.157C248.707 278.797 248.707 278.237 248.707 277.537C248.707 276.097 248.707 273.997 248.707 271.277C248.707 265.827 248.647 257.907 248.607 247.947L248.777 248.107L147.687 248.207L147.947 247.947C147.947 258.947 147.947 269.647 147.947 279.717L147.697 279.467L219.947 279.577L241.107 279.647H246.797H248.277H248.787H248.307H246.777H241.147L220.047 279.727L147.617 279.837H147.357V247.687H147.617L248.707 247.777H248.877V247.947C248.877 257.947 248.807 265.947 248.787 271.377C248.787 274.077 248.787 276.167 248.787 277.597C248.787 278.287 248.787 278.817 248.787 279.187C248.787 279.557 248.707 279.717 248.707 279.717Z" fill="#263238"/>
<path d="M360.607 322.746C360.607 322.746 360.607 322.036 360.607 320.656C360.607 319.276 360.607 317.236 360.607 314.546C360.607 309.176 360.607 301.246 360.537 290.976L360.667 291.106L147.667 291.236L147.927 290.976V322.746L147.667 322.496L299.207 322.606L344.207 322.676H356.377H359.537H360.627C360.627 322.676 360.277 322.676 359.577 322.676H356.447H344.337L299.337 322.756L147.617 322.866H147.357V290.716H147.627L360.627 290.846H360.757V290.976C360.757 301.286 360.697 309.236 360.677 314.626C360.677 317.292 360.677 319.319 360.677 320.706C360.627 322.066 360.607 322.746 360.607 322.746Z" fill="#263238"/>
<path d="M360.607 365.486C360.607 365.486 360.607 364.766 360.607 363.396C360.607 362.026 360.607 359.966 360.607 357.286C360.607 351.906 360.607 343.986 360.537 333.716L360.667 333.836L147.667 333.976L147.927 333.716V365.486L147.667 365.226L299.207 365.336L344.207 365.416H356.377H359.537H360.627H359.577H356.447H344.337L299.337 365.486L147.617 365.606H147.357V333.426H147.627L360.627 333.566H360.757V333.696C360.757 343.996 360.697 351.946 360.677 357.336C360.677 360.002 360.677 362.029 360.677 363.416C360.627 364.806 360.607 365.486 360.607 365.486Z" fill="#263238"/>
<path d="M360.608 279.716C360.608 279.716 360.608 279.516 360.608 279.156C360.608 278.796 360.608 278.236 360.608 277.536C360.608 276.096 360.608 273.996 360.608 271.276C360.608 265.826 360.608 257.906 360.518 247.946L360.688 248.106L259.598 248.206L259.858 247.946V279.716L259.598 279.466L331.858 279.576L353.018 279.646H358.708H360.188H360.698H360.218H358.678H353.048L331.948 279.726L259.508 279.836H259.258V279.586C259.258 269.516 259.258 258.826 259.258 247.816V247.556H259.528L360.618 247.646H360.788V247.816C360.788 257.816 360.718 265.816 360.688 271.246C360.688 273.946 360.688 276.036 360.688 277.466C360.688 278.156 360.688 278.686 360.688 279.056C360.688 279.426 360.608 279.716 360.608 279.716Z" fill="#263238"/>
<path d="M168.787 268.426C168.532 268.46 168.275 268.476 168.017 268.476L165.737 268.546C163.737 268.606 160.877 268.686 157.437 268.726H157.117L157.217 268.426C157.508 267.408 158.059 266.485 158.817 265.746C159.672 264.977 160.738 264.482 161.877 264.326L161.817 264.816C161.177 264.536 160.625 264.086 160.221 263.515C159.818 262.944 159.578 262.273 159.527 261.576C159.458 260.793 159.626 260.007 160.01 259.32C160.393 258.633 160.974 258.078 161.677 257.726C162.348 257.418 163.101 257.337 163.822 257.494C164.544 257.651 165.194 258.038 165.677 258.596C166.106 259.089 166.408 259.679 166.556 260.315C166.704 260.951 166.694 261.614 166.527 262.246C166.39 262.795 166.128 263.305 165.762 263.737C165.397 264.169 164.936 264.51 164.417 264.736V264.386C165.309 264.517 166.156 264.86 166.887 265.386C167.424 265.789 167.879 266.292 168.227 266.866C168.541 267.343 168.749 267.882 168.837 268.446C168.837 268.446 168.757 268.296 168.647 268.056C168.479 267.681 168.282 267.32 168.057 266.976C167.641 266.357 167.093 265.838 166.454 265.454C165.815 265.071 165.099 264.832 164.357 264.756L163.687 264.676L164.317 264.406C164.774 264.193 165.176 263.878 165.493 263.487C165.81 263.095 166.034 262.637 166.147 262.146C166.289 261.586 166.292 261 166.156 260.439C166.02 259.878 165.749 259.359 165.367 258.926C164.944 258.46 164.386 258.139 163.77 258.008C163.154 257.877 162.513 257.942 161.937 258.196C161.332 258.505 160.833 258.988 160.505 259.584C160.177 260.179 160.035 260.859 160.097 261.536C160.14 262.144 160.35 262.729 160.703 263.226C161.055 263.723 161.538 264.114 162.097 264.356L162.947 264.696L162.037 264.846C160.995 264.982 160.018 265.432 159.237 266.136C158.531 266.809 158.011 267.653 157.727 268.586L157.507 268.296C160.837 268.296 163.637 268.296 165.647 268.366H167.987C168.255 268.368 168.522 268.388 168.787 268.426Z" fill="#112EC1"/>
<path d="M287.297 268.426C287.045 268.46 286.791 268.477 286.537 268.476L284.247 268.546C282.247 268.606 279.397 268.686 275.947 268.726H275.637L275.727 268.426C276.017 267.409 276.569 266.485 277.327 265.746C278.179 264.97 279.245 264.468 280.387 264.306L280.327 264.796C279.687 264.515 279.137 264.065 278.735 263.494C278.333 262.923 278.095 262.253 278.047 261.556C277.973 260.773 278.137 259.986 278.519 259.299C278.901 258.612 279.483 258.056 280.187 257.706C280.858 257.4 281.61 257.32 282.331 257.477C283.052 257.633 283.703 258.019 284.187 258.576C284.614 259.07 284.914 259.66 285.06 260.297C285.207 260.933 285.195 261.595 285.027 262.226C284.889 262.775 284.628 263.285 284.262 263.717C283.896 264.149 283.436 264.491 282.917 264.716V264.366C283.808 264.497 284.655 264.84 285.387 265.366C285.926 265.767 286.382 266.269 286.727 266.846C287.04 267.323 287.248 267.862 287.337 268.426C287.337 268.426 287.257 268.276 287.147 268.036C286.987 267.657 286.789 267.295 286.557 266.956C286.142 266.338 285.597 265.819 284.959 265.435C284.321 265.051 283.607 264.813 282.867 264.736L282.197 264.656L282.817 264.386C283.273 264.172 283.676 263.857 283.994 263.466C284.313 263.075 284.539 262.617 284.657 262.126C284.796 261.566 284.797 260.98 284.659 260.419C284.522 259.858 284.25 259.338 283.867 258.906C283.451 258.433 282.894 258.106 282.278 257.975C281.662 257.843 281.02 257.914 280.447 258.176C279.839 258.483 279.337 258.965 279.007 259.561C278.677 260.157 278.534 260.838 278.597 261.516C278.64 262.124 278.849 262.709 279.202 263.206C279.555 263.703 280.037 264.094 280.597 264.336L281.447 264.676L280.537 264.826C279.494 264.963 278.518 265.412 277.737 266.116C277.033 266.789 276.516 267.634 276.237 268.566L276.017 268.276C279.347 268.276 282.147 268.276 284.147 268.346H286.497C286.765 268.354 287.032 268.381 287.297 268.426Z" fill="#112EC1"/>
<path d="M180.637 261.426V264.106H184.157V264.726H180.637V267.616H179.877V260.806H184.547V261.426H180.637Z" fill="#263238"/>
<path d="M185.666 260.876C185.669 260.745 185.722 260.621 185.816 260.529C185.909 260.437 186.035 260.386 186.166 260.386C186.231 260.383 186.296 260.394 186.357 260.417C186.418 260.439 186.474 260.474 186.522 260.519C186.569 260.564 186.608 260.617 186.634 260.677C186.66 260.737 186.675 260.801 186.676 260.866C186.691 260.94 186.689 261.017 186.671 261.09C186.653 261.163 186.618 261.231 186.571 261.29C186.523 261.348 186.463 261.395 186.394 261.428C186.326 261.46 186.252 261.477 186.176 261.477C186.101 261.477 186.026 261.46 185.958 261.428C185.89 261.395 185.829 261.348 185.781 261.29C185.734 261.231 185.699 261.163 185.681 261.09C185.663 261.017 185.661 260.94 185.676 260.866L185.666 260.876ZM185.816 262.486H186.506V267.606H185.816V262.486Z" fill="#263238"/>
<path d="M191.007 262.426V263.106H190.877C190.634 263.093 190.39 263.135 190.165 263.227C189.94 263.319 189.737 263.46 189.573 263.64C189.409 263.82 189.286 264.034 189.214 264.266C189.142 264.499 189.123 264.745 189.157 264.986V267.596H188.467V262.476H189.127V263.476C189.299 263.133 189.571 262.85 189.906 262.663C190.241 262.476 190.624 262.393 191.007 262.426Z" fill="#263238"/>
<path d="M191.576 267.017L191.886 266.477C192.418 266.853 193.055 267.053 193.706 267.047C194.706 267.047 195.076 266.717 195.076 266.217C195.076 264.877 191.766 265.927 191.766 263.907C191.766 263.077 192.486 262.447 193.766 262.447C194.402 262.439 195.028 262.605 195.576 262.927L195.276 263.487C194.831 263.186 194.303 263.032 193.766 263.047C192.846 263.047 192.436 263.407 192.436 263.887C192.436 265.267 195.746 264.227 195.746 266.197C195.746 267.077 194.976 267.647 193.636 267.647C192.9 267.663 192.177 267.442 191.576 267.017Z" fill="#263238"/>
<path d="M199.736 267.286C199.431 267.531 199.048 267.659 198.656 267.646C198.455 267.669 198.252 267.647 198.06 267.582C197.869 267.516 197.695 267.408 197.551 267.266C197.407 267.124 197.296 266.951 197.228 266.761C197.16 266.57 197.135 266.367 197.156 266.166V263.076H196.246V262.486H197.156V261.426H197.876V262.536H199.426V263.126H197.876V266.176C197.859 266.298 197.87 266.422 197.907 266.539C197.945 266.656 198.008 266.763 198.093 266.852C198.177 266.941 198.281 267.011 198.396 267.055C198.51 267.098 198.634 267.116 198.756 267.106C199.032 267.113 199.302 267.021 199.516 266.846L199.736 267.286Z" fill="#263238"/>
<path d="M208.227 264.636V267.636H207.537V264.736C207.57 264.523 207.554 264.306 207.49 264.1C207.426 263.894 207.317 263.706 207.169 263.549C207.022 263.392 206.841 263.27 206.639 263.194C206.438 263.117 206.222 263.087 206.007 263.106C205.763 263.087 205.518 263.122 205.288 263.209C205.059 263.295 204.852 263.431 204.681 263.607C204.51 263.782 204.38 263.993 204.3 264.225C204.22 264.456 204.192 264.703 204.217 264.946V267.636H203.527V262.516H204.187V263.426C204.392 263.099 204.681 262.834 205.025 262.658C205.368 262.482 205.752 262.402 206.137 262.426C206.426 262.412 206.715 262.46 206.983 262.567C207.251 262.675 207.493 262.839 207.692 263.049C207.89 263.26 208.041 263.51 208.134 263.784C208.226 264.058 208.258 264.349 208.227 264.636Z" fill="#263238"/>
<path d="M213.958 264.427V267.597H213.298V266.797C213.106 267.081 212.842 267.309 212.532 267.457C212.223 267.604 211.879 267.666 211.538 267.637C210.388 267.637 209.678 267.037 209.678 266.157C209.678 265.277 210.178 264.707 211.678 264.707H213.298V264.427C213.298 263.547 212.808 263.077 211.858 263.077C211.237 263.066 210.634 263.279 210.158 263.677L209.838 263.167C210.413 262.694 211.133 262.433 211.878 262.427C212.153 262.385 212.435 262.407 212.701 262.492C212.967 262.577 213.209 262.721 213.41 262.914C213.611 263.108 213.765 263.344 213.86 263.607C213.955 263.869 213.988 264.149 213.958 264.427ZM213.268 266.057V265.217H211.668C210.668 265.217 210.358 265.607 210.358 266.137C210.358 266.667 210.828 267.137 211.648 267.137C211.997 267.155 212.343 267.062 212.634 266.869C212.926 266.676 213.148 266.395 213.268 266.067V266.057Z" fill="#263238"/>
<path d="M224.267 264.636V267.636H223.577V264.736C223.577 263.656 223.037 263.106 222.107 263.106C221.868 263.094 221.629 263.134 221.407 263.224C221.185 263.315 220.986 263.452 220.823 263.627C220.66 263.803 220.538 264.012 220.464 264.239C220.39 264.467 220.367 264.708 220.397 264.946V267.636H219.707V264.736C219.707 263.656 219.167 263.106 218.237 263.106C217.998 263.094 217.759 263.134 217.537 263.224C217.315 263.315 217.116 263.452 216.953 263.627C216.79 263.803 216.668 264.012 216.594 264.239C216.52 264.467 216.497 264.708 216.527 264.946V267.636H215.877V262.516H216.537V263.426C216.728 263.105 217.003 262.842 217.333 262.665C217.662 262.489 218.034 262.406 218.407 262.426C218.785 262.395 219.163 262.483 219.489 262.676C219.815 262.87 220.073 263.16 220.227 263.506C220.433 263.163 220.727 262.882 221.079 262.692C221.431 262.502 221.827 262.41 222.227 262.426C222.515 262.406 222.803 262.452 223.072 262.558C223.34 262.665 223.58 262.83 223.776 263.042C223.972 263.254 224.118 263.508 224.203 263.783C224.287 264.059 224.309 264.351 224.267 264.636Z" fill="#263238"/>
<path d="M230.607 265.256H226.337C226.351 265.504 226.414 265.747 226.522 265.971C226.63 266.195 226.781 266.396 226.967 266.561C227.153 266.726 227.37 266.854 227.605 266.935C227.84 267.017 228.088 267.051 228.337 267.036C228.63 267.045 228.922 266.99 229.191 266.875C229.461 266.759 229.702 266.585 229.897 266.366L230.287 266.816C229.92 267.2 229.448 267.467 228.93 267.584C228.412 267.701 227.871 267.662 227.375 267.474C226.878 267.285 226.449 266.954 226.14 266.522C225.83 266.09 225.656 265.577 225.637 265.046C225.637 264.383 225.9 263.747 226.369 263.278C226.838 262.809 227.474 262.546 228.137 262.546C228.8 262.546 229.436 262.809 229.904 263.278C230.373 263.747 230.637 264.383 230.637 265.046C230.617 265.106 230.607 265.186 230.607 265.256ZM226.337 264.746H229.957C229.936 264.281 229.734 263.842 229.394 263.525C229.053 263.207 228.602 263.035 228.137 263.046C227.673 263.035 227.224 263.208 226.887 263.526C226.55 263.844 226.352 264.283 226.337 264.746Z" fill="#263238"/>
<path d="M185.707 311.426V312.046H180.877V305.246H185.547V305.866H181.547V308.286H185.067V308.896H181.547V311.426H185.707Z" fill="#263238"/>
<path d="M195.676 309.116V312.116H194.986V309.216C194.986 308.136 194.446 307.586 193.516 307.586C193.276 307.574 193.036 307.615 192.814 307.705C192.591 307.796 192.391 307.934 192.228 308.111C192.065 308.287 191.942 308.498 191.87 308.727C191.797 308.956 191.775 309.198 191.806 309.436V312.116H191.116V309.216C191.116 308.136 190.576 307.586 189.646 307.586C189.407 307.576 189.168 307.618 188.946 307.709C188.724 307.8 188.525 307.939 188.362 308.115C188.199 308.291 188.077 308.5 188.003 308.728C187.93 308.957 187.907 309.198 187.936 309.436V312.116H187.246V307.006H187.876V307.936C188.069 307.616 188.344 307.355 188.673 307.179C189.003 307.003 189.373 306.919 189.746 306.936C190.124 306.906 190.502 306.993 190.828 307.186C191.154 307.38 191.412 307.67 191.566 308.016C191.772 307.673 192.066 307.392 192.418 307.202C192.77 307.012 193.167 306.92 193.566 306.936C193.857 306.904 194.152 306.939 194.427 307.039C194.702 307.138 194.951 307.299 195.155 307.509C195.359 307.72 195.511 307.974 195.602 308.252C195.692 308.531 195.717 308.826 195.676 309.116Z" fill="#263238"/>
<path d="M201.407 308.917V312.087H200.747V311.287C200.557 311.573 200.293 311.803 199.983 311.952C199.674 312.102 199.33 312.165 198.987 312.137C197.827 312.137 197.117 311.537 197.117 310.647C197.117 309.757 197.627 309.197 199.117 309.197H200.737V308.887C200.737 308.017 200.237 307.537 199.287 307.537C198.667 307.527 198.064 307.74 197.587 308.137L197.277 307.627C197.868 307.16 198.604 306.915 199.357 306.937C199.629 306.901 199.905 306.927 200.165 307.012C200.425 307.098 200.663 307.241 200.86 307.432C201.057 307.622 201.209 307.855 201.303 308.112C201.398 308.369 201.434 308.644 201.407 308.917ZM200.717 310.547V309.717H199.117C198.117 309.717 197.797 310.107 197.797 310.627C197.797 311.147 198.277 311.627 199.097 311.627C199.447 311.643 199.793 311.547 200.085 311.353C200.376 311.159 200.598 310.876 200.717 310.547Z" fill="#263238"/>
<path d="M203.127 305.356C203.15 305.24 203.213 305.136 203.304 305.062C203.395 304.987 203.509 304.946 203.627 304.946C203.745 304.946 203.859 304.987 203.95 305.062C204.041 305.136 204.104 305.24 204.127 305.356C204.142 305.43 204.14 305.506 204.122 305.579C204.104 305.653 204.07 305.721 204.022 305.779C203.974 305.838 203.914 305.885 203.845 305.917C203.777 305.95 203.703 305.966 203.627 305.966C203.552 305.966 203.477 305.95 203.409 305.917C203.341 305.885 203.28 305.838 203.233 305.779C203.185 305.721 203.151 305.653 203.132 305.579C203.114 305.506 203.112 305.43 203.127 305.356ZM203.277 306.976H203.967V312.086H203.277V306.976Z" fill="#263238"/>
<path d="M205.877 304.876H206.567V312.086H205.877V304.876Z" fill="#263238"/>
<path d="M182.877 350.156C182.877 351.606 181.877 352.476 180.097 352.476H178.267V354.626H177.547V347.826H180.097C181.807 347.826 182.877 348.696 182.877 350.156ZM182.157 350.156C182.157 349.066 181.437 348.446 180.077 348.446H178.267V351.846H180.077C181.417 351.846 182.137 351.226 182.137 350.156H182.157Z" fill="#263238"/>
<path d="M188.077 351.426V354.596H187.407V353.796C187.219 354.082 186.957 354.312 186.649 354.462C186.341 354.612 185.998 354.675 185.657 354.646C184.497 354.646 183.787 354.046 183.787 353.156C183.787 352.266 184.287 351.706 185.787 351.706H187.417V351.426C187.417 350.556 186.917 350.076 185.967 350.076C185.346 350.069 184.742 350.285 184.267 350.686L183.957 350.166C184.548 349.699 185.284 349.455 186.037 349.476C186.305 349.442 186.577 349.469 186.834 349.554C187.091 349.639 187.325 349.78 187.52 349.966C187.716 350.153 187.867 350.381 187.963 350.633C188.06 350.886 188.098 351.157 188.077 351.426ZM187.387 353.066V352.226H185.777C184.777 352.226 184.467 352.616 184.467 353.136C184.467 353.656 184.947 354.136 185.757 354.136C186.104 354.156 186.448 354.066 186.74 353.88C187.033 353.693 187.259 353.419 187.387 353.096V353.066Z" fill="#263238"/>
<path d="M189.236 354.046L189.546 353.496C190.077 353.876 190.714 354.079 191.366 354.076C192.366 354.076 192.736 353.746 192.736 353.236C192.736 351.906 189.416 352.956 189.416 350.936C189.416 350.096 190.136 349.476 191.416 349.476C192.053 349.463 192.68 349.629 193.226 349.956L192.926 350.506C192.479 350.21 191.953 350.056 191.416 350.066C190.496 350.066 190.086 350.426 190.086 350.916C190.086 352.296 193.406 351.256 193.406 353.216C193.406 354.106 192.626 354.676 191.296 354.676C190.56 354.694 189.837 354.473 189.236 354.046Z" fill="#263238"/>
<path d="M193.986 354.046L194.296 353.496C194.827 353.876 195.464 354.079 196.116 354.076C197.116 354.076 197.486 353.746 197.486 353.236C197.486 351.906 194.166 352.956 194.166 350.936C194.166 350.096 194.886 349.476 196.166 349.476C196.803 349.464 197.43 349.63 197.976 349.956L197.676 350.506C197.229 350.21 196.703 350.056 196.166 350.066C195.246 350.066 194.836 350.426 194.836 350.916C194.836 352.296 198.156 351.256 198.156 353.216C198.156 354.106 197.376 354.676 196.046 354.676C195.31 354.694 194.587 354.473 193.986 354.046Z" fill="#263238"/>
<path d="M206.877 349.516L204.877 354.626H204.227L202.647 350.426L201.037 354.616H200.387L198.457 349.506H199.127L200.727 353.846L202.367 349.506H202.967L204.597 353.846L206.217 349.506L206.877 349.516Z" fill="#263238"/>
<path d="M207.227 352.067C207.229 351.553 207.383 351.051 207.67 350.625C207.957 350.199 208.363 349.867 208.839 349.672C209.314 349.476 209.836 349.426 210.34 349.528C210.844 349.629 211.306 349.878 211.669 350.242C212.031 350.606 212.278 351.069 212.377 351.573C212.477 352.077 212.425 352.599 212.228 353.074C212.031 353.548 211.697 353.954 211.27 354.239C210.843 354.524 210.34 354.677 209.827 354.677C209.481 354.689 209.136 354.63 208.815 354.504C208.493 354.377 208.201 354.185 207.956 353.94C207.712 353.695 207.521 353.402 207.396 353.079C207.27 352.757 207.213 352.412 207.227 352.067ZM211.727 352.067C211.707 351.696 211.579 351.339 211.359 351.04C211.139 350.741 210.836 350.513 210.487 350.384C210.139 350.255 209.76 350.232 209.398 350.316C209.037 350.4 208.708 350.589 208.452 350.858C208.196 351.127 208.025 351.466 207.959 351.831C207.894 352.197 207.937 352.574 208.083 352.915C208.229 353.256 208.472 353.547 208.782 353.752C209.092 353.957 209.455 354.066 209.827 354.067C210.086 354.071 210.344 354.022 210.583 353.922C210.822 353.822 211.038 353.673 211.217 353.485C211.396 353.297 211.533 353.073 211.621 352.829C211.709 352.585 211.745 352.325 211.727 352.067Z" fill="#263238"/>
<path d="M216.407 349.476V350.147H216.237C215.993 350.133 215.749 350.175 215.522 350.268C215.296 350.361 215.093 350.503 214.929 350.684C214.764 350.865 214.642 351.08 214.571 351.314C214.499 351.548 214.481 351.795 214.517 352.036V354.636H213.877V349.527H214.537V350.527C214.71 350.186 214.98 349.905 215.313 349.718C215.646 349.531 216.026 349.447 216.407 349.476Z" fill="#263238"/>
<path d="M222.256 347.426V354.636H221.596V353.636C221.39 353.977 221.095 354.256 220.743 354.443C220.391 354.629 219.994 354.717 219.596 354.696C218.907 354.696 218.245 354.422 217.758 353.934C217.27 353.447 216.996 352.785 216.996 352.096C216.996 351.406 217.27 350.745 217.758 350.257C218.245 349.77 218.907 349.496 219.596 349.496C219.978 349.48 220.358 349.564 220.698 349.74C221.038 349.915 221.327 350.175 221.536 350.496V347.426H222.256ZM221.576 352.076C221.557 351.704 221.428 351.347 221.208 351.048C220.987 350.749 220.683 350.521 220.334 350.392C219.985 350.264 219.606 350.241 219.244 350.326C218.882 350.411 218.553 350.601 218.298 350.871C218.042 351.141 217.872 351.48 217.807 351.847C217.743 352.213 217.787 352.59 217.935 352.931C218.083 353.272 218.328 353.563 218.639 353.766C218.95 353.97 219.314 354.077 219.686 354.076C219.946 354.079 220.203 354.029 220.442 353.927C220.681 353.826 220.896 353.676 221.074 353.487C221.251 353.298 221.388 353.074 221.474 352.829C221.561 352.585 221.596 352.325 221.576 352.066V352.076Z" fill="#263238"/>
<path d="M294.877 261.756H295.587V267.946H299.407V268.566H294.877V261.756Z" fill="#263238"/>
<path d="M304.276 265.426V268.596H303.616V267.796C303.426 268.083 303.162 268.313 302.853 268.462C302.543 268.612 302.199 268.675 301.856 268.646C300.696 268.646 299.986 268.036 299.986 267.156C299.986 266.276 300.496 265.706 301.986 265.706H303.606V265.396C303.606 264.526 303.106 264.046 302.156 264.046C301.536 264.037 300.933 264.25 300.456 264.646L300.146 264.136C300.737 263.669 301.474 263.425 302.226 263.446C302.498 263.41 302.774 263.436 303.034 263.522C303.295 263.608 303.532 263.751 303.729 263.942C303.926 264.132 304.078 264.364 304.173 264.621C304.267 264.878 304.303 265.154 304.276 265.426ZM303.586 267.056V266.226H301.986C300.986 266.226 300.666 266.616 300.666 267.136C300.666 267.656 301.146 268.136 301.966 268.136C302.32 268.151 302.669 268.051 302.961 267.851C303.253 267.651 303.472 267.361 303.586 267.026V267.056Z" fill="#263238"/>
<path d="M305.438 267.986L305.747 267.436C306.279 267.812 306.916 268.012 307.568 268.006C308.568 268.006 308.938 267.676 308.938 267.176C308.938 265.846 305.628 266.896 305.628 264.866C305.628 264.036 306.338 263.416 307.628 263.416C308.259 263.404 308.882 263.566 309.427 263.886L309.128 264.446C308.684 264.149 308.161 263.996 307.628 264.006C306.698 264.006 306.298 264.366 306.298 264.856C306.298 266.236 309.608 265.186 309.608 267.156C309.608 268.036 308.827 268.616 307.497 268.616C306.762 268.627 306.041 268.407 305.438 267.986Z" fill="#263238"/>
<path d="M313.588 268.256C313.281 268.499 312.899 268.627 312.508 268.616C312.307 268.638 312.103 268.615 311.912 268.548C311.721 268.481 311.548 268.371 311.405 268.228C311.262 268.085 311.153 267.912 311.086 267.721C311.019 267.53 310.995 267.327 311.018 267.126V264.036H310.098V263.426H311.018V262.306H311.708V263.426H313.258V264.006H311.708V267.056C311.691 267.177 311.701 267.301 311.739 267.419C311.776 267.536 311.84 267.643 311.924 267.732C312.009 267.821 312.112 267.891 312.227 267.934C312.342 267.978 312.465 267.996 312.588 267.986C312.864 267.995 313.135 267.902 313.348 267.726L313.588 268.256Z" fill="#263238"/>
<path d="M322.087 265.596V268.596H321.397V265.696C321.43 265.482 321.413 265.264 321.349 265.057C321.285 264.851 321.174 264.662 321.026 264.504C320.877 264.347 320.694 264.226 320.492 264.15C320.289 264.074 320.072 264.045 319.857 264.066C319.612 264.049 319.367 264.085 319.138 264.173C318.91 264.26 318.703 264.398 318.533 264.574C318.363 264.751 318.234 264.962 318.155 265.194C318.077 265.426 318.05 265.673 318.077 265.916V268.596H317.387V263.426H318.047V264.426C318.251 264.102 318.539 263.838 318.88 263.662C319.222 263.486 319.604 263.405 319.987 263.426C320.273 263.411 320.558 263.457 320.825 263.562C321.091 263.666 321.332 263.827 321.531 264.033C321.73 264.238 321.883 264.484 321.979 264.754C322.075 265.024 322.111 265.311 322.087 265.596Z" fill="#263238"/>
<path d="M327.817 265.426V268.596H327.157V267.796C326.968 268.083 326.704 268.314 326.394 268.464C326.085 268.613 325.74 268.676 325.397 268.646C324.237 268.646 323.527 268.036 323.527 267.156C323.527 266.276 324.037 265.706 325.527 265.706H327.147V265.396C327.147 264.526 326.647 264.046 325.697 264.046C325.077 264.037 324.474 264.25 323.997 264.646L323.687 264.136C324.279 263.671 325.015 263.427 325.767 263.446C326.039 263.41 326.315 263.436 326.575 263.522C326.836 263.608 327.073 263.751 327.27 263.942C327.467 264.132 327.619 264.364 327.714 264.621C327.808 264.878 327.844 265.154 327.817 265.426ZM327.127 267.056V266.226H325.527C324.527 266.226 324.207 266.616 324.207 267.136C324.207 267.656 324.687 268.136 325.507 268.136C325.861 268.151 326.21 268.051 326.502 267.851C326.794 267.651 327.013 267.361 327.127 267.026V267.056Z" fill="#263238"/>
<path d="M338.128 265.596V268.596H337.438V265.696C337.438 264.616 336.897 264.066 335.967 264.066C335.727 264.054 335.488 264.094 335.265 264.185C335.042 264.276 334.843 264.414 334.679 264.591C334.516 264.767 334.394 264.977 334.321 265.206C334.248 265.436 334.226 265.678 334.258 265.916V268.596H333.568V265.696C333.568 264.616 333.027 264.066 332.087 264.066C331.848 264.056 331.609 264.097 331.387 264.189C331.165 264.28 330.966 264.418 330.803 264.595C330.641 264.771 330.518 264.98 330.445 265.208C330.371 265.437 330.348 265.678 330.378 265.916V268.596H329.688V263.426H330.348V264.426C330.541 264.105 330.818 263.842 331.149 263.666C331.48 263.49 331.853 263.407 332.228 263.426C332.605 263.397 332.983 263.485 333.308 263.678C333.634 263.872 333.892 264.161 334.048 264.506C334.252 264.162 334.546 263.879 334.898 263.689C335.25 263.499 335.648 263.408 336.048 263.426C336.335 263.401 336.624 263.441 336.894 263.543C337.164 263.644 337.407 263.805 337.607 264.013C337.806 264.222 337.957 264.472 338.047 264.746C338.137 265.02 338.164 265.31 338.128 265.596Z" fill="#263238"/>
<path d="M344.468 266.226H340.188C340.221 266.725 340.45 267.191 340.824 267.522C341.199 267.853 341.689 268.024 342.188 267.996C342.483 268.008 342.776 267.953 343.048 267.837C343.319 267.722 343.562 267.547 343.758 267.326L344.148 267.776C343.781 268.164 343.309 268.434 342.789 268.553C342.269 268.672 341.726 268.634 341.228 268.445C340.729 268.256 340.298 267.923 339.989 267.489C339.679 267.055 339.505 266.539 339.488 266.006C339.47 265.669 339.522 265.332 339.64 265.016C339.758 264.699 339.94 264.411 340.174 264.168C340.409 263.925 340.691 263.733 341.003 263.603C341.315 263.474 341.65 263.41 341.988 263.416C342.325 263.41 342.659 263.474 342.97 263.603C343.281 263.733 343.562 263.925 343.795 264.169C344.028 264.412 344.208 264.701 344.324 265.017C344.44 265.333 344.489 265.67 344.468 266.006C344.478 266.066 344.468 266.146 344.468 266.226ZM340.188 265.706H343.818C343.784 265.248 343.578 264.82 343.241 264.507C342.905 264.195 342.462 264.021 342.003 264.021C341.543 264.021 341.101 264.195 340.765 264.507C340.428 264.82 340.222 265.248 340.188 265.706Z" fill="#263238"/>
<path d="M166.876 346.846C166.828 346.633 166.798 346.415 166.786 346.196C166.792 345.668 166.669 345.146 166.426 344.676C166.236 344.34 165.971 344.052 165.652 343.834C165.333 343.615 164.969 343.473 164.586 343.416C164.125 343.355 163.655 343.425 163.232 343.62C162.809 343.815 162.45 344.126 162.196 344.516C161.976 344.851 161.845 345.237 161.816 345.636C161.816 346.056 161.816 346.456 161.816 346.856L161.576 346.606C163.359 346.597 165.141 346.677 166.916 346.846C165.143 347.042 163.36 347.125 161.576 347.096H161.326V346.846C161.326 346.446 161.326 346.056 161.326 345.596C161.353 345.111 161.509 344.642 161.776 344.236C162.081 343.762 162.518 343.387 163.033 343.158C163.549 342.928 164.12 342.855 164.676 342.946C165.124 343.019 165.548 343.199 165.912 343.47C166.276 343.742 166.569 344.097 166.766 344.506C167.023 345.051 167.104 345.663 166.996 346.256C166.956 346.686 166.876 346.876 166.876 346.846Z" fill="#112EC1"/>
<path d="M165.148 353.346C164.96 352.968 164.8 352.577 164.668 352.176V352.066L164.778 351.986C164.937 351.862 165.045 351.683 165.082 351.484C165.119 351.285 165.082 351.08 164.978 350.906C164.926 350.798 164.849 350.703 164.753 350.629C164.657 350.556 164.546 350.506 164.428 350.484C164.309 350.461 164.187 350.467 164.071 350.5C163.956 350.533 163.849 350.593 163.761 350.675C163.672 350.757 163.604 350.858 163.562 350.971C163.52 351.084 163.505 351.206 163.519 351.325C163.532 351.445 163.573 351.56 163.639 351.661C163.705 351.762 163.794 351.846 163.898 351.906L164.058 351.996L164.008 352.166L163.708 353.356L163.518 353.116C164.075 353.142 164.629 353.206 165.178 353.306C164.638 353.46 164.078 353.527 163.518 353.506H163.278V353.246C163.358 352.846 163.428 352.446 163.498 352.036L163.608 352.296C163.449 352.199 163.313 352.068 163.211 351.912C163.108 351.756 163.042 351.58 163.016 351.395C162.99 351.211 163.006 351.023 163.061 350.845C163.117 350.667 163.211 350.503 163.338 350.366C163.476 350.212 163.652 350.096 163.848 350.027C164.043 349.959 164.253 349.942 164.458 349.976C164.646 350.007 164.824 350.079 164.98 350.188C165.136 350.297 165.265 350.44 165.358 350.606C165.509 350.878 165.548 351.198 165.468 351.498C165.388 351.798 165.194 352.056 164.928 352.216L165.008 352.026C165.136 352.454 165.184 352.901 165.148 353.346Z" fill="#112EC1"/>
<path d="M167.626 346.856C167.771 346.827 167.921 346.827 168.066 346.856C168.429 346.965 168.753 347.176 169.001 347.463C169.249 347.75 169.41 348.101 169.466 348.476C169.466 348.826 169.466 349.166 169.466 349.556C169.466 350.346 169.466 351.216 169.466 352.176C169.466 352.666 169.466 353.176 169.466 353.696C169.504 354.266 169.484 354.839 169.406 355.406C169.318 355.723 169.158 356.016 168.938 356.261C168.717 356.506 168.443 356.696 168.136 356.816C167.819 356.943 167.477 356.998 167.136 356.976H166.136H162.136H161.076C160.769 356.991 160.462 356.94 160.176 356.828C159.889 356.715 159.63 356.543 159.416 356.323C159.201 356.102 159.036 355.839 158.931 355.55C158.825 355.261 158.783 354.953 158.806 354.646C158.806 353.106 158.806 351.646 158.806 350.146V349.076C158.775 348.694 158.823 348.309 158.946 347.946C159.081 347.587 159.31 347.27 159.609 347.029C159.908 346.788 160.266 346.632 160.646 346.576L160.446 346.806C160.446 346.326 160.446 345.896 160.446 345.406C160.492 344.936 160.632 344.481 160.856 344.066C161.328 343.269 162.086 342.682 162.976 342.426C163.647 342.183 164.375 342.149 165.066 342.327C165.756 342.506 166.377 342.889 166.846 343.426C167.15 343.762 167.384 344.155 167.533 344.583C167.683 345.01 167.745 345.464 167.716 345.916C167.707 346.231 167.677 346.545 167.626 346.856C167.577 346.548 167.557 346.237 167.566 345.926C167.561 345.066 167.229 344.239 166.636 343.616C166.282 343.243 165.845 342.96 165.361 342.79C164.876 342.62 164.358 342.567 163.849 342.637C163.34 342.706 162.855 342.895 162.434 343.189C162.013 343.483 161.667 343.872 161.426 344.326C161.233 344.693 161.114 345.093 161.076 345.506C161.076 345.916 161.076 346.416 161.076 346.876V347.076H160.876C160.583 347.122 160.307 347.246 160.077 347.434C159.846 347.622 159.67 347.868 159.566 348.146C159.469 348.47 159.435 348.809 159.466 349.146V350.216C159.466 351.666 159.466 353.216 159.466 354.716C159.438 355.038 159.503 355.36 159.654 355.646C159.805 355.932 160.035 356.168 160.316 356.326C160.593 356.471 160.903 356.544 161.216 356.536H166.296C166.891 356.592 167.491 356.559 168.076 356.436C168.317 356.341 168.534 356.192 168.707 355.999C168.881 355.806 169.007 355.576 169.076 355.326C169.149 354.799 169.176 354.267 169.156 353.736C169.156 353.216 169.156 352.736 169.156 352.216C169.156 351.216 169.156 350.386 169.156 349.596C169.156 349.216 169.156 348.836 169.156 348.536C169.13 348.255 169.038 347.984 168.886 347.746C168.583 347.311 168.137 346.996 167.626 346.856Z" fill="#112EC1"/>
<path d="M171.998 313.596C171.968 313.34 171.951 313.083 171.948 312.826C171.948 312.286 171.948 311.586 171.878 310.736C171.828 308.896 171.768 306.366 171.688 303.316L171.898 303.526L156.658 303.726L156.878 303.426V304.766C156.878 305.216 156.878 305.666 156.878 306.116C156.878 307.006 156.878 307.886 156.878 308.746C156.878 310.456 156.878 312.116 156.878 313.676L156.638 313.446C161.078 313.446 164.858 313.446 167.548 313.446H170.708C171.098 313.436 171.489 313.453 171.878 313.496C171.526 313.544 171.172 313.564 170.818 313.556L167.708 313.656C165.028 313.726 161.188 313.816 156.638 313.876H156.408V313.636C156.408 312.066 156.408 310.416 156.348 308.696C156.348 307.836 156.348 306.956 156.348 306.066C156.348 305.626 156.348 305.176 156.348 304.726V303.376L156.608 303.106L171.848 303.006H172.058V303.216C172.058 306.316 172.058 308.886 172.058 310.766C172.058 311.596 172.058 312.276 172.058 312.766C172.075 313.044 172.055 313.323 171.998 313.596Z" fill="#112EC1"/>
<path d="M171.878 303.316C171.238 303.976 170.531 304.566 169.768 305.076C168.428 306.076 166.557 307.506 164.467 309.016H164.118L164.018 308.946L163.818 308.806L163.428 308.536L162.667 308.006L161.238 307.006L158.827 305.266C158.061 304.762 157.345 304.186 156.688 303.546C157.515 303.943 158.301 304.419 159.038 304.966L161.508 306.616L162.958 307.616L163.728 308.146L164.118 308.416L164.307 308.546L164.408 308.616H164.458H164.178C166.268 307.106 168.177 305.756 169.577 304.796C170.298 304.235 171.068 303.739 171.878 303.316Z" fill="#112EC1"/>
<path d="M157.057 313.736C157.685 312.514 158.468 311.378 159.387 310.356C160.171 309.222 161.095 308.191 162.137 307.286C161.508 308.513 160.721 309.653 159.797 310.676C159.015 311.807 158.095 312.835 157.057 313.736Z" fill="#112EC1"/>
<path d="M167.107 307.286C168.116 308.168 169.007 309.176 169.757 310.286C170.646 311.29 171.399 312.407 171.997 313.606C170.988 312.725 170.097 311.717 169.347 310.606C168.458 309.603 167.704 308.487 167.107 307.286Z" fill="#112EC1"/>
<path d="M357.947 381.916H150.277C148.808 381.916 147.617 383.107 147.617 384.576V411.726C147.617 413.195 148.808 414.386 150.277 414.386H357.947C359.416 414.386 360.607 413.195 360.607 411.726V384.576C360.607 383.107 359.416 381.916 357.947 381.916Z" fill="#112EC1"/>
<g opacity="0.3">
<path d="M357.947 381.916H150.277C148.808 381.916 147.617 383.107 147.617 384.576V411.726C147.617 413.195 148.808 414.386 150.277 414.386H357.947C359.416 414.386 360.607 413.195 360.607 411.726V384.576C360.607 383.107 359.416 381.916 357.947 381.916Z" fill="black"/>
</g>
<path d="M357.947 377.396H150.277C148.808 377.396 147.617 378.587 147.617 380.056V407.206C147.617 408.676 148.808 409.866 150.277 409.866H357.947C359.416 409.866 360.607 408.676 360.607 407.206V380.056C360.607 378.587 359.416 377.396 357.947 377.396Z" fill="#112EC1"/>
<path d="M236.127 394.326C236.121 393.858 236.211 393.392 236.392 392.96C236.572 392.527 236.839 392.135 237.176 391.809C237.513 391.484 237.913 391.23 238.352 391.064C238.791 390.899 239.259 390.825 239.727 390.847C240.21 390.827 240.691 390.912 241.137 391.095C241.584 391.278 241.987 391.555 242.317 391.907L241.687 392.516C241.326 392.133 240.858 391.868 240.343 391.754C239.829 391.64 239.293 391.683 238.803 391.877C238.314 392.072 237.894 392.409 237.598 392.845C237.303 393.28 237.144 393.795 237.144 394.321C237.144 394.848 237.303 395.363 237.598 395.798C237.894 396.234 238.314 396.571 238.803 396.766C239.293 396.96 239.829 397.003 240.343 396.889C240.858 396.775 241.326 396.51 241.687 396.127L242.317 396.736C241.986 397.091 241.582 397.37 241.134 397.555C240.685 397.739 240.202 397.825 239.717 397.807C239.25 397.827 238.783 397.752 238.345 397.586C237.908 397.419 237.509 397.166 237.173 396.84C236.837 396.514 236.571 396.123 236.391 395.691C236.211 395.259 236.121 394.794 236.127 394.326Z" fill="white"/>
<path d="M248.246 397.726L246.776 395.636H246.356H244.666V397.706H243.666V390.906H246.326C248.086 390.906 249.156 391.796 249.156 393.276C249.179 393.749 249.045 394.215 248.776 394.604C248.506 394.993 248.116 395.282 247.666 395.426L249.276 397.706L248.246 397.726ZM248.246 393.296C248.246 392.296 247.596 391.776 246.356 391.776H244.696V394.836H246.356C247.566 394.836 248.216 394.266 248.216 393.296H248.246Z" fill="white"/>
<path d="M255.698 396.886V397.726H250.758V390.926H255.558V391.776H251.728V393.866H255.148V394.686H251.728V396.886H255.698Z" fill="white"/>
<path d="M261.606 396.026H257.986L257.236 397.726H256.236L259.316 390.926H260.316L263.406 397.726H262.406L261.606 396.026ZM261.266 395.256L259.796 391.916L258.326 395.256H261.266Z" fill="white"/>
<path d="M265.387 391.776H263.057V390.926H268.687V391.776H266.347V397.726H265.347L265.387 391.776Z" fill="white"/>
<path d="M274.676 396.886V397.726H269.736V390.926H274.536V391.776H270.706V393.866H274.116V394.686H270.706V396.886H274.676Z" fill="white"/>
<path d="M223.567 190.967C251.04 163.493 251.04 118.95 223.567 91.4767C196.094 64.0033 151.55 64.0033 124.077 91.4767C96.6036 118.95 96.6036 163.493 124.077 190.967C151.55 218.44 196.094 218.44 223.567 190.967Z" fill="#E0E0E0"/>
<path d="M214.126 46.1359C212.896 47.6795 212.146 49.55 211.968 51.5159C211.79 53.4818 212.193 55.4566 213.126 57.1959C214.006 58.7759 215.346 60.1959 215.546 61.9859C215.876 64.8959 213.056 67.5159 213.546 70.4159C213.856 72.4159 215.546 73.7859 216.466 75.5559C217.035 76.707 217.264 77.996 217.128 79.2726C216.992 80.5492 216.495 81.7607 215.696 82.7659C214.416 84.3259 212.406 85.3159 211.576 87.1659C210.956 88.5259 211.106 90.1659 210.576 91.5359C210.104 92.6085 209.362 93.5406 208.423 94.2416C207.484 94.9425 206.379 95.3884 205.216 95.5359C202.878 95.8167 200.509 95.6847 198.216 95.1459L198.726 92.6159C198.293 93.2877 197.702 93.8438 197.005 94.2358C196.308 94.6279 195.526 94.8441 194.726 94.8659C193.125 94.8978 191.53 94.6612 190.006 94.1659C189.056 89.8759 188.126 85.3459 189.466 81.1659C190.686 77.4059 193.566 74.4659 195.966 71.3259C198.631 67.8396 200.764 63.9777 202.296 59.8659C203.396 56.9159 204.186 53.8659 205.726 51.0659C207.266 48.2659 209.726 45.8459 212.806 45.2559" fill="#263238"/>
<path d="M259.877 105.225L245.957 106.225L245.817 102.645C245.631 100.871 246.055 99.087 247.017 97.5854C247.171 97.3211 247.282 97.0342 247.347 96.7354C247.447 95.6754 245.887 90.3554 245.347 88.4054C244.667 86.0654 245.997 84.8254 246.517 85.7854C247.457 87.5354 249.947 95.0454 250.727 95.7854C251.507 96.5254 251.057 92.5954 251.057 92.5954C249.837 84.3254 249.307 83.1254 250.777 82.8154C252.467 82.4554 254.327 94.7654 254.327 94.7654C254.327 94.7654 254.077 93.0454 255.397 92.6954C256.717 92.3454 257.327 94.0354 257.327 94.0354C257.157 93.1654 258.407 93.0354 258.407 93.0354C261.527 93.4654 259.907 105.335 259.907 105.335L245.987 106.335L239.317 152.885L232.197 141.975L213.617 155.235L230.367 175.235C231.822 176.967 233.653 178.343 235.72 179.26C237.788 180.177 240.037 180.61 242.297 180.525C245.992 180.391 249.503 178.881 252.142 176.29C254.78 173.7 256.355 170.217 256.557 166.525L259.877 105.225Z" fill="#EB996E"/>
<path d="M248.988 105.355C248.928 105.285 249.668 104.635 250.658 103.415C251.233 102.701 251.754 101.946 252.218 101.155C252.495 100.688 252.749 100.208 252.978 99.7154C253.259 99.2553 253.424 98.7335 253.458 98.1954C253.454 98.0705 253.414 97.9494 253.344 97.8465C253.273 97.7437 253.173 97.6634 253.058 97.6154C252.784 97.5695 252.503 97.6152 252.258 97.7454C251.712 98.0026 251.192 98.3142 250.708 98.6754C249.926 99.267 249.249 99.9873 248.708 100.805L248.548 101.035L248.428 100.795C248.142 100.28 247.77 99.8165 247.328 99.4254C247.328 99.4254 248.088 99.6054 248.738 100.685H248.458C248.97 99.7914 249.649 99.0038 250.458 98.3654C250.963 97.9733 251.51 97.638 252.088 97.3654C252.444 97.1772 252.855 97.1206 253.248 97.2054C253.459 97.28 253.644 97.4141 253.781 97.5915C253.918 97.769 254 97.9822 254.018 98.2054C254 98.8488 253.814 99.4762 253.478 100.025C253.235 100.523 252.964 101.007 252.668 101.475C252.174 102.278 251.609 103.035 250.978 103.735C250.407 104.38 249.735 104.927 248.988 105.355Z" fill="#D1734A"/>
<path d="M254.497 95.4255C254.582 96.2768 254.582 97.1343 254.497 97.9855C254.497 98.8255 254.408 99.7555 254.348 100.746C254.308 101.271 254.308 101.8 254.348 102.326C254.348 102.816 254.817 103.236 255.167 103.036C255.517 102.836 255.718 102.236 255.868 101.706C256.018 101.176 256.137 100.646 256.247 100.136C256.467 99.1355 256.627 98.1955 256.777 97.4255C256.876 96.5753 257.074 95.7396 257.367 94.9355C257.366 95.7907 257.289 96.644 257.138 97.4855C257.038 98.2655 256.917 99.1955 256.717 100.236C256.627 100.746 256.507 101.286 256.357 101.846C256.31 102.175 256.197 102.491 256.025 102.776C255.853 103.061 255.626 103.309 255.357 103.506C255.175 103.589 254.971 103.616 254.773 103.582C254.575 103.548 254.392 103.455 254.247 103.316C253.992 103.074 253.835 102.746 253.807 102.396C253.776 101.835 253.796 101.273 253.868 100.716C253.968 99.7289 254.057 98.8089 254.137 97.9555C254.169 97.102 254.29 96.2541 254.497 95.4255Z" fill="#D1734A"/>
<path d="M256.877 98.975C256.957 98.975 256.757 99.555 256.817 100.455C256.835 100.951 256.983 101.434 257.247 101.855C257.417 102.025 257.537 102.035 257.697 101.855C257.877 101.583 258.031 101.295 258.157 100.995C258.791 99.4171 259.29 97.7879 259.647 96.125C259.803 97.8822 259.456 99.6475 258.647 101.215C258.503 101.565 258.325 101.9 258.117 102.215C258.043 102.31 257.949 102.387 257.842 102.441C257.735 102.494 257.617 102.523 257.497 102.525C257.382 102.521 257.271 102.492 257.169 102.44C257.067 102.388 256.977 102.315 256.907 102.225C256.707 101.959 256.579 101.645 256.537 101.315C256.485 101.052 256.461 100.783 256.467 100.515C256.437 99.475 256.787 98.945 256.877 98.975Z" fill="#D1734A"/>
<path d="M198.257 186.485L199.557 206.725C159.967 221.895 130.557 196.725 130.557 196.725L136.477 178.615L137.477 146.995L129.877 155.425L126.287 152.425L108.177 137.345L104.287 134.095L123.117 114.225C146.927 88.5951 165.457 96.4251 165.457 96.4251L193.297 99.0351C193.297 99.0351 212.557 101.765 221.877 118.645C229.467 132.385 237.727 146.935 237.727 146.935L213.867 163.935L206.277 149.995L198.257 186.485Z" fill="#455A64"/>
<path d="M103.477 140.955C103.477 142.145 103.477 143.325 103.547 144.525C103.711 149.22 104.347 153.887 105.447 158.455V158.585C105.587 159.155 105.747 159.715 105.907 160.275C106.527 162.475 107.347 164.415 108.127 166.545C108.227 166.815 108.327 167.075 108.437 167.345C110.957 166.685 117.647 160.345 125.817 152.075L107.687 136.955C105.357 139.495 104.257 140.655 103.477 140.955Z" fill="#EB996E"/>
<path d="M190.766 101.665C191.766 94.7654 192.896 87.5254 192.896 87.5254C192.896 87.5254 201.986 87.2754 205.426 75.9354C208.706 65.1154 210.426 39.3254 210.426 39.3254C204.468 35.9216 197.612 34.4211 190.777 35.0252C183.942 35.6293 177.455 38.3093 172.186 42.7054L165.186 98.8554C164.376 105.365 169.336 111.255 176.326 112.075C183.376 112.895 189.876 108.235 190.766 101.665Z" fill="#EB996E"/>
<path d="M204.366 58.8156C204.316 59.204 204.117 59.5578 203.811 59.8022C203.505 60.0466 203.116 60.1626 202.726 60.1256C202.534 60.1143 202.347 60.0647 202.174 59.9796C202.002 59.8946 201.848 59.7758 201.722 59.6304C201.596 59.485 201.501 59.3159 201.442 59.133C201.382 58.9502 201.36 58.7572 201.376 58.5656C201.429 58.1791 201.629 57.8278 201.935 57.5855C202.24 57.3431 202.628 57.2285 203.016 57.2656C203.207 57.277 203.394 57.3264 203.566 57.4108C203.738 57.4952 203.891 57.613 204.017 57.7573C204.142 57.9017 204.238 58.0696 204.298 58.2513C204.358 58.433 204.381 58.6249 204.366 58.8156Z" fill="#263238"/>
<path d="M207.006 57.4853C206.796 57.6553 205.786 56.6653 204.186 56.4853C202.586 56.3053 201.296 56.9153 201.186 56.6953C201.076 56.4753 201.346 56.2653 201.906 55.9653C202.666 55.5831 203.525 55.4434 204.366 55.5653C205.2 55.6794 205.977 56.0539 206.586 56.6353C206.996 57.0353 207.106 57.4253 207.006 57.4853Z" fill="#263238"/>
<path d="M187.946 56.8451C187.896 57.2327 187.697 57.5855 187.391 57.8283C187.084 58.0711 186.695 58.1848 186.306 58.1451C186.115 58.135 185.927 58.0866 185.755 58.0026C185.583 57.9186 185.429 57.8008 185.303 57.6562C185.177 57.5116 185.081 57.3431 185.022 57.1608C184.962 56.9785 184.94 56.7861 184.956 56.5951C185.007 56.2067 185.206 55.8529 185.512 55.6085C185.818 55.3641 186.207 55.2481 186.596 55.2851C186.788 55.2977 186.975 55.3482 187.147 55.4337C187.319 55.5192 187.472 55.6379 187.597 55.7831C187.723 55.9282 187.818 56.0968 187.878 56.2791C187.938 56.4614 187.961 56.6537 187.946 56.8451Z" fill="#263238"/>
<path d="M190.227 55.7652C190.017 55.9352 189.007 54.9452 187.407 54.7652C185.807 54.5852 184.517 55.1852 184.407 54.9652C184.297 54.7452 184.567 54.5452 185.127 54.2452C185.887 53.8636 186.745 53.724 187.587 53.8452C188.423 53.9519 189.202 54.3274 189.807 54.9152C190.207 55.3152 190.327 55.6952 190.227 55.7652Z" fill="#263238"/>
<path d="M194.396 68.4258C195.278 68.2777 196.175 68.2408 197.066 68.3158C197.476 68.3158 197.876 68.3158 197.986 68.0358C198.073 67.6174 198.034 67.1829 197.876 66.7858C197.626 65.7858 197.366 64.6458 197.096 63.5058C196.026 58.8458 195.316 55.0358 195.506 54.9858C195.696 54.9358 196.716 58.6958 197.776 63.3558C198.036 64.5058 198.276 65.5958 198.506 66.6458C198.697 67.1725 198.697 67.7491 198.506 68.2758C198.428 68.4115 198.319 68.5277 198.189 68.616C198.06 68.7043 197.912 68.7623 197.756 68.7858C197.521 68.8161 197.282 68.8161 197.046 68.7858C196.152 68.7751 195.262 68.6542 194.396 68.4258Z" fill="#263238"/>
<path d="M192.877 87.5251C187.391 86.8644 182.197 84.6899 177.877 81.2451C177.877 81.2451 180.547 89.7251 192.297 90.2451L192.877 87.5251Z" fill="#D1734A"/>
<path d="M198.407 35.7455C199.157 37.5755 197.977 39.7455 196.307 40.7455C194.546 41.6586 192.616 42.203 190.637 42.3455C188.656 42.5012 186.76 43.2232 185.177 44.4255C182.457 46.8955 183.177 50.4255 180.427 53.6355C179.788 54.5375 178.908 55.2423 177.888 55.6701C176.868 56.0978 175.749 56.2313 174.657 56.0555C172.457 55.7455 169.607 56.2555 168.497 58.7955C167.387 61.3355 168.727 63.2055 169.957 65.5355C171.187 67.8655 170.857 70.2555 170.157 72.8055C169.657 74.6455 168.077 76.0855 167.727 77.9655C167.167 80.9655 169.727 84.3055 167.997 86.7655C166.267 89.2255 161.877 88.1355 159.947 90.4255C159.247 91.2355 158.847 92.4255 157.817 92.7455C157.177 92.8356 156.524 92.7164 155.957 92.4055L146.957 88.5955C147.187 87.6655 147.427 86.7255 147.667 85.7955C147.002 86.4778 146.184 86.9919 145.281 87.2951C144.377 87.5984 143.415 87.6822 142.473 87.5395C141.531 87.3968 140.636 87.0317 139.863 86.4746C139.09 85.9174 138.461 85.1842 138.027 84.3355C139.913 83.2403 141.659 81.9207 143.227 80.4055C144.776 78.8632 145.716 76.8148 145.877 74.6355C145.967 71.9955 144.537 69.3255 145.337 66.8155C146.487 63.2255 151.337 62.3255 153.477 59.2455C155.477 56.3655 154.807 52.1855 156.877 49.3355C159.287 46.0355 164.377 45.8855 167.137 42.8655C169.007 40.8655 169.437 37.8655 170.797 35.4355C172.559 32.579 175.311 30.4715 178.527 29.5155C181.723 28.583 185.053 28.1943 188.377 28.3655C190.873 28.2481 193.359 28.746 195.617 29.8155C197.787 31.0255 199.427 33.5055 198.917 35.9455" fill="#263238"/>
<path d="M174.658 56.0857C173.454 55.648 172.152 55.5545 170.898 55.8157C170.271 55.9448 169.676 56.1969 169.148 56.5573C168.619 56.9178 168.167 57.3795 167.818 57.9157C167.178 59.0369 166.985 60.3584 167.278 61.6157C167.578 62.8629 168.152 64.0277 168.958 65.0257C169.474 65.7742 170.16 66.3908 170.958 66.8257C171.364 67.0446 171.817 67.1591 172.278 67.1591C172.739 67.1591 173.193 67.0446 173.598 66.8257" fill="#EB996E"/>
<path d="M172.937 63.505C173.077 63.575 172.427 64.255 171.337 63.785C170.769 63.5055 170.329 63.0189 170.107 62.425C169.856 61.7373 169.744 61.0065 169.777 60.275C169.791 59.4965 170.082 58.7483 170.597 58.165C170.815 57.9169 171.087 57.722 171.392 57.5955C171.698 57.4689 172.028 57.414 172.357 57.435C173.527 57.565 173.777 58.435 173.647 58.435C173.517 58.435 173.147 58.045 172.357 58.115C171.868 58.2324 171.436 58.5202 171.139 58.927C170.842 59.3337 170.7 59.8329 170.737 60.335C170.737 61.635 171.027 62.865 171.667 63.255C172.307 63.645 172.877 63.425 172.937 63.505Z" fill="#D1734A"/>
<path d="M198.446 36.4253C197.991 37.676 197.981 39.0455 198.418 40.3026C198.855 41.5597 199.713 42.6274 200.846 43.3254C202.146 44.0754 203.746 44.3254 204.846 45.3254C205.87 46.4366 206.466 47.8756 206.526 49.3853C206.578 50.8791 206.858 52.3562 207.356 53.7654C207.63 54.4606 208.12 55.0495 208.754 55.4456C209.387 55.8416 210.131 56.0238 210.876 55.9654L213.386 48.5554C214.306 45.8354 215.236 42.9253 214.576 40.1153C213.636 36.1153 209.676 33.4953 205.716 32.4053C203.902 31.7609 201.919 31.7786 200.116 32.4553C198.396 33.2653 197.226 35.4553 198.116 37.1553" fill="#263238"/>
<path d="M150.178 89.7953C150.178 89.7953 150.418 89.6153 150.768 89.1653C151.243 88.4941 151.527 87.7058 151.588 86.8853C151.632 85.5747 151.558 84.2628 151.368 82.9653C151.282 82.1243 151.364 81.2747 151.608 80.4653C151.894 79.5588 152.375 78.7259 153.018 78.0253C154.328 76.5353 156.158 75.3753 157.738 73.7853C158.574 72.997 159.197 72.0096 159.548 70.9153C159.842 69.7335 159.877 68.5017 159.648 67.3053C159.458 66.0453 159.138 64.7653 158.978 63.4153C158.777 62.0133 158.914 60.5836 159.378 59.2453C159.879 57.8411 160.73 56.5875 161.85 55.6026C162.969 54.6177 164.321 53.9338 165.778 53.6153C168.718 52.9653 171.778 53.3653 174.178 52.1253C175.346 51.4926 176.271 50.4902 176.808 49.2753C177.323 48.0824 177.748 46.8522 178.078 45.5953C178.403 44.363 178.898 43.1818 179.548 42.0853C180.219 41.0517 181.189 40.2462 182.328 39.7753C184.366 39.0886 186.531 38.8599 188.668 39.1053C190.393 39.2744 192.134 39.1731 193.828 38.8053C195.093 38.5052 196.26 37.8855 197.218 37.0053C197.76 36.3861 198.108 35.6209 198.218 34.8053C198.318 34.2553 198.318 33.9453 198.348 33.9553C198.379 34.2445 198.379 34.5361 198.348 34.8253C198.263 35.6836 197.914 36.4943 197.348 37.1453C196.383 38.0869 195.185 38.7562 193.878 39.0853C192.159 39.4904 190.387 39.6187 188.628 39.4653C186.547 39.2479 184.444 39.4903 182.468 40.1753C181.415 40.6189 180.522 41.3723 179.908 42.3353C179.287 43.399 178.816 44.5431 178.508 45.7353C178.176 47.0189 177.748 48.2758 177.228 49.4953C176.934 50.1333 176.55 50.726 176.088 51.2553C175.601 51.79 175.026 52.2366 174.388 52.5753C171.728 53.9053 168.678 53.4853 165.858 54.1253C164.496 54.4359 163.235 55.0842 162.19 56.0104C161.145 56.9367 160.35 58.111 159.878 59.4253C159.436 60.6889 159.302 62.0397 159.488 63.3653C159.638 64.6753 159.948 65.9553 160.138 67.2453C160.376 68.5094 160.331 69.8104 160.008 71.0553C159.622 72.2017 158.955 73.2331 158.068 74.0553C156.418 75.6853 154.588 76.8153 153.308 78.2353C152.718 78.8543 152.268 79.592 151.987 80.3992C151.706 81.2063 151.6 82.0641 151.678 82.9153C151.852 84.2411 151.896 85.5809 151.808 86.9153C151.722 87.7638 151.4 88.5711 150.878 89.2453C150.681 89.4712 150.444 89.6578 150.178 89.7953Z" fill="#455A64"/>
<path d="M203.777 95.6153C203.944 95.4484 204.101 95.2714 204.247 95.0853C204.616 94.5185 204.824 93.8615 204.847 93.1853C204.927 92.3053 204.697 91.1853 204.757 89.9253C204.932 88.4465 205.545 87.0537 206.517 85.9253C207.447 84.6353 208.687 83.2953 209.017 81.4953C209.347 79.6953 208.577 77.7653 208.197 75.6653C207.976 74.5607 208.02 73.4193 208.327 72.3353C208.698 71.2544 209.22 70.2311 209.877 69.2953C210.517 68.2953 211.227 67.3953 211.777 66.3753C212.376 65.3742 212.719 64.2408 212.777 63.0753C212.729 61.9104 212.344 60.7845 211.667 59.8353C210.982 58.858 210.427 57.7957 210.017 56.6753C209.337 54.3453 209.867 52.0653 210.017 49.9953C210.126 48.9969 210.106 47.9886 209.957 46.9953C209.81 46.0638 209.439 45.1818 208.877 44.4253C207.748 43.1305 206.362 42.085 204.807 41.3553C203.497 40.7307 202.251 39.9805 201.087 39.1153C200.191 38.4574 199.439 37.6238 198.877 36.6653C198.529 36.0527 198.327 35.3684 198.287 34.6653C198.268 34.4242 198.285 34.1816 198.337 33.9453C198.337 33.9453 198.337 34.1953 198.397 34.6553C198.474 35.3295 198.699 35.9783 199.057 36.5553C199.627 37.4622 200.367 38.2501 201.237 38.8753C202.404 39.705 203.646 40.4248 204.947 41.0253C206.57 41.7537 208.019 42.8209 209.197 44.1553C209.818 44.9523 210.233 45.8898 210.407 46.8853C210.572 47.9237 210.602 48.9791 210.497 50.0253C210.357 52.1353 209.867 54.3753 210.497 56.5153C210.899 57.5798 211.437 58.5881 212.097 59.5153C212.831 60.5423 213.245 61.7635 213.287 63.0253C213.23 64.279 212.862 65.499 212.217 66.5753C211.637 67.6353 210.927 68.5753 210.297 69.5753C209.652 70.4776 209.14 71.4677 208.777 72.5153C208.481 73.5223 208.433 74.5858 208.637 75.6153C208.977 77.6153 209.787 79.6153 209.407 81.6153C209.213 82.5317 208.835 83.3992 208.297 84.1653C207.797 84.9053 207.297 85.5553 206.787 86.1653C205.843 87.2234 205.228 88.5334 205.017 89.9353C204.927 91.1753 205.127 92.2853 205.017 93.1953C204.969 93.8979 204.719 94.5716 204.297 95.1353C204.163 95.334 203.985 95.4985 203.777 95.6153Z" fill="#455A64"/>
<path d="M139.967 85.1054C139.967 85.1054 140.297 85.1054 140.917 85.1754C141.823 85.1946 142.723 85.0208 143.557 84.6654C144.893 84.1203 146.045 83.2042 146.877 82.0254C147.937 80.4509 148.555 78.6205 148.667 76.7254C148.907 74.6255 148.377 72.3454 148.317 69.7954C148.247 68.4589 148.541 67.1285 149.167 65.9454C149.998 64.8035 151.079 63.8664 152.327 63.2054C153.571 62.5582 154.584 61.5416 155.227 60.2954C155.686 58.8923 155.902 57.4213 155.867 55.9454C155.883 54.3537 156.188 52.7782 156.767 51.2954C157.081 50.5259 157.539 49.8234 158.117 49.2254C158.763 48.6532 159.563 48.2814 160.417 48.1554C162.077 47.8654 163.687 48.0354 165.237 47.8654C166.741 47.757 168.158 47.1193 169.237 46.0654C170.272 45.0146 171.124 43.7977 171.757 42.4654C172.427 41.1654 172.947 39.8254 173.587 38.5454C174.18 37.285 174.936 36.1082 175.837 35.0454C176.694 34.0144 177.823 33.2452 179.097 32.8254C180.303 32.4801 181.581 32.4801 182.787 32.8254C183.867 33.1315 184.921 33.5262 185.937 34.0054C187.612 34.9056 189.439 35.4855 191.327 35.7154C192.76 35.7853 194.192 35.5642 195.537 35.0654C196.685 34.6353 197.761 34.0316 198.727 33.2754C198.514 33.5138 198.276 33.7284 198.017 33.9154C197.279 34.4713 196.468 34.9222 195.607 35.2554C194.244 35.7994 192.783 36.0548 191.317 36.0054C189.389 35.8033 187.516 35.2402 185.797 34.3454C184.795 33.878 183.755 33.4998 182.687 33.2154C181.556 32.8904 180.357 32.8904 179.227 33.2154C178.035 33.6231 176.979 34.3535 176.177 35.3254C175.313 36.368 174.587 37.5174 174.017 38.7454C172.807 41.2254 171.867 44.1854 169.587 46.4154C169.002 46.9785 168.325 47.4383 167.587 47.7754C166.84 48.0955 166.046 48.2947 165.237 48.3654C163.627 48.5354 162.007 48.3654 160.457 48.6454C159.714 48.7616 159.02 49.0877 158.457 49.5854C157.93 50.137 157.51 50.7811 157.217 51.4854C156.671 52.9138 156.38 54.4267 156.357 55.9554C156.388 57.4905 156.154 59.0195 155.667 60.4754C154.981 61.8088 153.898 62.8958 152.567 63.5854C151.388 64.2077 150.363 65.0858 149.567 66.1554C148.976 67.2673 148.696 68.5179 148.757 69.7754C148.757 72.2354 149.307 74.5854 149.047 76.7754C148.904 78.7245 148.241 80.5996 147.127 82.2054C146.254 83.4026 145.057 84.3254 143.677 84.8654C142.814 85.2122 141.884 85.3592 140.957 85.2954C140.62 85.2752 140.287 85.2113 139.967 85.1054Z" fill="#455A64"/>
<path d="M213.458 46.9854C213.376 45.9797 213.094 45.0006 212.628 44.1054C212.08 43.1638 211.357 42.3356 210.498 41.6654C209.426 40.8617 208.261 40.1902 207.028 39.6654C205.718 39.0554 204.428 38.5154 203.318 37.8954C202.316 37.3543 201.391 36.6817 200.568 35.8954C200.014 35.3646 199.551 34.7463 199.198 34.0654C199.041 33.8292 198.945 33.5578 198.918 33.2754C199.442 34.1413 200.081 34.9319 200.818 35.6254C201.652 36.3329 202.569 36.9372 203.548 37.4254C204.638 38.0054 205.918 38.5254 207.248 39.1354C208.519 39.6947 209.714 40.4102 210.808 41.2654C211.698 41.9861 212.427 42.8854 212.948 43.9054C213.307 44.5932 213.511 45.3506 213.548 46.1254C213.581 46.4152 213.55 46.7087 213.458 46.9854Z" fill="#455A64"/>
<path d="M190.878 51.7851C190.778 51.9051 190.428 51.7851 189.878 51.6151C189.14 51.4448 188.385 51.3576 187.628 51.3551C186.868 51.3467 186.109 51.4273 185.368 51.5951C184.798 51.7251 184.448 51.8751 184.368 51.7651C184.288 51.6551 184.498 51.2651 185.108 50.9151C185.894 50.5139 186.765 50.3047 187.648 50.3047C188.531 50.3047 189.401 50.5139 190.188 50.9151C190.708 51.2951 190.928 51.6951 190.878 51.7851Z" fill="#263238"/>
<path d="M205.437 53.7551C205.387 54.0351 204.347 54.1251 203.097 53.9451C201.847 53.7651 200.877 53.4251 200.877 53.0951C200.877 52.7651 201.967 52.7351 203.217 52.9151C204.467 53.0951 205.477 53.4751 205.437 53.7551Z" fill="#263238"/>
<path d="M170.438 66.5059C170.438 66.5059 170.538 66.5759 170.688 66.7559C170.903 67.0187 171.084 67.3077 171.228 67.6159C171.745 68.7622 171.899 70.0396 171.668 71.2759C171.343 73.0753 170.739 74.813 169.878 76.4259C169.4 77.3486 169.245 78.4048 169.438 79.4259C169.79 80.4979 170.274 81.5223 170.878 82.4759C171.482 83.4774 171.747 84.6479 171.632 85.8123C171.516 86.9767 171.027 88.0724 170.238 88.9359C169.564 89.7055 168.67 90.2499 167.678 90.4959C166.838 90.67 165.985 90.7637 165.128 90.7759C163.924 90.7429 162.736 91.0478 161.698 91.6559C161.341 91.9158 161.028 92.2296 160.768 92.5859C160.768 92.5859 160.768 92.4559 160.898 92.2559C161.071 91.9598 161.303 91.7014 161.578 91.4959C162.607 90.7959 163.823 90.423 165.068 90.4259C165.899 90.3895 166.726 90.2791 167.538 90.0959C168.449 89.8555 169.265 89.3426 169.878 88.6259C170.548 87.8446 170.979 86.8862 171.118 85.8659C171.227 84.7648 170.982 83.6576 170.418 82.7059C169.8 81.7089 169.313 80.6368 168.968 79.5159C168.769 78.4038 168.945 77.2574 169.468 76.2559C169.898 75.2559 170.368 74.4659 170.658 73.6159C170.955 72.8377 171.183 72.0345 171.338 71.2159C171.586 70.0408 171.492 68.8192 171.068 67.6959C170.718 66.9059 170.398 66.5359 170.438 66.5059Z" fill="#263238"/>
<path d="M216.877 93.4258C216.677 93.5178 216.457 93.559 216.237 93.5458C215.919 93.5262 215.608 93.4426 215.322 93.3C215.037 93.1574 214.784 92.9587 214.577 92.7158C214.233 92.342 213.981 91.8941 213.838 91.4067C213.696 90.9193 213.668 90.4057 213.757 89.9058C214.069 88.6146 214.742 87.4388 215.697 86.5158C216.839 85.4751 217.847 84.296 218.697 83.0058C219.104 82.2733 219.301 81.443 219.267 80.6058C219.208 79.7136 218.999 78.8378 218.647 78.0158C217.748 76.2373 216.947 74.4112 216.247 72.5458C215.936 71.4881 215.936 70.3635 216.247 69.3058C216.642 68.284 217.142 67.3055 217.737 66.3858C218.307 65.5261 218.535 64.4849 218.377 63.4658C218.107 62.4965 217.574 61.6208 216.837 60.9358C216.147 60.1958 215.387 59.5058 214.747 58.7158C214.102 57.9407 213.638 57.0322 213.387 56.0558C212.997 54.2602 213.024 52.3991 213.467 50.6158C213.817 48.9558 214.297 47.4558 214.597 46.0658C215.227 43.8779 215.115 41.5429 214.277 39.4258C213.928 38.6839 213.455 38.0074 212.877 37.4258C212.877 37.4258 212.877 37.4258 213.017 37.5158C213.146 37.6076 213.267 37.7114 213.377 37.8258C213.833 38.2876 214.199 38.8302 214.457 39.4258C214.887 40.3204 215.148 41.2865 215.227 42.2758C215.317 43.5801 215.216 44.8907 214.927 46.1658C214.637 47.5758 214.187 49.0858 213.857 50.7258C213.461 52.4467 213.461 54.2349 213.857 55.9558C214.081 56.8633 214.508 57.7079 215.107 58.4258C215.717 59.1758 216.467 59.8458 217.187 60.6058C217.988 61.3454 218.572 62.2892 218.877 63.3358C219.052 64.4734 218.806 65.6357 218.187 66.6058C217.6 67.4935 217.104 68.4383 216.707 69.4258C216.419 70.4051 216.419 71.4465 216.707 72.4258C217.392 74.2721 218.173 76.0813 219.047 77.8458C219.417 78.7219 219.63 79.656 219.677 80.6058C219.708 81.5213 219.486 82.4276 219.037 83.2258C218.154 84.5356 217.109 85.7284 215.927 86.7758C215 87.6377 214.335 88.7433 214.007 89.9658C213.908 90.426 213.919 90.903 214.039 91.3581C214.159 91.8133 214.384 92.2338 214.697 92.5858C215.069 93.0602 215.61 93.372 216.207 93.4558C216.657 93.4258 216.877 93.3658 216.877 93.4258Z" fill="#263238"/>
<path d="M256.117 106.905C255.466 106.061 254.739 105.278 253.947 104.565C253.053 103.989 252.113 103.488 251.137 103.065C251.705 103.031 252.274 103.11 252.811 103.297C253.348 103.484 253.843 103.776 254.267 104.155C254.746 104.464 255.156 104.868 255.474 105.34C255.793 105.813 256.011 106.346 256.117 106.905Z" fill="#D1734A"/>
<path d="M241.207 161.706C240.488 160.281 239.999 158.753 239.757 157.176C239.354 155.627 239.209 154.022 239.327 152.426C239.726 153.954 240.04 155.503 240.267 157.066C240.672 158.592 240.986 160.142 241.207 161.706Z" fill="#D1734A"/>
<path d="M177.438 150.495C179.192 149.911 180.736 148.826 181.88 147.374C183.025 145.922 183.719 144.167 183.878 142.325C184.418 137.115 180.878 132.485 176.088 131.975C171.298 131.465 166.888 135.295 166.348 140.505C166.126 142.357 166.455 144.233 167.295 145.898C168.134 147.563 169.447 148.943 171.068 149.865C163.568 150.255 159.938 154.865 158.168 158.985C160.941 162.889 165.027 165.665 169.678 166.805L175.078 167.365C179.93 167.198 184.553 165.264 188.078 161.925C187.188 157.535 184.578 152.325 177.438 150.495Z" fill="white"/>
<g opacity="0.3">
<path d="M137.558 146.995L141.998 142.415C141.998 142.415 140.078 175.515 138.768 179.495C137.458 183.475 130.598 196.725 130.598 196.725L136.518 178.615L137.558 146.995Z" fill="black"/>
</g>
<path d="M147.387 136.806C147.487 136.906 143.587 141.136 138.667 146.256C133.747 151.376 129.667 155.456 129.557 155.356C129.447 155.256 133.367 151.026 138.287 145.896C143.207 140.766 147.287 136.706 147.387 136.806Z" fill="#263238"/>
<path d="M209.458 134.216C209.476 134.55 209.46 134.885 209.408 135.216C209.348 135.876 209.238 136.836 209.078 138.026C208.758 140.386 208.218 143.646 207.478 147.206C206.738 150.766 205.928 153.976 205.278 156.276C204.948 157.426 204.668 158.346 204.458 158.986C204.38 159.336 204.252 159.672 204.078 159.986C204.104 159.647 204.164 159.312 204.258 158.986C204.448 158.226 204.658 157.316 204.918 156.246C205.478 153.926 206.228 150.726 206.968 147.166C207.708 143.606 208.298 140.376 208.718 138.026C208.908 136.946 209.068 136.026 209.208 135.246C209.243 134.892 209.327 134.546 209.458 134.216Z" fill="#263238"/>
<path d="M189.328 71.1257C189.554 70.9338 189.817 70.791 190.101 70.7066C190.385 70.6221 190.683 70.5978 190.977 70.6352C191.271 70.6726 191.554 70.7708 191.807 70.9237C192.061 71.0766 192.28 71.2807 192.45 71.523C192.621 71.7653 192.739 72.0405 192.797 72.3309C192.855 72.6214 192.852 72.9208 192.787 73.21C192.723 73.4991 192.599 73.7717 192.424 74.0103C192.248 74.2489 192.025 74.4483 191.768 74.5957C191.506 74.7358 191.218 74.8202 190.922 74.8435C190.626 74.8667 190.328 74.8284 190.048 74.7309C189.767 74.6334 189.51 74.4789 189.292 74.277C189.074 74.0751 188.901 73.8302 188.782 73.5579C188.664 73.2856 188.603 72.9916 188.604 72.6946C188.604 72.3976 188.667 72.104 188.786 71.8323C188.906 71.5606 189.081 71.3166 189.3 71.1158C189.519 70.915 189.777 70.7618 190.058 70.6657" fill="#112EC1"/>
<path d="M189.538 68.8951C189.798 68.8951 189.538 70.6551 190.878 72.0851C192.218 73.5151 194.078 73.5951 194.058 73.8351C194.038 74.0751 193.598 74.1151 192.808 74.0251C191.787 73.9026 190.844 73.4204 190.148 72.6651C189.482 71.9417 189.123 70.9879 189.148 70.0051C189.168 69.2651 189.418 68.8651 189.538 68.8951Z" fill="#263238"/>
<path d="M167.347 42.9953C168.492 41.5797 169.228 39.8786 169.477 38.0753C169.484 36.7852 169.02 35.5368 168.174 34.5633C167.327 33.5898 166.155 32.9578 164.877 32.7853C163.586 32.6946 162.303 33.0532 161.245 33.8005C160.188 34.5478 159.422 35.6376 159.077 36.8853C158.805 38.1517 158.95 39.4721 159.491 40.6491C160.032 41.8261 160.939 42.7965 162.077 43.4153C163.239 43.9864 164.548 44.1882 165.828 43.9933C167.108 43.7984 168.298 43.2163 169.237 42.3253" fill="#263238"/>
<path d="M169.637 37.8057C169.773 39.1109 169.417 40.4199 168.637 41.4757C167.995 42.6225 166.946 43.4862 165.697 43.8957C166.621 43.0798 167.458 42.1717 168.197 41.1857C168.792 40.1113 169.274 38.9787 169.637 37.8057Z" fill="#455A64"/>
<path d="M166.558 43.4252C166.597 41.5502 166.375 39.6788 165.898 37.8652C165.261 36.083 164.375 34.3997 163.268 32.8652C163.268 32.8652 163.828 33.2152 164.488 34.0352C165.345 35.1118 165.993 36.3397 166.398 37.6552C166.811 38.9666 166.98 40.3427 166.898 41.7152C166.911 42.3033 166.795 42.8872 166.558 43.4252Z" fill="#455A64"/>
<path d="M201.818 226.336C215.84 226.336 227.208 214.968 227.208 200.946C227.208 186.923 215.84 175.556 201.818 175.556C187.795 175.556 176.428 186.923 176.428 200.946C176.428 214.968 187.795 226.336 201.818 226.336Z" fill="#112EC1"/>
<g opacity="0.3">
<path d="M201.818 226.336C215.84 226.336 227.208 214.968 227.208 200.946C227.208 186.923 215.84 175.556 201.818 175.556C187.795 175.556 176.428 186.923 176.428 200.946C176.428 214.968 187.795 226.336 201.818 226.336Z" fill="black"/>
</g>
<path d="M201.818 221.626C215.84 221.626 227.208 210.258 227.208 196.236C227.208 182.213 215.84 170.846 201.818 170.846C187.795 170.846 176.428 182.213 176.428 196.236C176.428 210.258 187.795 221.626 201.818 221.626Z" fill="#112EC1"/>
<path d="M201.818 211.256C201.098 211.256 200.508 204.526 200.508 196.256C200.508 187.986 201.098 181.256 201.818 181.256C202.538 181.256 203.118 187.986 203.118 196.256C203.118 204.526 202.528 211.256 201.818 211.256Z" fill="white"/>
<path d="M216.877 196.236C216.877 196.956 210.157 197.536 201.877 197.536C193.597 197.536 186.877 196.956 186.877 196.236C186.877 195.516 193.597 194.936 201.877 194.936C210.157 194.936 216.877 195.516 216.877 196.236Z" fill="white"/>
</svg>
