<svg width="354" height="247" viewBox="0 0 354 247" fill="none" xmlns="http://www.w3.org/2000/svg">
<path d="M354 232.738H0V232.915H354V232.738Z" fill="#EBEBEB"/>
<path d="M48.5131 239.479H37.1426V239.656H48.5131V239.479Z" fill="#EBEBEB"/>
<path d="M159.067 237.561H121.168V237.738H159.067V237.561Z" fill="#EBEBEB"/>
<path d="M74.8857 246.057H49.2207V246.234H74.8857V246.057Z" fill="#EBEBEB"/>
<path d="M299.01 237.469H268.432V237.646H299.01V237.469Z" fill="#EBEBEB"/>
<path d="M309.8 237.469H305.318V237.646H309.8V237.469Z" fill="#EBEBEB"/>
<path d="M262.59 241.879H224.436V242.056H262.59V241.879Z" fill="#EBEBEB"/>
<path d="M167.796 201.162H31.0883C30.0174 201.16 28.9909 200.733 28.2343 199.975C27.4777 199.217 27.0527 198.19 27.0527 197.119V4.94673C27.0621 3.88192 27.4911 2.86378 28.2467 2.11347C29.0023 1.36316 30.0235 0.941277 31.0883 0.939453H167.796C168.868 0.939453 169.897 1.36538 170.655 2.12353C171.413 2.88168 171.839 3.90995 171.839 4.98213V197.119C171.839 198.191 171.413 199.22 170.655 199.978C169.897 200.736 168.868 201.162 167.796 201.162ZM31.0883 1.08105C30.0643 1.08293 29.0829 1.49103 28.3595 2.21578C27.636 2.94054 27.2297 3.92272 27.2297 4.94673V197.119C27.2297 198.143 27.636 199.125 28.3595 199.85C29.0829 200.575 30.0643 200.983 31.0883 200.985H167.796C168.821 200.983 169.803 200.575 170.527 199.851C171.252 199.126 171.66 198.144 171.662 197.119V4.94673C171.66 3.92207 171.252 2.9399 170.527 2.21535C169.803 1.4908 168.821 1.08293 167.796 1.08105H31.0883Z" fill="#EBEBEB"/>
<path d="M320.943 201.162H184.228C183.157 201.16 182.129 200.733 181.372 199.976C180.614 199.218 180.187 198.191 180.186 197.119V4.94673C180.197 3.88127 180.627 2.86314 181.384 2.11303C182.141 1.36291 183.163 0.941257 184.228 0.939453H320.943C322.007 0.943138 323.026 1.36585 323.78 2.11596C324.534 2.86607 324.962 3.88314 324.972 4.94673V197.119C324.972 198.189 324.548 199.215 323.792 199.973C323.037 200.731 322.013 201.158 320.943 201.162ZM184.228 1.08105C183.204 1.08293 182.221 1.4908 181.497 2.21535C180.772 2.9399 180.364 3.92207 180.363 4.94673V197.119C180.364 198.144 180.772 199.126 181.497 199.851C182.221 200.575 183.204 200.983 184.228 200.985H320.943C321.968 200.983 322.95 200.575 323.674 199.851C324.399 199.126 324.807 198.144 324.809 197.119V4.94673C324.807 3.92207 324.399 2.9399 323.674 2.21535C322.95 1.4908 321.968 1.08293 320.943 1.08105H184.228Z" fill="#EBEBEB"/>
<path d="M280.615 173.557H275.914V232.738H280.615V173.557Z" fill="#F5F5F5"/>
<path d="M282.663 173.557H278.57V232.738H282.663V173.557Z" fill="#F0F0F0"/>
<path d="M170.961 173.557H166.26V232.738H170.961V173.557Z" fill="#F5F5F5"/>
<path d="M173.006 173.557H168.914V232.738H173.006V173.557Z" fill="#F0F0F0"/>
<path d="M298.435 173.557H293.734V232.738H298.435V173.557Z" fill="#F5F5F5"/>
<path d="M300.483 173.557H296.391V232.738H300.483V173.557Z" fill="#F0F0F0"/>
<path d="M188.781 173.557H184.08V232.738H188.781V173.557Z" fill="#F5F5F5"/>
<path d="M166.267 174.676L300.482 174.676V172.431L166.267 172.431V174.676Z" fill="#F0F0F0"/>
<path d="M166.259 174.676H186.734V172.431H166.259V174.676Z" fill="#E6E6E6"/>
<path d="M190.827 173.557H186.734V232.738H190.827V173.557Z" fill="#F0F0F0"/>
<path d="M233.386 129.328H220.691V172.431H233.386V129.328Z" fill="#EBEBEB"/>
<path d="M267.808 172.431H225.668L219.303 121.986H261.443L267.808 172.431Z" fill="#E0E0E0"/>
<path d="M270.285 172.431H226.757L220.393 121.986H263.92L270.285 172.431Z" fill="#F0F0F0"/>
<path d="M245.866 172.431H237.42L239.799 121.986H248.245L245.866 172.431Z" fill="#FAFAFA"/>
<path d="M255.546 172.431H247.234L249.613 121.986H257.925L255.546 172.431Z" fill="#FAFAFA"/>
<path d="M305.113 13.3359H195.635V98.9969H305.113V13.3359Z" fill="#E6E6E6"/>
<path d="M308.399 13.3359H197.172V98.9969H308.399V13.3359Z" fill="#F0F0F0"/>
<path d="M305.113 98.998H195.635V101.865H305.113V98.998Z" fill="#E6E6E6"/>
<path d="M310.147 98.998H198.92V101.865H310.147V98.998Z" fill="#F0F0F0"/>
<path d="M303.803 94.3956V17.9316L201.773 17.9316V94.3956H303.803Z" fill="#FAFAFA"/>
<path d="M257.605 94.3964L264.969 17.9395H277.713L270.349 94.3964H257.605Z" fill="white"/>
<path d="M225.449 94.3964L232.812 17.9395H245.556L238.193 94.3964H225.449Z" fill="white"/>
<path d="M203.904 68.4826C203.811 68.4808 203.723 68.4427 203.658 68.3765C203.593 68.3103 203.557 68.2213 203.557 68.1286V20.9263C203.557 20.8324 203.594 20.7423 203.66 20.6759C203.727 20.6096 203.817 20.5723 203.911 20.5723C204.005 20.5723 204.095 20.6096 204.161 20.6759C204.227 20.7423 204.265 20.8324 204.265 20.9263V68.1286C204.265 68.1757 204.255 68.2223 204.237 68.2657C204.219 68.3092 204.192 68.3485 204.158 68.3815C204.125 68.4144 204.085 68.4404 204.041 68.4577C203.997 68.4751 203.951 68.4836 203.904 68.4826Z" fill="#F0F0F0"/>
<path d="M273.082 94.3964L280.445 17.9395H285.415L278.052 94.3964H273.082Z" fill="white"/>
<path d="M303.803 94.4035V17.9395H303.222V94.4035H303.803Z" fill="#E6E6E6"/>
<path opacity="0.5" d="M309.489 26.2717H200.011L199.586 19.7227H309.064L309.489 26.2717Z" fill="#E0E0E0"/>
<path opacity="0.5" d="M309.489 37.0412H200.011L199.586 30.4922H309.064L309.489 37.0412Z" fill="#E0E0E0"/>
<path opacity="0.5" d="M309.489 47.8088H200.011L199.586 41.2598H309.064L309.489 47.8088Z" fill="#E0E0E0"/>
<path opacity="0.5" d="M309.489 58.5783H200.011L199.586 52.0293H309.064L309.489 58.5783Z" fill="#E0E0E0"/>
<path opacity="0.5" d="M309.489 69.34H200.011L199.586 62.791H309.064L309.489 69.34Z" fill="#E0E0E0"/>
<path opacity="0.5" d="M309.489 80.1076H200.011L199.586 73.5586H309.064L309.489 80.1076Z" fill="#E0E0E0"/>
<path opacity="0.5" d="M309.489 31.6603H200.011L199.586 25.1113H309.064L309.489 31.6603Z" fill="#E0E0E0"/>
<path opacity="0.5" d="M309.489 42.422H200.011L199.586 35.873H309.064L309.489 42.422Z" fill="#E0E0E0"/>
<path opacity="0.5" d="M309.489 53.1896H200.011L199.586 46.6406H309.064L309.489 53.1896Z" fill="#E0E0E0"/>
<path opacity="0.5" d="M309.489 63.9592H200.011L199.586 57.4102H309.064L309.489 63.9592Z" fill="#E0E0E0"/>
<path opacity="0.5" d="M309.489 74.7267H200.011L199.586 68.1777H309.064L309.489 74.7267Z" fill="#E0E0E0"/>
<path opacity="0.5" d="M309.489 85.4955H200.011L199.586 78.9395H309.064L309.489 85.4955Z" fill="#E0E0E0"/>
<path d="M70.2343 55.8516H85.0953C86.98 55.8516 88.5078 54.3237 88.5078 52.439V46.7325C88.5078 44.8478 86.98 43.32 85.0953 43.32H70.2343C68.3496 43.32 66.8218 44.8478 66.8218 46.7325V52.439C66.8218 54.3237 68.3496 55.8516 70.2343 55.8516Z" fill="#F5F5F5"/>
<path d="M70.2343 43.3125H85.0953C86.98 43.3125 88.5078 41.7846 88.5078 39.8999V34.1935C88.5078 32.3088 86.98 30.7809 85.0953 30.7809H70.2343C68.3496 30.7809 66.8218 32.3088 66.8218 34.1935V39.8999C66.8218 41.7846 68.3496 43.3125 70.2343 43.3125Z" fill="#F5F5F5"/>
<path d="M75.0904 30.7812H80.2376C80.8906 30.7812 81.4199 30.2519 81.4199 29.5989V27.6236C81.4199 26.9706 80.8906 26.4412 80.2376 26.4412H75.0904C74.4374 26.4412 73.908 26.9706 73.908 27.6236V29.5989C73.908 30.2519 74.4374 30.7812 75.0904 30.7812Z" fill="#E0E0E0"/>
<path d="M70.2343 68.377H85.0953C86.98 68.377 88.5078 66.8491 88.5078 64.9644V59.2579C88.5078 57.3732 86.98 55.8454 85.0953 55.8454H70.2343C68.3496 55.8454 66.8218 57.3732 66.8218 59.2579V64.9644C66.8218 66.8491 68.3496 68.377 70.2343 68.377Z" fill="#F5F5F5"/>
<path d="M149.048 59.7031C149.048 59.7031 148.34 68.4115 120.806 68.4115C93.2717 68.4115 92.5566 59.7031 92.5566 59.7031H149.048Z" fill="#F0F0F0"/>
<path d="M64.5979 70.1465H42.7773V224.653H64.5979V70.1465Z" fill="#F0F0F0"/>
<path d="M154.563 224.652H46.9609V232.738H154.563V224.652Z" fill="#F0F0F0"/>
<path d="M64.597 224.646H158.754L158.754 70.1396H64.597L64.597 224.646Z" fill="#F5F5F5"/>
<path d="M73.1717 161.506H150.174V125.044H73.1717V161.506Z" fill="#F0F0F0"/>
<path d="M73.1717 206.104H150.174V169.642H73.1717V206.104Z" fill="#F0F0F0"/>
<path d="M73.1717 219.252H150.174V213.694H73.1717V219.252Z" fill="#F0F0F0"/>
<path d="M131.242 127.934H92.1035C91.2929 127.932 90.516 127.61 89.9428 127.036C89.3696 126.463 89.0468 125.686 89.0449 124.876C89.0487 124.066 89.3723 123.291 89.9453 122.72C90.5183 122.148 91.2941 121.826 92.1035 121.824H131.242C132.051 121.826 132.827 122.148 133.4 122.72C133.973 123.291 134.297 124.066 134.3 124.876C134.298 125.686 133.976 126.463 133.402 127.036C132.829 127.61 132.052 127.932 131.242 127.934Z" fill="#F5F5F5"/>
<path d="M73.1717 116.916L150.174 116.916V80.454H73.1717V116.916Z" fill="#F0F0F0"/>
<path d="M131.242 83.3437H92.1035C91.2929 83.3418 90.516 83.019 89.9428 82.4458C89.3696 81.8726 89.0468 81.0957 89.0449 80.2851C89.0468 79.4745 89.3696 78.6976 89.9428 78.1245C90.516 77.5513 91.2929 77.2284 92.1035 77.2266H131.242C132.052 77.2284 132.829 77.5513 133.402 78.1245C133.976 78.6976 134.298 79.4745 134.3 80.2851C134.298 81.0957 133.976 81.8726 133.402 82.4458C132.829 83.019 132.052 83.3418 131.242 83.3437Z" fill="#F5F5F5"/>
<path d="M131.242 172.531H92.1035C91.2929 172.529 90.516 172.206 89.9428 171.633C89.3696 171.06 89.0468 170.283 89.0449 169.473C89.0468 168.662 89.3696 167.885 89.9428 167.312C90.516 166.739 91.2929 166.416 92.1035 166.414H131.242C132.052 166.416 132.829 166.739 133.402 167.312C133.976 167.885 134.298 168.662 134.3 169.473C134.298 170.283 133.976 171.06 133.402 171.633C132.829 172.206 132.052 172.529 131.242 172.531Z" fill="#F5F5F5"/>
<path d="M161.659 68.3828H64.5918V70.1457H161.659V68.3828Z" fill="#F0F0F0"/>
<path d="M39.7327 70.1465H64.5977V68.3836H39.7327V70.1465Z" fill="#E6E6E6"/>
</svg>
