<svg width="142" height="156" viewBox="0 0 142 156" fill="none" xmlns="http://www.w3.org/2000/svg">
<path d="M91.565 71.0634C91.5573 71.203 91.4983 71.3349 91.3994 71.4338C91.3005 71.5327 91.1686 71.5917 91.029 71.5994L88.7081 71.5083C87.2127 65.9071 85.4385 61.3939 85.8459 63.1252C86.4525 65.841 86.6476 68.6326 86.4247 71.4064L81.8473 71.1491C81.0594 61.5011 79.505 54.2115 79.4192 56.3984C79.0655 65.2049 78.2507 67.9599 77.3288 70.8972C66.2819 70.2433 51.8099 69.2356 41.3632 68.2762C40.7147 62.9162 40.2591 57.1327 40.0339 57.5079C38.2973 60.3219 37.4558 64.5724 37.0752 67.8742C33.752 67.5472 31.1042 67.2256 29.4962 66.9469C29.4962 66.9469 29.1853 62.4606 29.2282 60.9973C29.3281 57.249 30.1186 53.5513 31.5598 50.0897C33.0552 46.536 35.3118 43.4915 37.4558 40.3613C37.4693 40.3364 37.4855 40.313 37.504 40.2916C37.504 40.2916 37.504 40.2916 37.504 40.2648C38.9256 38.2323 40.0989 36.037 40.9987 33.7256C41.0026 33.7098 41.0026 33.6932 40.9987 33.6774C41.6196 32.0031 42.0931 30.2777 42.4138 28.5211C43.5823 22.0891 47.8167 16.8952 54.0771 15.8232C65.4725 8.37817 77.7255 11.9855 80.3411 20.6472C80.5931 21.4941 80.8182 22.4535 81.0272 23.4987V23.5309C81.8044 27.3901 82.3458 32.3534 82.9193 36.2073C82.9193 36.2073 82.9193 36.2073 82.9193 36.2502C83.1244 37.76 83.427 39.255 83.8251 40.7258C86.0871 47.8117 92.31 52.3409 91.565 71.0634Z" fill="#263238"/>
<path d="M51.322 17.3346C47.109 18.9909 44.354 21.7727 43.223 26.4466C42.5691 29.1588 42.1028 31.8066 40.7735 34.3151C39.4442 36.8236 37.4396 38.8979 35.4135 40.9025C32.1975 44.1185 29.8927 47.3667 28.9815 51.9549C28.0703 56.543 27.679 62.1871 28.7993 66.7431H28.8422C28.0221 62.1549 28.6438 55.9909 29.9142 51.4081C31.3292 46.3805 34.572 43.4593 37.9542 39.8788C40.6448 37.1007 42.5339 33.6466 43.4214 29.8824C43.9574 27.5829 44.1878 25.1495 45.3617 23.0484C46.7606 20.5453 49.1726 19.1088 51.5471 17.8599C51.5816 17.8451 51.6129 17.8237 51.6391 17.7968C51.6653 17.77 51.6859 17.7382 51.6999 17.7034C51.7138 17.6685 51.7207 17.6313 51.7203 17.5938C51.7198 17.5563 51.712 17.5192 51.6972 17.4847C51.6824 17.4502 51.661 17.419 51.6341 17.3928C51.6073 17.3666 51.5755 17.3459 51.5407 17.332C51.5058 17.318 51.4686 17.3111 51.4311 17.3115C51.3936 17.312 51.3565 17.3198 51.322 17.3346Z" fill="#263238"/>
<path d="M89.823 48.6963C87.3949 44.7352 84.7953 41.2995 83.6268 36.5773C82.5548 32.2893 82.1689 27.7976 81.0808 23.4989C81.0808 23.4847 81.0752 23.4711 81.0651 23.461C81.0551 23.451 81.0415 23.4453 81.0272 23.4453C81.013 23.4453 80.9994 23.451 80.9893 23.461C80.9793 23.4711 80.9736 23.4847 80.9736 23.4989C82.5548 31.0994 82.2225 38.5659 86.3336 45.2498C88.558 48.8839 90.8092 52.266 92.0849 56.4736C93.3643 60.8798 93.7936 65.4892 93.3499 70.0559C93.3499 70.2167 93.5428 70.2327 93.575 70.0559C95.0432 62.7174 93.7043 55.0951 89.823 48.6963Z" fill="#263238"/>
<path d="M119.373 37.7562L104.477 65.8051C103.941 66.6037 104.204 67.4131 105.067 67.6382L120.498 71.4384C120.979 71.5169 121.472 71.4579 121.921 71.2682C122.369 71.0785 122.755 70.7659 123.034 70.3664L137.929 42.3175C138.465 41.5189 138.197 40.7095 137.339 40.4844L121.908 36.6895C121.428 36.6092 120.935 36.6668 120.486 36.8556C120.037 37.0444 119.651 37.3567 119.373 37.7562Z" fill="#37474F"/>
<path d="M121.206 38.1907L106.31 66.2396C105.774 67.0382 106.042 67.8476 106.905 68.0727L122.337 71.8729C122.817 71.9523 123.309 71.8936 123.757 71.7038C124.205 71.514 124.59 71.2009 124.867 70.8009L139.762 42.7467C140.298 41.948 140.035 41.1387 139.172 40.9136L123.741 37.1187C123.26 37.0389 122.767 37.0973 122.318 37.2871C121.869 37.4769 121.483 37.7902 121.206 38.1907Z" fill="#455A64"/>
<path d="M125.102 40.5969C125.033 40.8548 124.888 41.0862 124.687 41.2621C124.486 41.4379 124.238 41.5501 123.973 41.5846C123.708 41.6192 123.439 41.5744 123.199 41.456C122.96 41.3376 122.761 41.1509 122.628 40.9195C122.494 40.688 122.433 40.4223 122.45 40.1558C122.468 39.8893 122.564 39.6341 122.727 39.4223C122.89 39.2105 123.112 39.0517 123.365 38.966C123.618 38.8803 123.89 38.8715 124.148 38.9407C124.32 38.9867 124.48 39.066 124.621 39.1742C124.762 39.2824 124.88 39.4172 124.969 39.571C125.057 39.7249 125.115 39.8946 125.138 40.0707C125.161 40.2467 125.149 40.4255 125.102 40.5969Z" fill="#263238"/>
<path d="M56.3284 76.482C62.7604 96.641 79.5479 123.923 87.813 125.119C91.7472 125.687 98.6616 127.552 104.429 123.704C117.009 115.299 129.551 98.5116 133.443 88.7296C134.901 85.0687 115.819 72.521 112.646 75.2921C105.212 81.7777 95.794 95.1938 94.6631 94.9579C90.4662 94.0789 75.694 78.1007 65.3975 66.8608C52.8926 53.2142 53.7663 68.4474 56.3284 76.482Z" fill="#AD6359"/>
<path d="M138.025 71.0683C138.025 62.9426 136.793 60.8522 140.448 53.9967C142.849 49.4997 140.984 46.0371 136.621 49.0173C129.449 53.8949 127.23 64.3737 127.509 68.2329L138.025 71.0683Z" fill="#AD6359"/>
<path d="M130.875 93.4359C130.875 93.4359 137.002 83.6646 137.875 75.0028C138.476 69.0157 138.336 55.8355 123.859 45.2012C120.423 42.6767 113.739 41.5189 117.85 47.6775C120.772 52.0513 123.95 53.9434 125.183 56.7895C125.183 56.7895 116.51 56.3286 114.114 59.8662C112.032 62.9646 110.171 66.2066 108.545 69.5678C109.093 70.006 109.667 70.4088 110.266 70.7738C110.266 70.7738 108.122 74.1613 109.532 80.0948L130.875 93.4359Z" fill="#AD6359"/>
<path d="M137.538 69.2249C135.71 66.6521 131.749 61.26 126.978 57.9689C121.672 54.3241 110.475 48.7336 107.827 52.6786C105.887 55.5676 109.971 58.0761 109.971 58.0761C109.971 58.0761 104.858 56.7415 103.673 59.7377C102.601 62.466 105.871 64.2187 105.871 64.2187C105.871 64.2187 102.655 63.94 102.119 66.7701C101.476 70.1737 108.379 70.1951 110.695 74.2044C111.225 75.0888 137.538 69.2249 137.538 69.2249Z" fill="#AD6359"/>
<path d="M124.089 64.1971C121.972 62.0531 115.926 58.4351 110.116 58.001C109.987 58.001 109.907 58.0867 110.025 58.1189C114.932 59.5866 119.642 61.6457 124.052 64.2507C124.057 64.2668 124.089 64.2239 124.089 64.1971Z" fill="#263238"/>
<path d="M120.225 69.445C118.21 67.7887 111.815 64.3315 105.914 64.085C105.78 64.085 105.71 64.1814 105.828 64.2082C110.801 65.4199 115.62 67.1929 120.193 69.4932C120.225 69.5146 120.252 69.4664 120.225 69.445Z" fill="#263238"/>
<path d="M65.3599 102.243L81.7454 81.7244C81.7454 81.7244 68.7045 67.3382 60.3697 61.3564C55.7012 58.0172 53.0426 61.5976 53.7019 66.7432C56.0174 84.7689 65.3599 102.243 65.3599 102.243Z" fill="#1357E8"/>
<path d="M65.3599 102.243L81.7454 81.7244C81.7454 81.7244 68.7045 67.3382 60.3697 61.3564C55.7012 58.0172 53.0426 61.5976 53.7019 66.7432C56.0174 84.7689 65.3599 102.243 65.3599 102.243Z" fill="#1357E8"/>
<path d="M76.5303 77.1146C76.3339 77.1026 76.1371 77.131 75.9521 77.1979C75.7671 77.2648 75.5977 77.3688 75.4544 77.5036C75.3111 77.6385 75.1969 77.8012 75.1189 77.9818C75.0408 78.1624 75.0005 78.357 75.0005 78.5538C75.0005 78.7505 75.0408 78.9452 75.1189 79.1258C75.1969 79.3064 75.3111 79.4691 75.4544 79.6039C75.5977 79.7388 75.7671 79.8428 75.9521 79.9097C76.1371 79.9766 76.3339 80.0049 76.5303 79.993C76.8968 79.9706 77.2409 79.8092 77.4925 79.5418C77.7441 79.2743 77.8842 78.921 77.8842 78.5538C77.8842 78.1866 77.7441 77.8333 77.4925 77.5658C77.2409 77.2984 76.8968 77.137 76.5303 77.1146ZM76.5303 79.7464C76.2945 79.7475 76.0637 79.6784 75.8672 79.5481C75.6707 79.4178 75.5173 79.232 75.4266 79.0143C75.3359 78.7967 75.3119 78.557 75.3576 78.3257C75.4033 78.0943 75.5168 77.8818 75.6835 77.7151C75.8502 77.5484 76.0628 77.4349 76.2941 77.3892C76.5254 77.3434 76.7651 77.3675 76.9827 77.4582C77.2004 77.5489 77.3862 77.7022 77.5165 77.8987C77.6469 78.0952 77.7159 78.326 77.7148 78.5618C77.7134 78.8756 77.5882 79.176 77.3663 79.3979C77.1445 79.6197 76.844 79.745 76.5303 79.7464ZM63.2857 81.5527C63.0016 81.5527 62.7239 81.637 62.4876 81.7948C62.2514 81.9527 62.0673 82.177 61.9586 82.4395C61.8498 82.702 61.8214 82.9908 61.8768 83.2694C61.9322 83.5481 62.0691 83.804 62.2699 84.0049C62.4708 84.2058 62.7268 84.3426 63.0055 84.3981C63.2841 84.4535 63.5729 84.4251 63.8354 84.3163C64.0979 84.2076 64.3222 84.0235 64.4801 83.7873C64.6379 83.551 64.7222 83.2733 64.7222 82.9892C64.7222 82.6082 64.5708 82.2428 64.3014 81.9734C64.0321 81.7041 63.6667 81.5527 63.2857 81.5527ZM63.2857 84.1738C63.0501 84.1738 62.8199 84.1038 62.6241 83.9728C62.4283 83.8419 62.2757 83.6557 62.1858 83.438C62.0959 83.2202 62.0727 82.9807 62.1191 82.7497C62.1654 82.5188 62.2793 82.3067 62.4462 82.1405C62.6132 81.9743 62.8257 81.8614 63.0569 81.8161C63.288 81.7708 63.5274 81.7951 63.7448 81.886C63.9621 81.9769 64.1476 82.1303 64.2777 82.3267C64.4078 82.523 64.4767 82.7536 64.4756 82.9892C64.4714 83.3015 64.344 83.5995 64.1211 83.8183C63.8983 84.0372 63.598 84.1591 63.2857 84.1577V84.1738ZM64.3309 70.0662C64.045 70.0652 63.7653 70.1491 63.5273 70.3074C63.2893 70.4656 63.1036 70.6911 62.994 70.9551C62.8844 71.2191 62.8557 71.5097 62.9116 71.79C62.9675 72.0704 63.1054 72.3278 63.308 72.5295C63.5105 72.7313 63.7684 72.8683 64.0489 72.9231C64.3294 72.978 64.6199 72.9482 64.8835 72.8376C65.1471 72.727 65.3719 72.5405 65.5292 72.3019C65.6866 72.0632 65.7695 71.7832 65.7674 71.4974C65.7681 71.308 65.7315 71.1204 65.6597 70.9452C65.5879 70.77 65.4823 70.6106 65.3489 70.4763C65.2155 70.3419 65.0569 70.2351 64.8823 70.162C64.7076 70.0889 64.5202 70.0509 64.3309 70.0502V70.0662ZM64.3309 72.698C64.0943 72.7001 63.8623 72.632 63.6645 72.5022C63.4667 72.3723 63.3118 72.1867 63.2195 71.9688C63.1273 71.7509 63.1017 71.5105 63.1462 71.2781C63.1907 71.0457 63.3031 70.8317 63.4693 70.6633C63.6355 70.4948 63.848 70.3795 64.0798 70.3319C64.3115 70.2843 64.5523 70.3066 64.7714 70.3959C64.9905 70.4852 65.1782 70.6376 65.3106 70.8337C65.4431 71.0297 65.5144 71.2607 65.5155 71.4974C65.5127 71.8107 65.387 72.1103 65.1654 72.3319C64.9439 72.5534 64.6442 72.6791 64.3309 72.6819V72.698ZM53.6699 64.0898C53.6699 64.1702 53.6699 64.2506 53.6431 64.3364C53.8829 64.4104 54.0932 64.5582 54.2439 64.7589C54.3946 64.9596 54.478 65.2028 54.4822 65.4537C54.4863 65.7047 54.4111 65.9505 54.2671 66.1561C54.1231 66.3617 53.9178 66.5165 53.6806 66.5983C53.6806 66.6573 53.6806 66.7216 53.6806 66.7806C53.6806 66.8395 53.6806 66.8234 53.6806 66.8449C53.9765 66.7525 54.2346 66.5668 54.4163 66.3157C54.598 66.0645 54.6936 65.7613 54.6887 65.4513C54.6839 65.1414 54.5789 64.8413 54.3895 64.5959C54.2001 64.3505 53.9363 64.173 53.6377 64.0898H53.6699ZM73.3679 92.2298C73.348 91.9509 73.2472 91.6839 73.0778 91.4614C72.9084 91.2389 72.6778 91.0708 72.4142 90.9775C72.1506 90.8842 71.8655 90.8699 71.5939 90.9363C71.3223 91.0027 71.0759 91.1469 70.8851 91.3513C70.6943 91.5557 70.5672 91.8113 70.5195 92.0868C70.4719 92.3623 70.5057 92.6458 70.6167 92.9024C70.7278 93.159 70.9114 93.3776 71.1449 93.5314C71.3784 93.6852 71.6518 93.7675 71.9314 93.7682C72.0045 93.7737 72.078 93.7737 72.1511 93.7682L72.4245 93.4305C72.27 93.5019 72.1016 93.5385 71.9314 93.5377C71.695 93.5377 71.4639 93.4676 71.2673 93.3362C71.0708 93.2049 70.9175 93.0182 70.8271 92.7998C70.7366 92.5814 70.7129 92.3411 70.7591 92.1092C70.8052 91.8773 70.919 91.6644 71.0862 91.4972C71.2534 91.33 71.4663 91.2162 71.6982 91.1701C71.93 91.124 72.1704 91.1476 72.3888 91.2381C72.6072 91.3286 72.7939 91.4818 72.9252 91.6783C73.0566 91.8749 73.1267 92.106 73.1267 92.3424C73.1345 92.4226 73.1345 92.5034 73.1267 92.5836L73.3679 92.2298Z" fill="white"/>
<path opacity="0.1" d="M79.8695 84.0618L65.3653 102.248C65.3653 102.248 56.0175 84.7693 53.702 66.7704C53.2464 63.2328 54.3666 60.4403 56.6178 60.124L79.8695 84.0618Z" fill="black"/>
<path d="M77.9399 79.8595C75.1581 82.8075 67.8471 91.0244 63.7895 97.0115C63.7627 97.0491 63.8914 97.1562 63.9182 97.1241C68.04 92.6753 75.6137 83.2256 78.1275 80.0471C78.1758 79.9453 77.9935 79.8059 77.9399 79.8595Z" fill="#263238"/>
<path d="M5.75659 131.106L76.4175 130.94L72.51 106.643C72.51 106.643 78.1005 99.8627 77.0446 92.5088C75.8815 84.4688 61.3505 64.0151 60.1284 62.8627C55.2079 58.2477 49.998 57.4169 44.9972 59.0838C21.8795 73.6094 5.75659 131.106 5.75659 131.106Z" fill="#1357E8"/>
<path d="M74.9275 121.678C74.7716 121.867 74.5613 122.002 74.3254 122.067C74.0895 122.132 73.8394 122.122 73.6091 122.039C73.3789 121.957 73.1797 121.805 73.0387 121.605C72.8977 121.405 72.8217 121.167 72.8211 120.922C72.8204 120.765 72.8508 120.609 72.9105 120.463C72.9703 120.318 73.0582 120.185 73.1693 120.074C73.2803 119.962 73.4123 119.874 73.5577 119.813C73.7031 119.753 73.8589 119.722 74.0163 119.722C74.2386 119.72 74.4565 119.784 74.6435 119.904L74.5952 119.598C74.4134 119.516 74.2159 119.474 74.0163 119.475C73.7823 119.474 73.5515 119.531 73.344 119.639C73.1365 119.747 72.9585 119.905 72.8255 120.097C72.6924 120.29 72.6082 120.512 72.5801 120.744C72.5521 120.977 72.581 121.212 72.6645 121.431C72.748 121.65 72.8834 121.845 73.0592 122C73.235 122.154 73.4457 122.264 73.6733 122.319C73.9008 122.374 74.1383 122.372 74.3653 122.315C74.5922 122.257 74.8017 122.146 74.9758 121.989L74.9275 121.678ZM60.6646 114.249C60.3792 114.248 60.0999 114.332 59.8621 114.49C59.6243 114.647 59.4386 114.872 59.3287 115.136C59.2187 115.399 59.1894 115.689 59.2444 115.969C59.2995 116.249 59.4364 116.506 59.6378 116.709C59.8392 116.911 60.0961 117.049 60.376 117.105C60.6558 117.161 60.946 117.133 61.2097 117.024C61.4735 116.915 61.699 116.73 61.8577 116.493C62.0164 116.255 62.1011 115.976 62.1011 115.691C62.1011 115.31 61.9499 114.944 61.6807 114.673C61.4114 114.403 61.0461 114.251 60.6646 114.249ZM60.6646 116.881C60.4277 116.882 60.1959 116.813 59.9985 116.682C59.8011 116.551 59.6471 116.364 59.556 116.146C59.4648 115.927 59.4407 115.686 59.4867 115.454C59.5326 115.221 59.6466 115.008 59.814 114.84C59.9815 114.673 60.195 114.559 60.4274 114.513C60.6597 114.467 60.9005 114.491 61.1191 114.582C61.3377 114.674 61.5244 114.828 61.6553 115.025C61.7862 115.222 61.8556 115.454 61.8545 115.691C61.8545 116.007 61.7293 116.31 61.5063 116.534C61.2833 116.758 60.9807 116.885 60.6646 116.886V116.881ZM71.9206 90.8688C71.6352 90.8688 71.3562 90.9535 71.119 91.1122C70.8818 91.2709 70.697 91.4964 70.588 91.7602C70.479 92.0239 70.4508 92.3141 70.5069 92.5939C70.5629 92.8738 70.7008 93.1307 70.903 93.3321C71.1051 93.5335 71.3626 93.6704 71.6426 93.7255C71.9226 93.7805 72.2127 93.7512 72.4761 93.6412C72.7394 93.5313 72.9643 93.3456 73.122 93.1078C73.2798 92.87 73.3635 92.5907 73.3624 92.3053C73.361 91.9262 73.2098 91.563 72.9417 91.2949C72.6736 91.0268 72.3104 90.8756 71.9313 90.8742L71.9206 90.8688ZM71.9206 93.5006C71.6842 93.5006 71.4531 93.4305 71.2565 93.2992C71.06 93.1678 70.9068 92.9811 70.8163 92.7627C70.7258 92.5443 70.7022 92.304 70.7483 92.0721C70.7944 91.8403 70.9082 91.6273 71.0754 91.4601C71.2426 91.293 71.4555 91.1791 71.6874 91.133C71.9193 91.0869 72.1596 91.1106 72.378 91.201C72.5964 91.2915 72.7831 91.4447 72.9144 91.6413C73.0458 91.8378 73.1159 92.0689 73.1159 92.3053C73.1173 92.462 73.0877 92.6175 73.0289 92.7627C72.9701 92.908 72.8831 93.0402 72.7731 93.1518C72.663 93.2633 72.532 93.352 72.3875 93.4128C72.2431 93.4736 72.088 93.5053 71.9313 93.506L71.9206 93.5006ZM20.1215 127.269C19.9252 127.257 19.7284 127.285 19.5434 127.352C19.3584 127.419 19.189 127.523 19.0457 127.658C18.9024 127.792 18.7882 127.955 18.7102 128.136C18.6321 128.316 18.5918 128.511 18.5918 128.708C18.5918 128.905 18.6321 129.099 18.7102 129.28C18.7882 129.46 18.9024 129.623 19.0457 129.758C19.189 129.893 19.3584 129.997 19.5434 130.064C19.7284 130.131 19.9252 130.159 20.1215 130.147C20.488 130.125 20.8322 129.963 21.0838 129.696C21.3354 129.428 21.4755 129.075 21.4755 128.708C21.4755 128.341 21.3354 127.987 21.0838 127.72C20.8322 127.452 20.488 127.291 20.1215 127.269ZM20.1215 129.9C19.886 129.899 19.656 129.828 19.4608 129.696C19.2656 129.565 19.114 129.378 19.0251 129.16C18.9361 128.941 18.914 128.702 18.9614 128.471C19.0088 128.24 19.1236 128.029 19.2913 127.863C19.459 127.698 19.672 127.586 19.9034 127.542C20.1347 127.497 20.374 127.523 20.591 127.615C20.8079 127.707 20.9927 127.861 21.1219 128.058C21.2511 128.255 21.3189 128.486 21.3168 128.721C21.3098 129.031 21.1821 129.326 20.9609 129.543C20.7396 129.761 20.4423 129.883 20.1323 129.884L20.1215 129.9ZM34.7651 122.541C34.4794 122.539 34.1996 122.622 33.9611 122.779C33.7226 122.936 33.5361 123.16 33.4254 123.424C33.3146 123.687 33.2845 123.977 33.3389 124.258C33.3933 124.538 33.5298 124.796 33.731 124.999C33.9322 125.201 34.1891 125.34 34.4691 125.396C34.7491 125.453 35.0395 125.425 35.3036 125.316C35.5677 125.207 35.7935 125.022 35.9524 124.785C36.1113 124.548 36.1962 124.269 36.1962 123.983C36.2005 123.601 36.0534 123.234 35.7872 122.961C35.5209 122.687 35.1573 122.531 34.7758 122.525L34.7651 122.541ZM34.7651 125.167C34.5293 125.169 34.2985 125.1 34.102 124.969C33.9055 124.839 33.7521 124.653 33.6614 124.435C33.5707 124.218 33.5467 123.978 33.5924 123.747C33.6381 123.515 33.7516 123.303 33.9183 123.136C34.0851 122.969 34.2976 122.856 34.5289 122.81C34.7602 122.765 34.9999 122.789 35.2175 122.879C35.4352 122.97 35.621 123.123 35.7513 123.32C35.8817 123.516 35.9507 123.747 35.9496 123.983C35.9441 124.292 35.8185 124.587 35.5994 124.805C35.3803 125.023 35.0849 125.147 34.7758 125.151L34.7651 125.167ZM23.7074 86.1467C23.6396 86.1412 23.5715 86.1412 23.5037 86.1467L23.3536 86.4308C23.4685 86.3964 23.5875 86.3784 23.7074 86.3772C23.9276 86.3755 24.1439 86.435 24.3323 86.549C24.5207 86.6631 24.6737 86.8271 24.7744 87.0229C24.8751 87.2188 24.9195 87.4387 24.9026 87.6583C24.8857 87.8778 24.8083 88.0884 24.6788 88.2665C24.5494 88.4447 24.373 88.5834 24.1694 88.6673C23.9658 88.7511 23.743 88.7769 23.5256 88.7416C23.3082 88.7063 23.1049 88.6114 22.9383 88.4675C22.7717 88.3235 22.6482 88.1361 22.5818 87.9262L22.4317 88.221C22.548 88.4484 22.7228 88.6407 22.9381 88.7781C23.1534 88.9154 23.4014 88.9929 23.6566 89.0025C23.9119 89.0122 24.165 88.9536 24.3901 88.8328C24.6151 88.712 24.8039 88.5334 24.9369 88.3154C25.0699 88.0974 25.1425 87.8478 25.147 87.5925C25.1515 87.3371 25.0878 87.0851 24.9626 86.8626C24.8373 86.64 24.655 86.4548 24.4344 86.3262C24.2137 86.1975 23.9628 86.13 23.7074 86.1306V86.1467ZM27.7542 97.1561C27.4696 97.1551 27.1912 97.2385 26.9541 97.396C26.7171 97.5534 26.5321 97.7777 26.4227 98.0404C26.3133 98.3031 26.2844 98.5924 26.3397 98.8715C26.395 99.1507 26.5319 99.4071 26.7331 99.6083C26.9343 99.8096 27.1908 99.9465 27.4699 100.002C27.7491 100.057 28.0383 100.028 28.301 99.9187C28.5637 99.8093 28.788 99.6244 28.9454 99.3873C29.1029 99.1503 29.1864 98.8718 29.1853 98.5872C29.1839 98.2081 29.0327 97.8449 28.7646 97.5768C28.4965 97.3088 28.1333 97.1575 27.7542 97.1561ZM27.7542 99.7772C27.5186 99.7782 27.288 99.7093 27.0916 99.5792C26.8953 99.4491 26.7419 99.2637 26.651 99.0463C26.5601 98.829 26.5358 98.5896 26.5811 98.3584C26.6264 98.1272 26.7393 97.9147 26.9055 97.7478C27.0717 97.5808 27.2837 97.4669 27.5147 97.4206C27.7457 97.3742 27.9852 97.3975 28.2029 97.4874C28.4207 97.5773 28.6068 97.7298 28.7378 97.9256C28.8688 98.1214 28.9387 98.3517 28.9387 98.5872C28.9373 98.9015 28.8123 99.2025 28.5906 99.4252C28.3689 99.6479 28.0684 99.7743 27.7542 99.7772ZM39.5837 67.242C39.2172 67.2643 38.873 67.4257 38.6214 67.6931C38.3698 67.9606 38.2297 68.3139 38.2297 68.6811C38.2297 69.0483 38.3698 69.4017 38.6214 69.6691C38.873 69.9365 39.2172 70.0979 39.5837 70.1203C39.7801 70.1323 39.9768 70.1039 40.1619 70.037C40.3469 69.9701 40.5163 69.8661 40.6596 69.7313C40.8029 69.5964 40.917 69.4337 40.9951 69.2531C41.0731 69.0725 41.1134 68.8779 41.1134 68.6811C41.1134 68.4844 41.0731 68.2897 40.9951 68.1091C40.917 67.9285 40.8029 67.7658 40.6596 67.631C40.5163 67.4962 40.3469 67.3921 40.1619 67.3252C39.9768 67.2583 39.7801 67.23 39.5837 67.242ZM39.5837 69.8737C39.3475 69.8727 39.117 69.8017 38.9211 69.6697C38.7253 69.5377 38.5729 69.3507 38.4832 69.1322C38.3936 68.9137 38.3707 68.6735 38.4174 68.442C38.4641 68.2105 38.5784 67.998 38.7458 67.8314C38.9131 67.6647 39.1261 67.5514 39.3578 67.5057C39.5896 67.4601 39.8296 67.484 40.0477 67.5747C40.2658 67.6653 40.4522 67.8185 40.5833 68.0149C40.7144 68.2114 40.7843 68.4423 40.7843 68.6784C40.7843 68.8359 40.7533 68.9917 40.6929 69.1371C40.6324 69.2825 40.5439 69.4145 40.4324 69.5255C40.3208 69.6366 40.1884 69.7245 40.0428 69.7843C39.8971 69.844 39.7411 69.8744 39.5837 69.8737ZM41.0095 92.1874C40.7241 92.1874 40.4451 92.2721 40.2079 92.4308C39.9706 92.5894 39.7858 92.8149 39.6769 93.0787C39.5679 93.3425 39.5397 93.6327 39.5957 93.9125C39.6518 94.1923 39.7897 94.4492 39.9918 94.6507C40.194 94.8521 40.4514 94.989 40.7315 95.044C41.0115 95.0991 41.3016 95.0697 41.565 94.9598C41.8283 94.8498 42.0531 94.6642 42.2109 94.4264C42.3687 94.1886 42.4524 93.9093 42.4513 93.6239C42.4513 93.4348 42.414 93.2476 42.3414 93.0729C42.2689 92.8983 42.1626 92.7397 42.0287 92.6062C41.8947 92.4728 41.7357 92.3671 41.5608 92.2952C41.3859 92.2233 41.1986 92.1867 41.0095 92.1874ZM41.0095 94.8192C40.7746 94.8181 40.5453 94.7476 40.3504 94.6164C40.1556 94.4852 40.0039 94.2993 39.9145 94.0821C39.8251 93.8649 39.802 93.6261 39.848 93.3958C39.8941 93.1655 40.0073 92.9539 40.1734 92.7878C40.3395 92.6218 40.5511 92.5085 40.7814 92.4625C41.0117 92.4164 41.2505 92.4395 41.4677 92.5289C41.6849 92.6183 41.8708 92.77 42.002 92.9648C42.1331 93.1597 42.2037 93.389 42.2047 93.6239C42.2055 93.781 42.175 93.9368 42.1152 94.0821C42.0554 94.2275 41.9674 94.3595 41.8562 94.4706C41.7451 94.5818 41.6131 94.6698 41.4677 94.7296C41.3224 94.7894 41.1666 94.8199 41.0095 94.8192ZM53.2785 64.0206C52.9944 64.0195 52.7164 64.1028 52.4795 64.2597C52.2427 64.4167 52.0578 64.6403 51.9481 64.9024C51.8384 65.1645 51.8089 65.4532 51.8632 65.732C51.9176 66.0109 52.0535 66.2674 52.2536 66.469C52.4538 66.6707 52.7092 66.8084 52.9877 66.8649C53.2661 66.9214 53.555 66.894 53.8179 66.7863C54.0808 66.6785 54.3058 66.4952 54.4646 66.2596C54.6233 66.024 54.7086 65.7466 54.7096 65.4624C54.7097 65.0846 54.5615 64.7219 54.2968 64.4523C54.0322 64.1826 53.6723 64.0276 53.2946 64.0206H53.2785ZM53.2785 66.647C53.0427 66.6481 52.8119 66.579 52.6154 66.4487C52.4189 66.3184 52.2656 66.1326 52.1748 65.9149C52.0841 65.6973 52.0601 65.4576 52.1058 65.2263C52.1516 64.9949 52.265 64.7824 52.4318 64.6157C52.5985 64.449 52.811 64.3355 53.0423 64.2898C53.2736 64.244 53.5133 64.2681 53.731 64.3588C53.9486 64.4495 54.1344 64.6028 54.2648 64.7993C54.3951 64.9958 54.4641 65.2266 54.4631 65.4624C54.4617 65.7734 54.3387 66.0715 54.1203 66.2929C53.9019 66.5143 53.6055 66.6414 53.2946 66.647H53.2785ZM64.3147 70.0506C64.0289 70.0495 63.7492 70.1335 63.5111 70.2917C63.2731 70.45 63.0875 70.6755 62.9778 70.9394C62.8682 71.2034 62.8395 71.4941 62.8954 71.7744C62.9513 72.0547 63.0893 72.3121 63.2918 72.5139C63.4943 72.7156 63.7522 72.8526 64.0327 72.9075C64.3133 72.9623 64.6038 72.9326 64.8674 72.8219C65.131 72.7113 65.3557 72.5249 65.5131 72.2862C65.6705 72.0476 65.7533 71.7676 65.7512 71.4817C65.7485 71.1049 65.5983 70.7441 65.3328 70.4766C65.0673 70.2091 64.7076 70.0562 64.3308 70.0506H64.3147ZM64.3147 72.6824C64.0781 72.6845 63.8462 72.6163 63.6483 72.4865C63.4505 72.3567 63.2956 72.1711 63.2034 71.9532C63.1111 71.7353 63.0856 71.4949 63.1301 71.2625C63.1745 71.0301 63.287 70.8161 63.4532 70.6476C63.6194 70.4792 63.8318 70.3639 64.0636 70.3163C64.2954 70.2687 64.5361 70.2909 64.7552 70.3803C64.9743 70.4696 65.162 70.6219 65.2945 70.818C65.4269 71.0141 65.4982 71.2451 65.4993 71.4817C65.5008 71.7951 65.3792 72.0965 65.1606 72.321C64.9421 72.5456 64.6441 72.6753 64.3308 72.6824H64.3147ZM59.4907 125.816C59.2051 125.815 58.9256 125.899 58.6877 126.057C58.4498 126.215 58.2641 126.44 58.1543 126.704C58.0445 126.967 58.0155 127.258 58.071 127.538C58.1265 127.818 58.2639 128.075 58.4659 128.277C58.6678 128.479 58.9252 128.617 59.2054 128.672C59.4856 128.728 59.776 128.699 60.0396 128.589C60.3033 128.479 60.5284 128.294 60.6865 128.056C60.8445 127.818 60.9283 127.538 60.9272 127.253C60.9272 127.063 60.8897 126.875 60.8169 126.7C60.744 126.525 60.6372 126.367 60.5027 126.233C60.3682 126.099 60.2086 125.994 60.033 125.922C59.8575 125.851 59.6696 125.815 59.48 125.816H59.4907ZM59.4907 128.448C59.2539 128.45 59.0218 128.382 58.8238 128.252C58.6258 128.122 58.471 127.936 58.3788 127.717C58.2867 127.499 58.2615 127.259 58.3064 127.026C58.3513 126.793 58.4643 126.579 58.631 126.411C58.7978 126.243 59.0107 126.128 59.2429 126.081C59.475 126.034 59.7159 126.057 59.9349 126.147C60.154 126.237 60.3413 126.391 60.4731 126.587C60.6049 126.784 60.6753 127.016 60.6753 127.253C60.676 127.41 60.6456 127.565 60.5858 127.711C60.5259 127.856 60.4379 127.988 60.3268 128.099C60.2157 128.21 60.0836 128.298 59.9383 128.358C59.7929 128.418 59.6372 128.449 59.48 128.448H59.4907ZM46.348 116.441C46.0635 116.44 45.785 116.524 45.548 116.681C45.3109 116.839 45.126 117.063 45.0166 117.326C44.9072 117.588 44.8783 117.878 44.9335 118.157C44.9888 118.436 45.1257 118.692 45.3269 118.894C45.5281 119.095 45.7846 119.232 46.0637 119.287C46.3429 119.342 46.6322 119.313 46.8949 119.204C47.1576 119.095 47.3819 118.91 47.5393 118.673C47.6967 118.436 47.7802 118.157 47.7791 117.873C47.7784 117.684 47.7406 117.497 47.6678 117.323C47.5949 117.149 47.4885 116.991 47.3546 116.858C47.2207 116.725 47.062 116.62 46.8874 116.549C46.7129 116.477 46.5259 116.441 46.3373 116.441H46.348ZM46.348 119.062C46.1125 119.064 45.8819 118.995 45.6855 118.865C45.4891 118.734 45.3358 118.549 45.2449 118.332C45.154 118.114 45.1297 117.875 45.175 117.644C45.2203 117.413 45.3332 117.2 45.4994 117.033C45.6656 116.866 45.8776 116.752 46.1085 116.706C46.3395 116.66 46.579 116.683 46.7968 116.773C47.0145 116.863 47.2007 117.015 47.3317 117.211C47.4627 117.407 47.5326 117.637 47.5326 117.873C47.5333 118.03 47.5029 118.186 47.4431 118.332C47.3834 118.477 47.2955 118.61 47.1844 118.721C47.0733 118.833 46.9413 118.921 46.796 118.982C46.6506 119.042 46.4947 119.073 46.3373 119.073L46.348 119.062ZM61.8652 99.1447C61.5792 99.1426 61.2989 99.2256 61.0602 99.3832C60.8214 99.5408 60.635 99.7659 60.5245 100.03C60.4141 100.294 60.3846 100.584 60.4399 100.865C60.4952 101.146 60.6327 101.404 60.835 101.606C61.0373 101.808 61.2952 101.946 61.5759 102.001C61.8566 102.056 62.1474 102.027 62.4112 101.917C62.6751 101.806 62.9002 101.62 63.0578 101.381C63.2154 101.142 63.2985 100.862 63.2963 100.576C63.2956 100.387 63.2578 100.201 63.185 100.026C63.1121 99.8525 63.0057 99.6945 62.8718 99.5616C62.7379 99.4287 62.5792 99.3235 62.4046 99.252C62.2301 99.1804 62.0431 99.144 61.8545 99.1447H61.8652ZM61.8652 101.771C61.6299 101.772 61.3995 101.703 61.2033 101.574C61.007 101.444 60.8536 101.258 60.7626 101.041C60.6716 100.824 60.6469 100.585 60.6918 100.354C60.7367 100.123 60.849 99.9107 61.0147 99.7436C61.1804 99.5764 61.3919 99.4621 61.6225 99.4152C61.8531 99.3682 62.0924 99.3907 62.3103 99.4798C62.5281 99.5689 62.7146 99.7205 62.8463 99.9156C62.9779 100.111 63.0487 100.34 63.0498 100.576C63.0505 100.733 63.0201 100.889 62.9602 101.034C62.9004 101.179 62.8124 101.311 62.7013 101.423C62.5901 101.534 62.4581 101.622 62.3128 101.682C62.1674 101.741 62.0117 101.772 61.8545 101.771H61.8652ZM63.2856 81.5532C63.0015 81.5532 62.7238 81.6374 62.4876 81.7952C62.2513 81.9531 62.0672 82.1774 61.9585 82.4399C61.8498 82.7024 61.8213 82.9912 61.8767 83.2699C61.9322 83.5485 62.069 83.8045 62.2699 84.0054C62.4708 84.2063 62.7267 84.3431 63.0054 84.3985C63.284 84.4539 63.5729 84.4255 63.8353 84.3168C64.0978 84.2081 64.3222 84.0239 64.48 83.7877C64.6379 83.5515 64.7221 83.2737 64.7221 82.9896C64.7221 82.6087 64.5708 82.2433 64.3014 81.9739C64.032 81.7045 63.6666 81.5532 63.2856 81.5532ZM63.2856 84.1742C63.0501 84.1742 62.8198 84.1043 62.624 83.9733C62.4282 83.8423 62.2757 83.6561 62.1858 83.4384C62.0959 83.2207 62.0726 82.9811 62.119 82.7502C62.1653 82.5192 62.2792 82.3072 62.4461 82.141C62.6131 81.9748 62.8256 81.8619 63.0568 81.8166C63.288 81.7713 63.5274 81.7956 63.7447 81.8865C63.962 81.9774 64.1475 82.1307 64.2776 82.3271C64.4077 82.5235 64.4766 82.7541 64.4755 82.9896C64.4713 83.3019 64.3439 83.5999 64.1211 83.8188C63.8982 84.0376 63.5979 84.1596 63.2856 84.1581V84.1742ZM73.2445 104.955C72.9164 104.958 72.5993 105.074 72.3459 105.282C72.0925 105.49 71.9181 105.779 71.8517 106.101C71.7853 106.422 71.8309 106.756 71.9809 107.048C72.131 107.34 72.3764 107.572 72.6763 107.705L72.6281 107.399C72.4068 107.265 72.2354 107.062 72.1403 106.821C72.0452 106.581 72.0316 106.315 72.1015 106.066C72.1714 105.817 72.321 105.597 72.5274 105.441C72.7338 105.285 72.9857 105.201 73.2445 105.201C73.3423 105.2 73.4398 105.213 73.5339 105.239L73.6733 105.019C73.5354 104.97 73.3907 104.943 73.2445 104.939V104.955ZM54.4845 89.5771C54.1991 89.576 53.9198 89.6597 53.682 89.8175C53.4442 89.9753 53.2586 90.2001 53.1486 90.4634C53.0387 90.7268 53.0093 91.0169 53.0644 91.2969C53.1194 91.577 53.2563 91.8344 53.4577 92.0365C53.6591 92.2387 53.916 92.3766 54.1959 92.4326C54.4757 92.4887 54.7659 92.4605 55.0297 92.3515C55.2934 92.2425 55.5189 92.0577 55.6776 91.8205C55.8363 91.5833 55.921 91.3043 55.921 91.0189C55.9239 90.636 55.7748 90.2676 55.5066 89.9943C55.2384 89.7211 54.8728 89.5652 54.4899 89.561L54.4845 89.5771ZM54.4845 92.2035C54.2487 92.2045 54.0179 92.1355 53.8214 92.0052C53.6249 91.8748 53.4716 91.689 53.3808 91.4714C53.2901 91.2538 53.2661 91.0141 53.3118 90.7827C53.3576 90.5514 53.471 90.3389 53.6378 90.1722C53.8045 90.0054 54.017 89.892 54.2483 89.8463C54.4796 89.8005 54.7193 89.8245 54.937 89.9153C55.1546 90.006 55.3404 90.1593 55.4708 90.3558C55.6011 90.5523 55.6701 90.7831 55.6691 91.0189C55.6635 91.3289 55.5371 91.6245 55.3169 91.8428C55.0966 92.061 54.7999 92.1847 54.4899 92.1874L54.4845 92.2035ZM17.5755 104.939C17.2922 104.943 17.0164 105.031 16.7829 105.192C16.5494 105.352 16.3686 105.578 16.2633 105.842C16.158 106.105 16.1329 106.393 16.1912 106.67C16.2495 106.948 16.3885 107.202 16.5907 107.4C16.793 107.599 17.0494 107.733 17.3278 107.786C17.6062 107.839 17.8941 107.809 18.1553 107.699C18.4164 107.589 18.6391 107.404 18.7954 107.167C18.9517 106.931 19.0345 106.653 19.0335 106.37C19.0328 106.18 18.9944 105.992 18.9206 105.817C18.8467 105.642 18.7389 105.483 18.6033 105.35C18.4677 105.217 18.307 105.112 18.1306 105.041C17.9542 104.971 17.7655 104.936 17.5755 104.939ZM17.5755 107.56C17.34 107.561 17.1094 107.492 16.913 107.362C16.7166 107.232 16.5633 107.046 16.4724 106.829C16.3815 106.612 16.3572 106.372 16.4025 106.141C16.4478 105.91 16.5607 105.697 16.7269 105.53C16.8931 105.364 17.1051 105.25 17.3361 105.203C17.567 105.157 17.8066 105.18 18.0243 105.27C18.242 105.36 18.4282 105.513 18.5592 105.708C18.6902 105.904 18.7601 106.134 18.7601 106.37C18.7601 106.685 18.6355 106.986 18.4135 107.209C18.1915 107.432 17.8902 107.558 17.5755 107.56ZM46.3373 129.643C45.9672 129.643 45.6113 129.785 45.3436 130.041C45.076 130.296 44.9174 130.646 44.9008 131.015H45.1527C45.1692 130.712 45.301 130.426 45.5213 130.217C45.7415 130.008 46.0335 129.891 46.3373 129.89C46.6401 129.889 46.9314 130.005 47.151 130.214C47.3705 130.422 47.5014 130.707 47.5165 131.01H47.7684C47.7506 130.642 47.5921 130.295 47.3258 130.041C47.0594 129.786 46.7056 129.644 46.3373 129.643ZM35.2367 107.174C34.9524 107.174 34.6745 107.258 34.4381 107.416C34.2018 107.575 34.0177 107.799 33.9091 108.062C33.8005 108.325 33.7724 108.614 33.8283 108.893C33.8841 109.171 34.0215 109.427 34.2229 109.628C34.4243 109.829 34.6808 109.965 34.9598 110.02C35.2388 110.075 35.5278 110.046 35.7902 109.936C36.0526 109.826 36.2766 109.642 36.4337 109.405C36.5909 109.168 36.6743 108.889 36.6732 108.605C36.6718 108.225 36.5198 107.861 36.2506 107.593C35.9814 107.325 35.6168 107.174 35.2367 107.174ZM35.2367 109.795C35.0014 109.795 34.7713 109.725 34.5757 109.594C34.38 109.464 34.2275 109.278 34.1374 109.06C34.0473 108.843 34.0238 108.604 34.0697 108.373C34.1156 108.142 34.2289 107.93 34.3953 107.764C34.5618 107.597 34.7738 107.484 35.0046 107.438C35.2354 107.392 35.4747 107.416 35.6921 107.506C35.9095 107.596 36.0954 107.748 36.2261 107.944C36.3569 108.14 36.4267 108.37 36.4267 108.605C36.4274 108.762 36.3971 108.917 36.3375 109.061C36.278 109.206 36.1904 109.337 36.0797 109.448C35.9691 109.559 35.8376 109.646 35.6929 109.706C35.5483 109.765 35.3932 109.796 35.2367 109.795ZM35.9496 80.8081C35.666 80.8102 35.3893 80.8963 35.1545 81.0554C34.9197 81.2145 34.7372 81.4396 34.6302 81.7023C34.5231 81.9649 34.4962 82.2534 34.5528 82.5313C34.6094 82.8093 34.7471 83.0643 34.9484 83.2641C35.1497 83.4639 35.4057 83.5996 35.684 83.6542C35.9624 83.7088 36.2507 83.6797 36.5125 83.5707C36.7744 83.4617 36.9981 83.2775 37.1555 83.0415C37.3128 82.8055 37.3968 82.5283 37.3968 82.2446C37.3968 82.0551 37.3593 81.8674 37.2865 81.6924C37.2136 81.5174 37.1068 81.3586 36.9723 81.225C36.8378 81.0915 36.6782 80.9859 36.5026 80.9144C36.3271 80.8428 36.1392 80.8067 35.9496 80.8081ZM35.9496 83.4292C35.6485 83.4089 35.3664 83.275 35.1603 83.0546C34.9542 82.8342 34.8395 82.5437 34.8395 82.2419C34.8395 81.9402 34.9542 81.6497 35.1603 81.4292C35.3664 81.2088 35.6485 81.0749 35.9496 81.0547C36.1122 81.0438 36.2754 81.0663 36.4289 81.1211C36.5824 81.1758 36.7231 81.2614 36.8421 81.3728C36.9612 81.4841 37.0561 81.6187 37.121 81.7682C37.1859 81.9177 37.2194 82.0789 37.2194 82.2419C37.2194 82.4049 37.1859 82.5662 37.121 82.7157C37.0561 82.8652 36.9612 82.9998 36.8421 83.1111C36.7231 83.2224 36.5824 83.3081 36.4289 83.3628C36.2754 83.4175 36.1122 83.4401 35.9496 83.4292ZM10.4575 117.369C10.3657 117.369 10.2742 117.378 10.1841 117.395L10.0876 117.674C10.2071 117.636 10.3319 117.616 10.4575 117.615C10.6208 117.604 10.7846 117.627 10.9388 117.682C11.093 117.737 11.2343 117.823 11.3539 117.935C11.4734 118.047 11.5688 118.182 11.6339 118.332C11.6991 118.482 11.7327 118.644 11.7327 118.808C11.7327 118.972 11.6991 119.134 11.6339 119.284C11.5688 119.434 11.4734 119.569 11.3539 119.681C11.2343 119.793 11.093 119.879 10.9388 119.934C10.7846 119.989 10.6208 120.011 10.4575 120C10.2605 120.001 10.0664 119.953 9.89312 119.859C9.71983 119.766 9.5729 119.63 9.46586 119.464L9.36938 119.743C9.50102 119.9 9.6649 120.027 9.84988 120.115C10.0349 120.202 10.2366 120.249 10.4414 120.252C10.6378 120.264 10.8345 120.236 11.0195 120.169C11.2046 120.102 11.3739 119.998 11.5172 119.863C11.6605 119.729 11.7747 119.566 11.8528 119.385C11.9308 119.205 11.9711 119.01 11.9711 118.813C11.9711 118.616 11.9308 118.422 11.8528 118.241C11.7747 118.061 11.6605 117.898 11.5172 117.763C11.3739 117.628 11.2046 117.524 11.0195 117.457C10.8345 117.39 10.6378 117.362 10.4414 117.374L10.4575 117.369ZM26.0926 114.989C25.807 114.989 25.5278 115.074 25.2904 115.233C25.0531 115.392 24.8683 115.617 24.7595 115.881C24.6507 116.146 24.6228 116.436 24.6793 116.716C24.7358 116.996 24.8742 117.253 25.0769 117.454C25.2796 117.655 25.5375 117.792 25.8179 117.846C26.0983 117.901 26.3886 117.87 26.6518 117.76C26.9151 117.649 27.1395 117.462 27.2967 117.224C27.4538 116.985 27.5365 116.706 27.5344 116.42C27.5337 116.231 27.4957 116.044 27.4225 115.869C27.3493 115.695 27.2425 115.537 27.108 115.404C26.9736 115.271 26.8142 115.166 26.639 115.095C26.4638 115.023 26.2763 114.987 26.0872 114.989H26.0926ZM26.0926 117.615C25.8577 117.614 25.6284 117.544 25.4335 117.412C25.2387 117.281 25.087 117.095 24.9976 116.878C24.9082 116.661 24.8851 116.422 24.9312 116.192C24.9772 115.962 25.0905 115.75 25.2566 115.584C25.4226 115.418 25.6342 115.305 25.8645 115.259C26.0948 115.212 26.3336 115.236 26.5508 115.325C26.768 115.414 26.9539 115.566 27.0851 115.761C27.2163 115.956 27.2868 116.185 27.2879 116.42C27.2886 116.578 27.258 116.734 27.1978 116.879C27.1377 117.025 27.0492 117.157 26.9375 117.269C26.8258 117.38 26.6931 117.468 26.5471 117.527C26.4012 117.587 26.2448 117.617 26.0872 117.615H26.0926ZM48.9691 103.749C48.6847 103.748 48.4065 103.831 48.1695 103.988C47.9326 104.146 47.7477 104.37 47.6381 104.632C47.5286 104.894 47.4994 105.183 47.5542 105.462C47.609 105.741 47.7454 105.998 47.9461 106.199C48.1467 106.401 48.4027 106.538 48.6815 106.594C48.9603 106.65 49.2494 106.622 49.5122 106.513C49.775 106.404 49.9996 106.22 50.1577 105.984C50.3158 105.748 50.4002 105.47 50.4002 105.185C50.3974 104.805 50.2451 104.442 49.9763 104.173C49.7076 103.904 49.3438 103.752 48.9637 103.749H48.9691ZM48.9691 106.37C48.7348 106.37 48.5058 106.3 48.311 106.17C48.1162 106.04 47.9643 105.855 47.8747 105.639C47.785 105.422 47.7616 105.184 47.8073 104.954C47.853 104.725 47.9658 104.513 48.1315 104.348C48.2971 104.182 48.5082 104.069 48.738 104.024C48.9678 103.978 49.2059 104.001 49.4224 104.091C49.6388 104.181 49.8238 104.332 49.954 104.527C50.0842 104.722 50.1536 104.951 50.1536 105.185C50.1522 105.5 50.0262 105.801 49.8032 106.023C49.5802 106.245 49.2784 106.37 48.9637 106.37H48.9691ZM45.2171 59.009C45.1169 59.1464 44.9876 59.26 44.8384 59.3415C44.6892 59.4231 44.5238 59.4706 44.3541 59.4807L44.0218 59.7112C44.1038 59.7193 44.1864 59.7193 44.2683 59.7112C44.5432 59.7104 44.8122 59.6313 45.0439 59.4833C45.2755 59.3352 45.4601 59.1242 45.5762 58.875L45.2171 59.009ZM49.6551 74.9818C49.3698 74.9829 49.0911 75.0686 48.8545 75.2282C48.6178 75.3877 48.4339 75.6139 48.3259 75.8781C48.2179 76.1423 48.1908 76.4325 48.2479 76.7122C48.305 76.9918 48.4438 77.2482 48.6467 77.4488C48.8497 77.6495 49.1076 77.7855 49.3878 77.8394C49.6681 77.8934 49.958 77.863 50.221 77.7521C50.4839 77.6412 50.708 77.4547 50.8649 77.2163C51.0218 76.9779 51.1045 76.6983 51.1023 76.4129C51.1009 76.0347 50.9505 75.6723 50.6835 75.4044C50.4166 75.1365 50.0548 74.9846 49.6766 74.9818H49.6551ZM49.6551 77.6136C49.4192 77.6125 49.1888 77.5416 48.9931 77.4099C48.7974 77.2781 48.645 77.0914 48.5552 76.8732C48.4654 76.655 48.4422 76.4151 48.4885 76.1838C48.5348 75.9524 48.6485 75.7399 48.8153 75.5731C48.9822 75.4063 49.1947 75.2925 49.426 75.2462C49.6574 75.2 49.8973 75.2232 50.1154 75.313C50.3336 75.4028 50.5204 75.5551 50.6521 75.7509C50.7839 75.9466 50.8547 76.177 50.8558 76.4129C50.8572 76.7281 50.7341 77.0311 50.5133 77.2559C50.2924 77.4808 49.9917 77.6093 49.6766 77.6136H49.6551Z" fill="white"/>
<path d="M67.8093 72.6767C69.1761 74.9494 70.6876 77.147 72.0973 79.3875C71.5238 77.7795 70.9556 76.209 70.3232 74.6438C70.3232 74.6117 70.3553 74.5849 70.3714 74.6171C71.3736 76.4993 72.1921 78.4738 72.8156 80.5131C73.8829 82.2082 74.8372 83.9719 75.6724 85.7927C76.7016 87.9709 77.3488 90.3097 77.586 92.7071C77.7398 95.1232 77.3988 97.5454 76.5836 99.8251C75.6211 102.439 74.4227 104.96 73.0032 107.356C72.8209 107.678 72.376 107.383 72.5261 107.061C74.5308 102.773 76.7444 98.2922 76.5461 93.4467C76.3478 88.6013 74.1127 84.2383 71.9258 80.0843C70.6546 77.551 69.2224 75.1018 67.6378 72.7518C67.5681 72.6714 67.7343 72.5749 67.8093 72.6767Z" fill="#263238"/>
<path d="M61.3291 104.789C58.4395 105.046 55.573 105.517 52.7531 106.199C51.3541 106.558 49.982 106.976 48.6152 107.426C47.9291 107.651 47.243 107.855 46.5516 108.053C45.8348 108.28 45.0934 108.421 44.3433 108.471C44.3325 108.475 44.3232 108.482 44.3166 108.491C44.31 108.5 44.3064 108.511 44.3064 108.522C44.3064 108.533 44.31 108.544 44.3166 108.554C44.3232 108.563 44.3325 108.57 44.3433 108.573C45.058 108.609 45.7743 108.597 46.4873 108.536C47.1705 108.452 47.8474 108.324 48.5133 108.15C49.9337 107.801 51.3381 107.383 52.7585 107.019C55.6153 106.284 58.4722 105.55 61.3773 105.025C61.4953 105.003 61.4631 104.773 61.3291 104.789Z" fill="#263238"/>
<path d="M68.4688 107.345C66.0883 107.097 63.6958 106.982 61.3025 107.002C60.1018 107.002 58.9173 107.099 57.722 107.217C57.1538 107.27 56.5857 107.334 56.0175 107.41C55.3958 107.49 54.7794 107.651 54.1522 107.72C54.0879 107.72 54.0879 107.833 54.1522 107.828C54.7418 107.774 55.3422 107.828 55.9371 107.828L57.7274 107.779C58.9226 107.779 60.1126 107.736 61.3078 107.694C63.6984 107.613 66.0782 107.56 68.4688 107.56C68.6028 107.544 68.5921 107.361 68.4688 107.345Z" fill="#263238"/>
<path d="M36.5124 65.4725C18.4974 84.3129 -3.8645 123.736 0.562857 131.577C5.49406 140.314 31.2435 113.616 30.4288 112.33C29.7373 111.258 38.9083 87.3467 45.4368 69.9857C51.9653 52.6246 40.9612 60.7879 36.5124 65.4725Z" fill="#AD6359"/>
<path d="M14.4614 88.0708L40.302 92.7233C40.302 92.7233 46.734 74.4081 48.0365 64.2456C48.7494 58.5479 45.4047 58.3121 41.1917 61.3405C26.4464 71.9372 14.4614 88.0708 14.4614 88.0708Z" fill="#1357E8"/>
<path d="M23.7072 86.1464C23.4229 86.1464 23.1449 86.2308 22.9086 86.3889C22.6723 86.547 22.4881 86.7716 22.3796 87.0344C22.271 87.2972 22.2429 87.5863 22.2987 87.8651C22.3546 88.1439 22.492 88.3999 22.6934 88.6005C22.8948 88.8012 23.1513 88.9376 23.4303 88.9924C23.7093 89.0473 23.9983 89.018 24.2607 88.9085C24.5231 88.7989 24.747 88.614 24.9042 88.3771C25.0614 88.1401 25.1448 87.8619 25.1437 87.5775C25.1423 87.1975 24.9903 86.8335 24.7211 86.5653C24.4518 86.297 24.0873 86.1464 23.7072 86.1464ZM23.7072 88.7675C23.4717 88.7685 23.2411 88.6996 23.0447 88.5695C22.8483 88.4394 22.695 88.254 22.6041 88.0366C22.5132 87.8193 22.4889 87.5799 22.5342 87.3487C22.5795 87.1175 22.6924 86.905 22.8586 86.7381C23.0248 86.5711 23.2368 86.4572 23.4677 86.4109C23.6987 86.3645 23.9382 86.3878 24.156 86.4777C24.3737 86.5676 24.5599 86.7201 24.6909 86.9159C24.8219 87.1117 24.8918 87.342 24.8918 87.5775C24.8918 87.8922 24.7672 88.1941 24.5452 88.4171C24.3232 88.6401 24.0219 88.766 23.7072 88.7675ZM39.5835 67.2417C39.217 67.2641 38.8729 67.4254 38.6213 67.6929C38.3697 67.9603 38.2296 68.3137 38.2296 68.6809C38.2296 69.048 38.3697 69.4014 38.6213 69.6688C38.8729 69.9363 39.217 70.0977 39.5835 70.12C39.7799 70.132 39.9767 70.1037 40.1617 70.0368C40.3467 69.9699 40.5161 69.8658 40.6594 69.731C40.8027 69.5962 40.9169 69.4335 40.9949 69.2529C41.073 69.0723 41.1133 68.8776 41.1133 68.6809C41.1133 68.4841 41.073 68.2895 40.9949 68.1089C40.9169 67.9283 40.8027 67.7655 40.6594 67.6307C40.5161 67.4959 40.3467 67.3918 40.1617 67.3249C39.9767 67.258 39.7799 67.2297 39.5835 67.2417ZM39.5835 69.8735C39.3474 69.8724 39.1168 69.8014 38.9209 69.6694C38.7251 69.5374 38.5727 69.3504 38.4831 69.1319C38.3934 68.9134 38.3705 68.6732 38.4172 68.4417C38.464 68.2102 38.5782 67.9977 38.7456 67.8311C38.913 67.6645 39.126 67.5512 39.3577 67.5055C39.5894 67.4598 39.8295 67.4838 40.0476 67.5744C40.2656 67.665 40.452 67.8182 40.5831 68.0147C40.7142 68.2111 40.7842 68.442 40.7842 68.6782C40.7842 68.8356 40.7531 68.9915 40.6927 69.1368C40.6323 69.2822 40.5438 69.4142 40.4322 69.5253C40.3206 69.6363 40.1882 69.7243 40.0426 69.784C39.897 69.8438 39.741 69.8742 39.5835 69.8735ZM28.29 72.8858C28.0728 72.8867 27.8586 72.9362 27.6629 73.0305L26.9983 73.7005C26.905 73.8925 26.8574 74.1035 26.8589 74.3169C26.8578 74.6025 26.9416 74.882 27.0997 75.12C27.2577 75.3579 27.4828 75.5435 27.7465 75.6533C28.0102 75.7631 28.3005 75.7921 28.5807 75.7366C28.8609 75.6812 29.1183 75.5438 29.3203 75.3418C29.5222 75.1398 29.6597 74.8824 29.7151 74.6022C29.7706 74.322 29.7416 74.0317 29.6318 73.768C29.522 73.5043 29.3364 73.2792 29.0984 73.1212C28.8605 72.9632 28.581 72.8794 28.2954 72.8804L28.29 72.8858ZM28.29 75.5175C28.0536 75.5175 27.8225 75.4474 27.626 75.3161C27.4294 75.1848 27.2762 74.9981 27.1857 74.7797C27.0953 74.5613 27.0716 74.3209 27.1177 74.0891C27.1638 73.8572 27.2777 73.6442 27.4448 73.4771C27.612 73.3099 27.825 73.1961 28.0568 73.15C28.2887 73.1038 28.529 73.1275 28.7474 73.218C28.9658 73.3084 29.1525 73.4616 29.2839 73.6582C29.4152 73.8548 29.4853 74.0859 29.4853 74.3223C29.486 74.4794 29.4556 74.6352 29.3958 74.7805C29.3359 74.9259 29.2479 75.0579 29.1368 75.169C29.0257 75.2802 28.8936 75.3682 28.7483 75.428C28.6029 75.4878 28.4472 75.5182 28.29 75.5175ZM39.9641 92.6695L40.2643 92.7231C40.2796 92.706 40.2978 92.6915 40.3179 92.6803L40.4465 92.3158C40.2614 92.394 40.0965 92.5131 39.9641 92.6642V92.6695ZM35.9495 80.8132C35.6658 80.8153 35.3892 80.9014 35.1543 81.0605C34.9195 81.2196 34.7371 81.4447 34.63 81.7074C34.5229 81.97 34.496 82.2585 34.5526 82.5365C34.6093 82.8144 34.7469 83.0694 34.9482 83.2692C35.1495 83.469 35.4055 83.6048 35.6839 83.6593C35.9622 83.7139 36.2505 83.6848 36.5124 83.5758C36.7742 83.4667 36.9979 83.2826 37.1553 83.0466C37.3127 82.8107 37.3967 82.5333 37.3967 82.2497C37.3974 82.0597 37.3604 81.8715 37.2879 81.6959C37.2153 81.5202 37.1086 81.3608 36.9741 81.2267C36.8395 81.0926 36.6796 80.9865 36.5037 80.9146C36.3278 80.8427 36.1395 80.8064 35.9495 80.8079V80.8132ZM35.9495 83.4343C35.6484 83.414 35.3662 83.2801 35.1601 83.0597C34.954 82.8393 34.8394 82.5488 34.8394 82.247C34.8394 81.9453 34.954 81.6548 35.1601 81.4343C35.3662 81.2139 35.6484 81.08 35.9495 81.0598C36.1121 81.0488 36.2752 81.0714 36.4287 81.1262C36.5823 81.1809 36.7229 81.2665 36.842 81.3779C36.961 81.4892 37.0559 81.6238 37.1208 81.7733C37.1857 81.9228 37.2192 82.084 37.2192 82.247C37.2192 82.41 37.1857 82.5713 37.1208 82.7208C37.0559 82.8703 36.961 83.0049 36.842 83.1162C36.7229 83.2275 36.5823 83.3132 36.4287 83.3679C36.2752 83.4226 36.1121 83.4452 35.9495 83.4343ZM44.1181 59.727H44.2843C44.5824 59.7267 44.873 59.633 45.1151 59.459C44.7747 59.5124 44.4406 59.6004 44.1181 59.7216V59.727Z" fill="white"/>
<path d="M40.1359 88.4892C36.2177 87.444 25.5138 84.9194 18.3421 84.2012C18.2992 84.2012 18.2617 84.3566 18.3046 84.3673C24.2006 85.8789 36.0891 88.0443 40.0823 88.7465C40.1573 88.7411 40.2055 88.5213 40.1359 88.4892Z" fill="#263238"/>
<path d="M37.1555 92.1552C38.2275 92.257 39.2995 92.3856 40.3394 92.525L40.1142 92.659C40.8861 89.8468 41.7347 87.056 42.6602 84.2867C43.5822 81.5263 44.5523 78.7766 45.6672 76.0645C44.9918 78.9106 44.1771 81.7139 43.3142 84.4957C42.4512 87.2776 41.5078 90.0487 40.4734 92.8091L40.409 92.9752L40.2536 92.9431C39.2245 92.6804 38.19 92.4285 37.1555 92.1552Z" fill="#263238"/>
<path d="M43.9575 81.6387C44.1874 81.0705 44.4824 80.5309 44.8366 80.0307C45.1873 79.5166 45.578 79.0309 46.005 78.5781C45.9474 78.8881 45.8444 79.1879 45.6995 79.4679C45.5662 79.7481 45.4102 80.017 45.2332 80.2719C44.8804 80.7901 44.4502 81.251 43.9575 81.6387Z" fill="#263238"/>
<path d="M1.14164 132.382C6.0246 137.667 17.2967 137.259 45.7636 138.899C49.7032 139.124 58.7831 111.756 54.5862 111.301C49.3066 110.722 28.676 109.623 27.1591 109.736C14.354 110.663 -2.16548 128.801 1.14164 132.382Z" fill="#AD6359"/>
<path d="M48.8672 110.792C48.8672 110.792 60.8575 110.964 67.1287 113C75.5278 115.729 81.6543 121.544 84.0716 124.138C89.1261 129.547 97.6003 146.114 93.2533 149.389C89.3137 152.353 81.5096 134.976 81.5096 134.976C81.5096 134.976 92.3904 151.378 86.9982 154.079C81.606 156.781 73.7054 136.086 73.7054 136.086C73.7054 136.086 84.5112 153.19 78.5294 155.092C73.9948 156.529 65.7672 138.198 65.7672 138.198C65.7672 138.198 74.9543 152.964 70.35 154.642C65.2688 156.497 56.6124 140.052 56.6124 140.052C44.1986 142.346 37.3485 138.364 32.814 134.95C31.6776 134.124 48.8672 110.792 48.8672 110.792Z" fill="#AD6359"/>
<path d="M78.106 129.064C79.4568 130.94 80.8343 132.816 82.0081 134.832C83.182 136.847 84.2968 138.862 85.2777 140.958C87.6951 146.093 88.408 149.69 88.3383 149.47C86.7303 144.335 82.6299 137.142 81.4507 135.137C80.2715 133.133 79.2049 131.096 78.031 129.102C77.9935 129.054 78.0739 129.016 78.106 129.064Z" fill="#263238"/>
<path d="M70.8323 133.18C72.4403 135.657 74.1448 138.053 75.6563 140.599C77.1679 143.145 78.3363 145.675 79.6817 148.306C79.7835 148.51 79.6388 148.499 79.5316 148.306C78.1005 145.728 76.5836 143.482 75.1257 140.899C73.6678 138.315 72.3117 135.721 70.768 133.223C70.7466 133.175 70.8055 133.143 70.8323 133.18Z" fill="#263238"/>
<path d="M63.9502 135.587C66.6302 139.248 68.6027 143.391 70.4572 147.502C70.5483 147.706 70.3661 147.674 70.2589 147.47C68.1739 143.466 66.5605 140.314 63.8269 135.678C63.7787 135.608 63.8912 135.512 63.9502 135.587Z" fill="#263238"/>
<path d="M16.616 114.249C18.3312 112.856 23.2463 109.468 28.4991 109.618C28.558 109.618 28.5688 109.699 28.4991 109.704C24.2432 110.197 18.4276 113.102 16.6588 114.319C16.65 114.321 16.6407 114.32 16.6322 114.317C16.6238 114.314 16.6166 114.308 16.6118 114.3C16.607 114.292 16.6049 114.283 16.6056 114.274C16.6064 114.265 16.61 114.256 16.616 114.249Z" fill="#263238"/>
<path d="M48.5402 58.7252C48.6367 59.9687 53.1606 68.6304 58.6813 69.22C60.4769 69.4076 61.9402 59.6417 61.9402 59.6417L62.2136 58.9449L66.0299 49.1951L55.3421 39.7454L53.7823 38.4697C53.7823 38.4697 52.914 41.2087 51.8688 44.6284C51.8205 44.7838 51.7669 44.9446 51.7187 45.1108C51.6705 45.2769 51.5901 45.486 51.5418 45.6468C51.3757 46.1828 51.2149 46.6759 51.0594 47.1958C50.9415 47.5924 50.8236 47.9784 50.7164 48.3964C50.6092 48.8145 50.4913 49.2273 50.368 49.6453C49.2799 53.8369 48.5134 58.1999 48.5402 58.7252Z" fill="#AD6359"/>
<path d="M51.8687 44.6391C52.4515 47.6315 53.6788 50.4611 55.4652 52.9315C57.2516 55.4019 59.5543 57.4539 62.2135 58.9449L66.0298 49.1951L55.3419 39.7454L53.7822 38.4697C53.7822 38.4697 52.9139 41.2194 51.8687 44.6391Z" fill="#263238"/>
<path d="M83.0533 37.6006C80.6359 55.8246 69.4496 56.4249 65.5207 55.8942C61.9563 55.4172 49.8803 53.3375 50.4055 34.9902C50.9308 16.643 60.1661 11.9905 68.3776 12.6551C76.5891 13.3198 85.4975 19.3766 83.0533 37.6006Z" fill="#AD6359"/>
<path d="M80.4377 35.6226C80.0394 35.4758 79.6494 35.3077 79.2692 35.1188C78.841 34.9923 78.465 34.731 78.1972 34.3738C78.1347 34.2437 78.1165 34.0967 78.1456 33.9554C78.1746 33.814 78.2492 33.6861 78.358 33.5912C78.6025 33.4356 78.8845 33.349 79.1741 33.3405C79.4638 33.332 79.7504 33.402 80.0035 33.543C80.56 33.7429 81.021 34.1447 81.2953 34.6686C81.3532 34.7925 81.3734 34.9307 81.3533 35.066C81.3332 35.2013 81.2737 35.3277 81.1823 35.4295C81.0908 35.5312 80.9715 35.6037 80.8391 35.6381C80.7066 35.6725 80.5671 35.6671 80.4377 35.6226Z" fill="#263238"/>
<path d="M68.1203 32.4979C68.5434 32.522 68.9676 32.522 69.3907 32.4979C69.8373 32.5596 70.2917 32.471 70.6824 32.246C70.7919 32.1516 70.8671 32.0237 70.8962 31.8821C70.9253 31.7405 70.9067 31.5933 70.8432 31.4634C70.6799 31.2249 70.4554 31.0347 70.1931 30.9131C69.9309 30.7914 69.6407 30.7426 69.3531 30.772C68.7694 30.7467 68.1969 30.9376 67.7451 31.308C67.6518 31.3979 67.5854 31.5122 67.5535 31.6378C67.5215 31.7634 67.5253 31.8955 67.5642 32.0191C67.6032 32.1428 67.6759 32.2531 67.7742 32.3376C67.8724 32.4222 67.9923 32.4777 68.1203 32.4979Z" fill="#263238"/>
<path d="M70.0607 36.5293C70.0607 36.4811 69.9588 36.5722 69.9481 36.6204C69.7659 37.8586 69.3478 39.2468 68.1579 39.4559C68.1509 39.4587 68.1449 39.4635 68.1407 39.4697C68.1365 39.4759 68.1343 39.4832 68.1343 39.4907C68.1343 39.4982 68.1365 39.5055 68.1407 39.5117C68.1449 39.518 68.1509 39.5228 68.1579 39.5255C69.5515 39.5523 70.0875 37.7031 70.0607 36.5293Z" fill="#263238"/>
<path d="M69.1977 35.0174C67.2413 34.4814 66.3729 38.4532 68.1793 38.9249C69.9856 39.3965 70.8325 35.4569 69.1977 35.0174Z" fill="#263238"/>
<path d="M68.3774 35.0548C67.9808 35.1995 67.5574 35.5211 67.1339 35.4675C66.7105 35.4139 66.3728 34.9315 66.1423 34.4491C66.1423 34.4009 66.078 34.4491 66.0673 34.4813C65.8904 35.237 66.0083 36.0893 66.7909 36.368C67.5735 36.6467 68.1898 36.0786 68.5436 35.3603C68.6079 35.2317 68.5329 34.9958 68.3774 35.0548Z" fill="#263238"/>
<path d="M77.3556 37.6437C77.3556 37.6008 77.436 37.7241 77.4252 37.7723C77.1036 38.9837 76.9428 40.4523 77.9612 41.0794C77.9934 41.0794 77.9612 41.1652 77.9344 41.1491C76.6266 40.6506 76.8571 38.7425 77.3556 37.6437Z" fill="#263238"/>
<path d="M78.7332 36.6199C80.7325 36.9201 79.9821 40.9079 78.1329 40.6131C76.2837 40.3183 77.0609 36.368 78.7332 36.6199Z" fill="#263238"/>
<path d="M79.5157 37.0653C79.789 37.3333 80.0249 37.7729 80.3947 37.8693C80.7645 37.9658 81.2255 37.6121 81.5793 37.2529C81.6168 37.2154 81.6436 37.2529 81.6329 37.3065C81.5149 38.0676 81.0969 38.8127 80.3572 38.8234C79.6175 38.8341 79.2852 38.0837 79.2852 37.2958C79.253 37.1243 79.4031 36.9313 79.5157 37.0653Z" fill="#263238"/>
<path d="M68.115 47.0349C68.3294 47.394 68.5117 47.8604 68.9405 48.0158C69.393 48.1284 69.8641 48.1449 70.3233 48.064C70.3324 48.0632 70.3414 48.0652 70.3492 48.0699C70.3571 48.0745 70.3632 48.0815 70.3668 48.0898C70.3703 48.0982 70.3712 48.1075 70.3691 48.1163C70.3671 48.1251 70.3623 48.1331 70.3555 48.1391C70.1194 48.331 69.8354 48.4549 69.5341 48.4974C69.2328 48.5399 68.9256 48.4994 68.6457 48.3803C68.4165 48.2503 68.2314 48.0548 68.1139 47.819C67.9965 47.5831 67.9521 47.3176 67.9864 47.0564C67.9864 46.9813 68.0829 46.9813 68.115 47.0349Z" fill="#263238"/>
<path d="M74.1609 43.6791C74.1609 43.6791 74.0323 45.5605 73.85 46.4234C73.85 46.5038 73.6195 46.4985 73.314 46.4234C73.314 46.4234 73.314 46.4234 73.2819 46.4234C72.5128 46.4033 71.7641 46.1721 71.1175 45.7553C70.4709 45.3384 69.9514 44.7518 69.6156 44.0597C69.6075 44.0394 69.607 44.0169 69.6141 43.9963C69.6211 43.9757 69.6354 43.9583 69.6542 43.9473C69.673 43.9362 69.6951 43.9323 69.7166 43.9362C69.738 43.9401 69.7573 43.9516 69.7711 43.9685C70.715 44.9493 71.9499 45.5996 73.2926 45.8231C73.4051 45.598 73.4051 42.6071 73.5445 42.6071C74.2018 42.8059 74.8292 43.0926 75.4098 43.4593C75.7957 39.5465 75.5491 35.6069 75.9887 31.7156C75.9887 31.6843 76.0011 31.6543 76.0232 31.6322C76.0453 31.6101 76.0753 31.5977 76.1066 31.5977C76.1379 31.5977 76.1678 31.6101 76.19 31.6322C76.2121 31.6543 76.2245 31.6843 76.2245 31.7156C76.7605 35.8321 76.4335 40.3452 76.1441 44.392C76.1173 44.9173 74.4771 43.8935 74.1609 43.6791Z" fill="#263238"/>
<path d="M55.3743 15.5231C54.7525 16.9649 46.4713 17.9565 42.8265 12.366C39.2353 6.85596 43.9897 0.0755625 50.5771 3.30764C54.7418 5.35516 56.6875 12.4679 55.3743 15.5231Z" fill="#263238"/>
<path d="M42.7139 4.79238C44.126 3.2613 46.0155 2.2542 48.0739 1.9355C49.0324 1.76699 50.0184 1.8536 50.9329 2.18665C51.8474 2.5197 52.6581 3.08746 53.2838 3.83294C54.6023 5.31766 55.2831 7.31694 55.6475 9.3323C55.8169 10.356 55.8923 11.393 55.8727 12.4304C55.8998 13.4833 55.7307 14.532 55.3742 15.5231C55.9481 14.598 56.3139 13.5592 56.4462 12.4786C56.6123 11.3915 56.6483 10.2885 56.5534 9.19294C56.4185 6.94608 55.5866 4.79713 54.1735 3.04502C53.4263 2.15098 52.4416 1.48638 51.333 1.1279C50.2243 0.769411 49.0369 0.731641 47.9077 1.01894C46.831 1.26189 45.8151 1.72181 44.9221 2.3706C44.029 3.01939 43.2777 3.84343 42.7139 4.79238Z" fill="#263238"/>
<path d="M51.3114 35.7515C54.5274 37.0754 57.4432 29.6679 57.4432 29.6679C57.4432 29.6679 72.2904 31.0936 76.6159 19.8591C76.6159 19.8591 77.0608 27.8991 83.5839 33.2269C83.5839 33.2269 86.5105 20.4165 77.1519 15.2441C77.1519 15.2441 65.8959 7.34347 56.2479 15.3459C46.5999 23.3484 49.1513 34.8671 51.3114 35.7515Z" fill="#263238"/>
<path d="M76.9213 19.0176C76.6057 20.8471 75.9041 22.5884 74.8631 24.1257C73.8362 25.6984 72.4949 27.0416 70.9235 28.0706C70.532 28.3266 70.1257 28.5593 69.7068 28.7674L69.0904 29.1051C68.876 29.1962 68.6562 29.2766 68.4365 29.3624C67.9969 29.5232 67.5681 29.7054 67.1233 29.8448C66.6784 29.9841 66.2174 30.0645 65.7672 30.1664C65.5367 30.2146 65.3116 30.2736 65.0865 30.3111L64.395 30.3861L63.0175 30.5309C62.0956 30.5309 61.1737 30.4987 60.2625 30.4451C61.1737 30.3057 62.0848 30.2682 62.9746 30.1235L64.3093 29.8662L64.9685 29.7429C65.1883 29.684 65.3973 29.6089 65.6117 29.5446C66.0405 29.4053 66.4693 29.2766 66.8981 29.1533C67.3269 29.0301 67.7182 28.8049 68.1256 28.6173L68.742 28.3547L69.3209 28.0331C69.7158 27.8281 70.0988 27.6008 70.4679 27.3524C71.9573 26.3772 73.2681 25.1534 74.3432 23.7344C74.8919 23.0235 75.3813 22.2688 75.8064 21.4778C76.2483 20.6914 76.6213 19.8682 76.9213 19.0176Z" fill="#263238"/>
<path d="M50.368 23.6172L48.8779 24.8929L52.5388 31.0783L55.8084 28.1678L50.368 23.6172ZM52.8818 29.2452L50.2019 25.2841L50.5449 24.9786L54.045 28.2429L52.8818 29.2452Z" fill="#1357E8"/>
<path d="M51.8099 20.8506L50.9148 22.5926L56.6339 26.9395L58.5689 23.0107L51.8099 20.8506ZM56.2641 25.1386L52.303 22.4586L52.5014 22.0459L56.9716 23.7503L56.2641 25.1386Z" fill="#1357E8"/>
<path d="M53.1124 36.7329C53.1124 36.7329 50.4324 30.2634 47.5916 31.0942C44.7508 31.925 45.8818 40.6993 48.6154 42.4735C48.9508 42.7248 49.3336 42.9057 49.7407 43.0053C50.1478 43.1049 50.5709 43.1211 50.9845 43.053C51.398 42.9849 51.7936 42.8339 52.1473 42.609C52.501 42.3842 52.8056 42.0901 53.0427 41.7445L53.1124 36.7329Z" fill="#AD6359"/>
<path d="M47.9775 33.6025C47.9293 33.6025 47.9079 33.6508 47.9454 33.6776C49.8482 34.9908 50.5182 37.1723 50.8398 39.3538C50.3895 38.4426 49.6391 37.8316 48.4385 38.3408C48.3742 38.3676 48.4063 38.4641 48.4707 38.4641C48.8641 38.4309 49.2583 38.5195 49.5996 38.718C49.941 38.9165 50.213 39.2152 50.3788 39.5736C50.6496 40.1769 50.8545 40.8077 50.9899 41.4549C51.0488 41.664 51.4079 41.6372 51.3865 41.4067C51.3865 41.4067 51.3865 41.3692 51.3865 41.3531C52.0297 38.6999 50.7862 34.5084 47.9775 33.6025Z" fill="#263238"/>
</svg>
