<svg width="199" height="213" viewBox="0 0 199 213" fill="none" xmlns="http://www.w3.org/2000/svg">
<path d="M149.235 162.64C176.708 135.167 176.708 90.6239 149.235 63.1505C121.762 35.6772 77.2183 35.6772 49.745 63.1505C22.2716 90.6239 22.2716 135.167 49.745 162.64C77.2183 190.114 121.761 190.114 149.235 162.64Z" fill="#E0E0E0"/>
<path d="M139.795 17.8097C138.565 19.3533 137.814 21.2239 137.637 23.1897C137.459 25.1556 137.862 27.1304 138.795 28.8697C139.675 30.4497 141.015 31.8697 141.215 33.6597C141.545 36.5697 138.725 39.1897 139.215 42.0897C139.525 44.0897 141.215 45.4597 142.135 47.2297C142.703 48.3808 142.933 49.6699 142.797 50.9465C142.66 52.2231 142.164 53.4346 141.365 54.4397C140.085 55.9997 138.075 56.9897 137.245 58.8397C136.625 60.1997 136.775 61.8397 136.245 63.2097C135.773 64.2823 135.031 65.2144 134.092 65.9154C133.152 66.6163 132.048 67.0622 130.885 67.2097C128.547 67.4906 126.177 67.3586 123.885 66.8197L124.395 64.2897C123.961 64.9616 123.37 65.5176 122.673 65.9097C121.976 66.3017 121.194 66.518 120.395 66.5397C118.794 66.5716 117.198 66.335 115.675 65.8397C114.725 61.5497 113.795 57.0197 115.135 52.8397C116.355 49.0797 119.235 46.1397 121.635 42.9997C124.3 39.5135 126.433 35.6515 127.965 31.5397C129.065 28.5897 129.855 25.5397 131.395 22.7397C132.935 19.9397 135.395 17.5197 138.475 16.9297" fill="#263238"/>
<path d="M185.545 76.8992L171.625 77.8992L171.485 74.3192C171.299 72.5452 171.723 70.7608 172.685 69.2592C172.839 68.9949 172.95 68.7081 173.015 68.4092C173.115 67.3492 171.555 62.0292 171.015 60.0792C170.335 57.7392 171.665 56.4992 172.185 57.4592C173.125 59.2092 175.615 66.7192 176.395 67.4592C177.175 68.1992 176.725 64.2692 176.725 64.2692C175.505 55.9992 174.975 54.7992 176.445 54.4892C178.135 54.1292 179.995 66.4392 179.995 66.4392C179.995 66.4392 179.745 64.7192 181.065 64.3692C182.385 64.0192 182.995 65.7092 182.995 65.7092C182.825 64.8392 184.075 64.7092 184.075 64.7092C187.195 65.1392 185.575 77.0092 185.575 77.0092L171.655 78.0092L164.985 124.559L157.865 113.649L139.285 126.909L156.035 146.909C157.49 148.641 159.321 150.017 161.388 150.934C163.456 151.851 165.705 152.283 167.965 152.199C171.66 152.065 175.171 150.555 177.81 147.964C180.448 145.374 182.023 141.891 182.225 138.199L185.545 76.8992Z" fill="#EB996E"/>
<path d="M174.655 77.0293C174.595 76.9593 175.335 76.3092 176.325 75.0892C176.9 74.3753 177.421 73.6199 177.885 72.8293C178.162 72.3623 178.416 71.8817 178.645 71.3893C178.926 70.9291 179.091 70.4074 179.125 69.8692C179.121 69.7443 179.081 69.6232 179.011 69.5204C178.94 69.4175 178.84 69.3373 178.725 69.2893C178.451 69.2433 178.17 69.289 177.925 69.4192C177.379 69.6764 176.859 69.988 176.375 70.3492C175.593 70.9409 174.916 71.6611 174.375 72.4792L174.215 72.7092L174.095 72.4693C173.809 71.9536 173.437 71.4904 172.995 71.0992C172.995 71.0992 173.755 71.2793 174.405 72.3593H174.125C174.637 71.4652 175.316 70.6776 176.125 70.0393C176.63 69.6472 177.177 69.3118 177.755 69.0393C178.111 68.8511 178.522 68.7944 178.915 68.8792C179.126 68.9538 179.311 69.0879 179.448 69.2654C179.585 69.4428 179.667 69.656 179.685 69.8792C179.667 70.5226 179.481 71.1501 179.145 71.6992C178.902 72.1969 178.631 72.681 178.335 73.1493C177.841 73.9521 177.276 74.7085 176.645 75.4092C176.074 76.054 175.402 76.6012 174.655 77.0293Z" fill="#D1734A"/>
<path d="M180.165 67.0994C180.25 67.9506 180.25 68.8081 180.165 69.6594C180.165 70.4994 180.075 71.4294 180.015 72.4194C179.975 72.9453 179.975 73.4735 180.015 73.9994C180.015 74.4894 180.485 74.9094 180.835 74.7094C181.185 74.5094 181.385 73.9094 181.535 73.3794C181.685 72.8494 181.805 72.3194 181.915 71.8094C182.135 70.8094 182.295 69.8694 182.445 69.0994C182.544 68.2492 182.742 67.4134 183.035 66.6094C183.034 67.4645 182.957 68.3178 182.805 69.1594C182.705 69.9394 182.585 70.8694 182.385 71.9094C182.295 72.4194 182.175 72.9594 182.025 73.5194C181.977 73.8487 181.864 74.1652 181.692 74.4502C181.521 74.7353 181.294 74.9832 181.025 75.1794C180.842 75.2628 180.639 75.2894 180.441 75.2555C180.243 75.2216 180.06 75.1289 179.915 74.9894C179.659 74.7478 179.503 74.4199 179.475 74.0694C179.443 73.5087 179.463 72.9463 179.535 72.3894C179.635 71.4027 179.725 70.4827 179.805 69.6294C179.837 68.7758 179.958 67.9279 180.165 67.0994Z" fill="#D1734A"/>
<path d="M182.545 70.6488C182.625 70.6488 182.425 71.2288 182.485 72.1288C182.503 72.6251 182.651 73.108 182.915 73.5288C183.085 73.6988 183.205 73.7088 183.365 73.5288C183.545 73.2572 183.699 72.9693 183.825 72.6688C184.46 71.091 184.958 69.4617 185.315 67.7988C185.471 69.556 185.124 71.3213 184.315 72.8888C184.171 73.2386 183.994 73.5735 183.785 73.8888C183.712 73.9837 183.618 74.0608 183.51 74.1145C183.403 74.1681 183.285 74.197 183.165 74.1988C183.051 74.1945 182.939 74.1654 182.837 74.1136C182.735 74.0618 182.646 73.9885 182.575 73.8988C182.375 73.6325 182.248 73.319 182.205 72.9888C182.153 72.7254 182.13 72.4572 182.135 72.1888C182.105 71.1488 182.455 70.6188 182.545 70.6488Z" fill="#D1734A"/>
<path d="M123.925 158.159L125.225 178.399C85.6351 193.569 56.2251 168.399 56.2251 168.399L62.1451 150.289L63.1451 118.669L55.5451 127.099L51.9551 124.099L33.8451 109.019L29.9551 105.769L48.7851 85.899C72.5951 60.269 91.1251 68.099 91.1251 68.099L118.965 70.709C118.965 70.709 138.225 73.439 147.545 90.319C155.135 104.059 163.395 118.609 163.395 118.609L139.535 135.609L131.945 121.669L123.925 158.159Z" fill="#455A64"/>
<path d="M29.145 112.629C29.145 113.819 29.145 114.999 29.215 116.199C29.3793 120.894 30.0158 125.561 31.115 130.129V130.259C31.255 130.829 31.415 131.389 31.575 131.949C32.195 134.149 33.015 136.089 33.795 138.219C33.895 138.489 33.995 138.749 34.105 139.019C36.625 138.359 43.315 132.019 51.485 123.749L33.355 108.629C31.025 111.169 29.925 112.329 29.145 112.629Z" fill="#EB996E"/>
<path d="M116.435 73.3393C117.435 66.4393 118.565 59.1993 118.565 59.1993C118.565 59.1993 127.655 58.9493 131.095 47.6093C134.375 36.7893 136.095 10.9993 136.095 10.9993C130.137 7.59538 123.281 6.09488 116.446 6.69903C109.611 7.30318 103.124 9.98308 97.8552 14.3793L90.8552 70.5293C90.0452 77.0393 95.0052 82.9293 101.995 83.7493C109.045 84.5693 115.545 79.9093 116.435 73.3393Z" fill="#EB996E"/>
<path d="M130.035 30.4895C129.985 30.8779 129.786 31.2316 129.48 31.476C129.174 31.7204 128.785 31.8364 128.395 31.7995C128.203 31.7882 128.016 31.7385 127.843 31.6535C127.671 31.5684 127.517 31.4497 127.391 31.3043C127.265 31.1589 127.17 30.9897 127.11 30.8069C127.051 30.624 127.029 30.4311 127.045 30.2395C127.098 29.8529 127.298 29.5016 127.604 29.2593C127.909 29.017 128.297 28.9023 128.685 28.9395C128.876 28.9509 129.063 29.0002 129.235 29.0846C129.407 29.169 129.56 29.2869 129.686 29.4312C129.811 29.5755 129.907 29.7434 129.967 29.9251C130.027 30.1068 130.05 30.2987 130.035 30.4895Z" fill="#263238"/>
<path d="M132.675 29.1591C132.465 29.3291 131.455 28.3391 129.855 28.1591C128.255 27.9791 126.965 28.5891 126.855 28.3691C126.745 28.1491 127.015 27.9391 127.575 27.6391C128.335 27.2569 129.194 27.1173 130.035 27.2391C130.869 27.3533 131.646 27.7277 132.255 28.3091C132.665 28.7091 132.775 29.0991 132.675 29.1591Z" fill="#263238"/>
<path d="M113.615 28.5189C113.565 28.9065 113.366 29.2593 113.059 29.5021C112.753 29.7449 112.364 29.8586 111.975 29.8189C111.784 29.8089 111.596 29.7604 111.424 29.6764C111.251 29.5924 111.098 29.4746 110.972 29.33C110.846 29.1854 110.75 29.017 110.691 28.8347C110.631 28.6524 110.609 28.46 110.625 28.2689C110.675 27.8805 110.875 27.5268 111.18 27.2823C111.486 27.0379 111.875 26.9219 112.265 26.9589C112.457 26.9715 112.644 27.0221 112.816 27.1076C112.987 27.193 113.141 27.3118 113.266 27.4569C113.392 27.602 113.487 27.7706 113.547 27.9529C113.607 28.1352 113.63 28.3276 113.615 28.5189Z" fill="#263238"/>
<path d="M115.895 27.4391C115.685 27.6091 114.675 26.6191 113.075 26.4391C111.475 26.2591 110.185 26.8591 110.075 26.6391C109.965 26.4191 110.235 26.2191 110.795 25.9191C111.555 25.5374 112.413 25.3978 113.255 25.519C114.091 25.6257 114.87 26.0012 115.475 26.5891C115.875 26.9891 115.995 27.3691 115.895 27.4391Z" fill="#263238"/>
<path d="M120.065 40.0997C120.947 39.9516 121.844 39.9146 122.735 39.9897C123.145 39.9897 123.545 39.9897 123.655 39.7097C123.741 39.2912 123.703 38.8567 123.545 38.4597C123.295 37.4597 123.035 36.3197 122.765 35.1797C121.695 30.5197 120.985 26.7097 121.175 26.6597C121.365 26.6097 122.385 30.3697 123.445 35.0297C123.705 36.1797 123.945 37.2697 124.175 38.3197C124.365 38.8464 124.365 39.423 124.175 39.9497C124.096 40.0853 123.988 40.2016 123.858 40.2898C123.728 40.3781 123.58 40.4361 123.425 40.4597C123.189 40.4899 122.951 40.4899 122.715 40.4597C121.82 40.4489 120.93 40.328 120.065 40.0997Z" fill="#263238"/>
<path d="M118.545 59.1989C113.059 58.5382 107.866 56.3638 103.545 52.9189C103.545 52.9189 106.215 61.3989 117.965 61.9189L118.545 59.1989Z" fill="#D1734A"/>
<path d="M124.075 7.41932C124.825 9.24932 123.645 11.4193 121.975 12.4193C120.214 13.3324 118.284 13.8768 116.305 14.0193C114.324 14.175 112.428 14.897 110.845 16.0993C108.125 18.5693 108.845 22.0993 106.095 25.3093C105.456 26.2114 104.576 26.9162 103.556 27.3439C102.536 27.7716 101.417 27.9051 100.325 27.7293C98.1253 27.4193 95.2753 27.9293 94.1653 30.4693C93.0553 33.0093 94.3953 34.8793 95.6253 37.2093C96.8553 39.5393 96.5253 41.9293 95.8253 44.4793C95.3253 46.3193 93.7453 47.7593 93.3953 49.6393C92.8353 52.6393 95.3953 55.9793 93.6653 58.4393C91.9353 60.8993 87.5453 59.8093 85.6153 62.0993C84.9153 62.9093 84.5153 64.0993 83.4853 64.4193C82.8449 64.5094 82.1925 64.3902 81.6253 64.0793L72.6253 60.2693C72.8553 59.3393 73.0953 58.3993 73.3353 57.4693C72.6701 58.1516 71.852 58.6657 70.9487 58.969C70.0453 59.2722 69.0828 59.356 68.1406 59.2133C67.1985 59.0706 66.3039 58.7056 65.5309 58.1484C64.7578 57.5913 64.1286 56.858 63.6953 56.0093C65.581 54.9141 67.3271 53.5945 68.8953 52.0793C70.4435 50.5371 71.3843 48.4887 71.5453 46.3093C71.6353 43.6693 70.2053 40.9993 71.0053 38.4893C72.1553 34.8993 77.0053 33.9993 79.1453 30.9193C81.1453 28.0393 80.4753 23.8593 82.5453 21.0093C84.9553 17.7093 90.0453 17.5593 92.8053 14.5393C94.6753 12.5393 95.1053 9.53932 96.4653 7.10932C98.2267 4.25287 100.979 2.14536 104.195 1.18932C107.391 0.256853 110.721 -0.131894 114.045 0.0393218C116.541 -0.07812 119.027 0.419827 121.285 1.48932C123.455 2.69932 125.095 5.17932 124.585 7.61932" fill="#263238"/>
<path d="M100.325 27.7596C99.1212 27.3218 97.8191 27.2283 96.5651 27.4896C95.9384 27.6186 95.3434 27.8707 94.8148 28.2311C94.2861 28.5916 93.8341 29.0533 93.4851 29.5896C92.845 30.7107 92.6522 32.0323 92.9451 33.2896C93.2453 34.5367 93.8191 35.7015 94.6251 36.6996C95.1414 37.4481 95.8265 38.0646 96.6251 38.4996C97.0306 38.7184 97.4842 38.8329 97.9451 38.8329C98.4059 38.8329 98.8595 38.7184 99.2651 38.4996" fill="#EB996E"/>
<path d="M98.6053 35.1789C98.7453 35.2489 98.0953 35.9289 97.0053 35.4589C96.4366 35.1793 95.9965 34.6927 95.7753 34.0989C95.5238 33.4112 95.4116 32.6803 95.4453 31.9489C95.4587 31.1703 95.7495 30.4221 96.2653 29.8389C96.4833 29.5907 96.7553 29.3959 97.0605 29.2693C97.3656 29.1428 97.6956 29.0879 98.0253 29.1089C99.1953 29.2389 99.4453 30.1089 99.3153 30.1089C99.1853 30.1089 98.8153 29.7189 98.0253 29.7889C97.5356 29.9062 97.1037 30.194 96.8069 30.6008C96.51 31.0076 96.3677 31.5067 96.4053 32.0089C96.4053 33.3089 96.6953 34.5389 97.3353 34.9289C97.9753 35.3189 98.5453 35.0989 98.6053 35.1789Z" fill="#D1734A"/>
<path d="M124.115 8.09918C123.66 9.34978 123.65 10.7193 124.087 11.9764C124.524 13.2335 125.382 14.3012 126.515 14.9992C127.815 15.7492 129.415 15.9992 130.515 16.9992C131.539 18.1104 132.134 19.5494 132.195 21.0592C132.247 22.553 132.527 24.03 133.025 25.4392C133.299 26.1344 133.789 26.7233 134.423 27.1194C135.056 27.5154 135.8 27.6976 136.545 27.6392L139.055 20.2292C139.975 17.5092 140.905 14.5992 140.245 11.7892C139.305 7.78918 135.345 5.16918 131.385 4.07918C129.571 3.43472 127.588 3.45243 125.785 4.12918C124.065 4.93918 122.895 7.12918 123.785 8.82918" fill="#263238"/>
<path d="M75.8452 61.4691C75.8452 61.4691 76.0852 61.2891 76.4352 60.8391C76.9109 60.1679 77.1945 59.3796 77.2552 58.5591C77.2992 57.2485 77.2256 55.9366 77.0352 54.6391C76.9496 53.7981 77.0311 52.9485 77.2752 52.1391C77.5614 51.2326 78.0427 50.3998 78.6852 49.6991C79.9952 48.2091 81.8252 47.0491 83.4052 45.4591C84.2414 44.6708 84.8641 43.6834 85.2152 42.5891C85.5099 41.4073 85.544 40.1755 85.3152 38.9791C85.1252 37.7191 84.8052 36.4391 84.6452 35.0891C84.4445 33.6871 84.5816 32.2574 85.0452 30.9191C85.5469 29.5149 86.3975 28.2614 87.5171 27.2765C88.6367 26.2916 89.9885 25.6077 91.4452 25.2891C94.3852 24.6391 97.4452 25.0391 99.8452 23.7991C101.013 23.1665 101.938 22.1641 102.475 20.9491C102.991 19.7562 103.415 18.526 103.745 17.2691C104.071 16.0368 104.565 14.8556 105.215 13.7591C105.887 12.7256 106.856 11.9201 107.995 11.4491C110.034 10.7625 112.198 10.5337 114.335 10.7791C116.06 10.9482 117.801 10.847 119.495 10.4791C120.761 10.1791 121.928 9.5593 122.885 8.67914C123.427 8.05994 123.775 7.29477 123.885 6.47914C123.985 5.92914 123.985 5.61914 124.015 5.62914C124.046 5.91832 124.046 6.20997 124.015 6.49914C123.93 7.35744 123.581 8.16817 123.015 8.81914C122.05 9.76069 120.853 10.43 119.545 10.7591C117.827 11.1642 116.054 11.2925 114.295 11.1391C112.215 10.9218 110.112 11.1641 108.135 11.8491C107.082 12.2927 106.19 13.0461 105.575 14.0091C104.955 15.0729 104.484 16.2169 104.175 17.4091C103.843 18.6927 103.415 19.9496 102.895 21.1691C102.601 21.8071 102.217 22.3998 101.755 22.9291C101.269 23.4638 100.694 23.9104 100.055 24.2491C97.3952 25.5791 94.3452 25.1591 91.5252 25.7991C90.1637 26.1097 88.9024 26.758 87.8573 27.6843C86.8122 28.6105 86.0171 29.7849 85.5452 31.0991C85.1035 32.3627 84.9698 33.7135 85.1552 35.0391C85.3052 36.3491 85.6152 37.6291 85.8052 38.9191C86.0431 40.1832 85.9987 41.4842 85.6752 42.7291C85.2893 43.8755 84.6223 44.9069 83.7352 45.7291C82.0852 47.3591 80.2552 48.4891 78.9752 49.9091C78.3859 50.5281 77.9356 51.2659 77.6544 52.073C77.3733 52.8801 77.2679 53.738 77.3452 54.5891C77.5199 55.915 77.5634 57.2548 77.4752 58.5891C77.3897 59.4376 77.0674 60.245 76.5452 60.9191C76.3487 61.145 76.1112 61.3317 75.8452 61.4691Z" fill="#455A64"/>
<path d="M129.445 67.2891C129.612 67.1222 129.769 66.9452 129.915 66.7591C130.285 66.1924 130.492 65.5353 130.515 64.8591C130.595 63.9791 130.365 62.8591 130.425 61.5991C130.6 60.1203 131.213 58.7276 132.185 57.5991C133.115 56.3091 134.355 54.9691 134.685 53.1691C135.015 51.3691 134.245 49.4391 133.865 47.3391C133.644 46.2345 133.689 45.0932 133.995 44.0091C134.367 42.9283 134.889 41.9049 135.545 40.9691C136.185 39.9691 136.895 39.0691 137.445 38.0491C138.044 37.048 138.388 35.9146 138.445 34.7491C138.398 33.5842 138.012 32.4584 137.335 31.5091C136.65 30.5318 136.096 29.4696 135.685 28.3491C135.005 26.0191 135.535 23.7391 135.685 21.6691C135.794 20.6707 135.774 19.6624 135.625 18.6691C135.479 17.7376 135.108 16.8557 134.545 16.0991C133.416 14.8043 132.03 13.7588 130.475 13.0291C129.166 12.4045 127.92 11.6544 126.755 10.7891C125.859 10.1313 125.107 9.29761 124.545 8.33914C124.198 7.72657 123.996 7.04224 123.955 6.33914C123.937 6.09799 123.953 5.85542 124.005 5.61914C124.005 5.61914 124.005 5.86914 124.065 6.32914C124.143 7.00333 124.368 7.65211 124.725 8.22914C125.295 9.13605 126.035 9.92391 126.905 10.5491C128.073 11.3788 129.315 12.0986 130.615 12.6991C132.239 13.4275 133.688 14.4947 134.865 15.8291C135.486 16.6261 135.902 17.5637 136.075 18.5591C136.24 19.5975 136.271 20.653 136.165 21.6991C136.025 23.8091 135.535 26.0491 136.165 28.1891C136.568 29.2536 137.105 30.2619 137.765 31.1891C138.499 32.2162 138.913 33.4374 138.955 34.6991C138.898 35.9529 138.53 37.1728 137.885 38.2491C137.305 39.3091 136.595 40.2491 135.965 41.2491C135.32 42.1515 134.809 43.1415 134.445 44.1891C134.15 45.1961 134.102 46.2596 134.305 47.2891C134.645 49.2891 135.455 51.2891 135.075 53.2891C134.881 54.2055 134.504 55.073 133.965 55.8391C133.465 56.5791 132.965 57.2291 132.455 57.8391C131.511 58.8973 130.896 60.2073 130.685 61.6091C130.595 62.8491 130.795 63.9591 130.685 64.8691C130.637 65.5717 130.387 66.2455 129.965 66.8091C129.832 67.0078 129.654 67.1723 129.445 67.2891Z" fill="#455A64"/>
<path d="M65.6353 56.7793C65.6353 56.7793 65.9653 56.7793 66.5853 56.8493C67.4915 56.8684 68.3914 56.6946 69.2253 56.3393C70.5612 55.7941 71.7132 54.8781 72.5453 53.6993C73.6057 52.1248 74.2239 50.2944 74.3353 48.3993C74.5753 46.2993 74.0453 44.0193 73.9853 41.4693C73.9157 40.1327 74.2094 38.8023 74.8353 37.6193C75.6664 36.4774 76.7471 35.5402 77.9953 34.8793C79.2392 34.232 80.2523 33.2155 80.8953 31.9693C81.354 30.5661 81.5705 29.0951 81.5353 27.6193C81.5514 26.0276 81.8563 24.452 82.4353 22.9693C82.7496 22.1997 83.2078 21.4972 83.7853 20.8993C84.4319 20.327 85.231 19.9552 86.0853 19.8293C87.7453 19.5393 89.3553 19.7093 90.9053 19.5393C92.4094 19.4309 93.8266 18.7932 94.9053 17.7393C95.9404 16.6884 96.7921 15.4716 97.4253 14.1393C98.0953 12.8393 98.6153 11.4993 99.2553 10.2193C99.8483 8.95886 100.605 7.78207 101.505 6.71927C102.362 5.68826 103.492 4.91899 104.765 4.49927C105.971 4.15389 107.25 4.15389 108.455 4.49927C109.536 4.80531 110.589 5.19998 111.605 5.67927C113.28 6.57944 115.108 7.15935 116.995 7.38927C118.428 7.45917 119.86 7.23805 121.205 6.73927C122.354 6.30913 123.43 5.70545 124.395 4.94927C124.182 5.18764 123.944 5.40223 123.685 5.58927C122.948 6.14509 122.137 6.59604 121.275 6.92927C119.912 7.47323 118.452 7.72861 116.985 7.67927C115.057 7.47712 113.185 6.91398 111.465 6.01927C110.464 5.55178 109.423 5.17365 108.355 4.88927C107.225 4.56421 106.026 4.56421 104.895 4.88927C103.703 5.29689 102.647 6.02732 101.845 6.99927C100.981 8.04182 100.255 9.19128 99.6853 10.4193C98.4753 12.8993 97.5353 15.8593 95.2553 18.0893C94.6702 18.6523 93.9939 19.1121 93.2553 19.4493C92.5082 19.7694 91.7149 19.9685 90.9053 20.0393C89.2953 20.2093 87.6753 20.0393 86.1253 20.3193C85.3826 20.4354 84.6886 20.7616 84.1253 21.2593C83.5984 21.8108 83.178 22.455 82.8853 23.1593C82.3399 24.5877 82.0489 26.1005 82.0253 27.6293C82.0563 29.1644 81.8229 30.6934 81.3353 32.1493C80.6499 33.4826 79.5664 34.5696 78.2353 35.2593C77.0561 35.8815 76.0311 36.7596 75.2353 37.8293C74.6446 38.9411 74.3648 40.1917 74.4253 41.4493C74.4253 43.9093 74.9753 46.2593 74.7153 48.4493C74.5722 50.3984 73.9092 52.2735 72.7953 53.8793C71.922 55.0764 70.7251 55.9992 69.3453 56.5393C68.4827 56.886 67.5528 57.033 66.6253 56.9693C66.2884 56.949 65.9556 56.8852 65.6353 56.7793Z" fill="#455A64"/>
<path d="M139.125 18.6592C139.043 17.6535 138.761 16.6744 138.295 15.7792C137.747 14.8376 137.024 14.0094 136.165 13.3392C135.093 12.5355 133.928 11.864 132.695 11.3392C131.385 10.7292 130.095 10.1892 128.985 9.56922C127.983 9.02813 127.058 8.3555 126.235 7.56922C125.681 7.03841 125.218 6.42017 124.865 5.73922C124.708 5.503 124.612 5.23161 124.585 4.94922C125.109 5.81515 125.748 6.60574 126.485 7.29922C127.319 8.00668 128.236 8.61103 129.215 9.09922C130.305 9.67922 131.585 10.1992 132.915 10.8092C134.186 11.3685 135.381 12.084 136.475 12.9392C137.365 13.6599 138.094 14.5593 138.615 15.5792C138.974 16.267 139.178 17.0245 139.215 17.7992C139.248 18.089 139.217 18.3825 139.125 18.6592Z" fill="#455A64"/>
<path d="M116.545 23.4589C116.445 23.5789 116.095 23.4589 115.545 23.2889C114.807 23.1187 114.053 23.0314 113.295 23.0289C112.535 23.0205 111.777 23.1011 111.035 23.2689C110.465 23.3989 110.115 23.5489 110.035 23.4389C109.955 23.3289 110.165 22.9389 110.775 22.5889C111.562 22.1877 112.432 21.9785 113.315 21.9785C114.198 21.9785 115.069 22.1877 115.855 22.5889C116.375 22.9689 116.595 23.3689 116.545 23.4589Z" fill="#263238"/>
<path d="M131.105 25.429C131.055 25.709 130.015 25.7989 128.765 25.6189C127.515 25.4389 126.545 25.0989 126.545 24.7689C126.545 24.4389 127.635 24.409 128.885 24.589C130.135 24.769 131.145 25.149 131.105 25.429Z" fill="#263238"/>
<path d="M96.1051 38.1797C96.1051 38.1797 96.2051 38.2497 96.3551 38.4297C96.5704 38.6926 96.7519 38.9815 96.8951 39.2897C97.4125 40.436 97.5661 41.7134 97.3351 42.9497C97.0105 44.7492 96.4065 46.4868 95.5451 48.0997C95.0673 49.0224 94.9124 50.0786 95.1051 51.0997C95.4577 52.1717 95.9414 53.1962 96.5451 54.1497C97.15 55.1513 97.4145 56.3217 97.2992 57.4861C97.1838 58.6505 96.6947 59.7463 95.9051 60.6097C95.2314 61.3793 94.3379 61.9238 93.3451 62.1697C92.5059 62.3438 91.652 62.4376 90.7951 62.4497C89.592 62.4167 88.4037 62.7216 87.3651 63.3297C87.0088 63.5897 86.695 63.9034 86.4351 64.2597C86.4351 64.2597 86.4351 64.1297 86.5651 63.9297C86.7389 63.6336 86.9701 63.3753 87.2451 63.1697C88.2741 62.4697 89.4905 62.0968 90.7351 62.0997C91.5666 62.0633 92.3932 61.9529 93.2051 61.7697C94.1165 61.5293 94.9329 61.0165 95.5451 60.2997C96.2158 59.5185 96.6465 58.56 96.7851 57.5397C96.8945 56.4387 96.6493 55.3315 96.0851 54.3797C95.4674 53.3827 94.9801 52.3106 94.6351 51.1897C94.4368 50.0776 94.6126 48.9312 95.1351 47.9297C95.5651 46.9297 96.0351 46.1397 96.3251 45.2897C96.6227 44.5115 96.8503 43.7083 97.0051 42.8897C97.2535 41.7147 97.1598 40.4931 96.7351 39.3697C96.3851 38.5797 96.0651 38.2097 96.1051 38.1797Z" fill="#263238"/>
<path d="M142.545 65.0996C142.345 65.1916 142.125 65.2328 141.905 65.2196C141.587 65.2001 141.276 65.1165 140.99 64.9739C140.705 64.8312 140.452 64.6325 140.245 64.3896C139.901 64.0159 139.649 63.5679 139.506 63.0805C139.364 62.5931 139.336 62.0795 139.425 61.5796C139.737 60.2884 140.41 59.1126 141.365 58.1896C142.507 57.1489 143.515 55.9698 144.365 54.6796C144.772 53.9472 144.969 53.1168 144.935 52.2796C144.876 51.3874 144.667 50.5116 144.315 49.6896C143.416 47.9111 142.615 46.0851 141.915 44.2196C141.604 43.1619 141.604 42.0373 141.915 40.9796C142.31 39.9578 142.81 38.9794 143.405 38.0596C143.974 37.2 144.203 36.1587 144.045 35.1396C143.775 34.1703 143.242 33.2946 142.505 32.6096C141.815 31.8696 141.055 31.1796 140.415 30.3896C139.77 29.6145 139.306 28.706 139.055 27.7296C138.665 25.9341 138.692 24.0729 139.135 22.2896C139.485 20.6296 139.965 19.1296 140.265 17.7396C140.895 15.5517 140.783 13.2167 139.945 11.0996C139.596 10.3577 139.123 9.68122 138.545 9.09961C138.545 9.09961 138.545 9.09961 138.685 9.18961C138.814 9.28142 138.935 9.38521 139.045 9.49961C139.501 9.96146 139.867 10.504 140.125 11.0996C140.555 11.9942 140.816 12.9603 140.895 13.9496C140.985 15.254 140.884 16.5645 140.595 17.8396C140.305 19.2496 139.855 20.7596 139.525 22.3996C139.129 24.1205 139.129 25.9087 139.525 27.6296C139.749 28.5371 140.176 29.3818 140.775 30.0996C141.385 30.8496 142.135 31.5196 142.855 32.2796C143.656 33.0192 144.24 33.963 144.545 35.0096C144.72 36.1472 144.474 37.3095 143.855 38.2796C143.268 39.1674 142.772 40.1122 142.375 41.0996C142.087 42.0789 142.087 43.1203 142.375 44.0996C143.06 45.9459 143.841 47.7551 144.715 49.5196C145.085 50.3957 145.298 51.3299 145.345 52.2796C145.376 53.1951 145.154 54.1014 144.705 54.8996C143.822 56.2094 142.777 57.4022 141.595 58.4496C140.668 59.3116 140.003 60.4171 139.675 61.6396C139.576 62.0998 139.587 62.5768 139.707 63.0319C139.827 63.4871 140.052 63.9076 140.365 64.2596C140.737 64.734 141.278 65.0458 141.875 65.1296C142.325 65.0996 142.545 65.0396 142.545 65.0996Z" fill="#263238"/>
<path d="M181.785 78.5793C181.134 77.7352 180.408 76.952 179.615 76.2393C178.721 75.6631 177.781 75.1614 176.805 74.7393C177.373 74.7049 177.942 74.7835 178.479 74.9706C179.017 75.1577 179.512 75.4496 179.935 75.8293C180.414 76.1382 180.825 76.5413 181.143 77.0141C181.461 77.4869 181.679 78.0194 181.785 78.5793Z" fill="#D1734A"/>
<path d="M166.875 133.38C166.156 131.955 165.667 130.426 165.425 128.85C165.022 127.301 164.877 125.696 164.995 124.1C165.394 125.628 165.708 127.177 165.935 128.74C166.34 130.266 166.654 131.816 166.875 133.38Z" fill="#D1734A"/>
<path d="M103.105 122.169C104.859 121.584 106.403 120.499 107.547 119.048C108.692 117.596 109.386 115.841 109.545 113.999C110.085 108.789 106.545 104.159 101.755 103.649C96.965 103.139 92.555 106.969 92.015 112.179C91.7927 114.031 92.1221 115.907 92.9617 117.572C93.8014 119.237 95.114 120.617 96.735 121.539C89.235 121.929 85.605 126.539 83.835 130.659C86.6081 134.563 90.6937 137.339 95.345 138.479L100.745 139.039C105.597 138.872 110.22 136.937 113.745 133.599C112.855 129.209 110.245 123.999 103.105 122.169Z" fill="white"/>
<g opacity="0.3">
<path d="M63.2251 118.669L67.6651 114.089C67.6651 114.089 65.7451 147.189 64.4351 151.169C63.1251 155.149 56.2651 168.399 56.2651 168.399L62.1851 150.289L63.2251 118.669Z" fill="black"/>
</g>
<path d="M73.0554 108.479C73.1554 108.579 69.2554 112.809 64.3354 117.929C59.4154 123.049 55.3354 127.129 55.2254 127.029C55.1154 126.929 59.0354 122.699 63.9554 117.569C68.8754 112.439 72.9554 108.379 73.0554 108.479Z" fill="#263238"/>
<path d="M135.125 105.89C135.143 106.224 135.127 106.559 135.075 106.89C135.015 107.55 134.905 108.51 134.745 109.7C134.425 112.06 133.885 115.32 133.145 118.88C132.405 122.44 131.595 125.65 130.945 127.95C130.615 129.1 130.335 130.02 130.125 130.66C130.047 131.009 129.919 131.346 129.745 131.66C129.771 131.321 129.831 130.986 129.925 130.66C130.115 129.9 130.325 128.99 130.585 127.92C131.145 125.6 131.895 122.4 132.635 118.84C133.375 115.28 133.965 112.05 134.385 109.7C134.575 108.62 134.735 107.7 134.875 106.92C134.91 106.566 134.994 106.219 135.125 105.89Z" fill="#263238"/>
<path d="M114.995 42.7995C115.221 42.6076 115.484 42.4649 115.768 42.3804C116.052 42.296 116.35 42.2716 116.644 42.309C116.938 42.3464 117.221 42.4447 117.474 42.5975C117.728 42.7504 117.947 42.9545 118.117 43.1968C118.288 43.4391 118.406 43.7143 118.464 44.0048C118.522 44.2952 118.519 44.5946 118.454 44.8838C118.39 45.1729 118.266 45.4455 118.091 45.6841C117.915 45.9227 117.692 46.1221 117.435 46.2695C117.173 46.4097 116.885 46.494 116.589 46.5173C116.293 46.5406 115.995 46.5023 115.715 46.4048C115.434 46.3072 115.177 46.1527 114.959 45.9508C114.741 45.7489 114.568 45.5041 114.449 45.2317C114.331 44.9594 114.27 44.6655 114.271 44.3685C114.271 44.0715 114.334 43.7778 114.453 43.5061C114.573 43.2344 114.748 42.9904 114.967 42.7896C115.186 42.5889 115.444 42.4356 115.725 42.3395" fill="#112EC1"/>
<path d="M115.205 40.569C115.465 40.569 115.205 42.329 116.545 43.759C117.885 45.189 119.745 45.269 119.725 45.509C119.705 45.749 119.265 45.789 118.475 45.699C117.455 45.5764 116.512 45.0942 115.815 44.339C115.149 43.6155 114.791 42.6618 114.815 41.679C114.835 40.939 115.085 40.539 115.205 40.569Z" fill="#263238"/>
<path d="M93.0154 14.6691C94.16 13.2536 94.8965 11.5524 95.1454 9.74912C95.1521 8.45904 94.689 7.21064 93.8424 6.23713C92.9959 5.26362 91.8239 4.6316 90.5454 4.45912C89.254 4.36838 87.971 4.72705 86.9139 5.47432C85.8568 6.22158 85.0907 7.31145 84.7454 8.55911C84.4736 9.82554 84.6189 11.1459 85.1597 12.3229C85.7004 13.4999 86.6075 14.4703 87.7454 15.0891C88.9074 15.6603 90.2163 15.862 91.4964 15.6671C92.7764 15.4723 93.966 14.8902 94.9054 13.9991" fill="#263238"/>
<path d="M95.3052 9.47949C95.4414 10.7847 95.0847 12.0937 94.3052 13.1495C93.6634 14.2963 92.614 15.16 91.3652 15.5695C92.2886 14.7536 93.1263 13.8456 93.8652 12.8595C94.4597 11.7851 94.9422 10.6525 95.3052 9.47949Z" fill="#455A64"/>
<path d="M92.2251 15.0991C92.2649 13.224 92.0427 11.3527 91.5651 9.53906C90.9283 7.75684 90.0429 6.07353 88.9351 4.53906C88.9351 4.53906 89.4951 4.88906 90.1551 5.70906C91.0126 6.78561 91.6605 8.01353 92.0651 9.32906C92.4784 10.6405 92.6479 12.0165 92.5651 13.3891C92.5788 13.9771 92.4627 14.561 92.2251 15.0991Z" fill="#455A64"/>
<path d="M143.778 181.87C157.8 181.87 169.168 170.502 169.168 156.48C169.168 142.457 157.8 131.09 143.778 131.09C129.755 131.09 118.388 142.457 118.388 156.48C118.388 170.502 129.755 181.87 143.778 181.87Z" fill="#112EC1"/>
<g opacity="0.3">
<path d="M143.778 181.87C157.8 181.87 169.168 170.502 169.168 156.48C169.168 142.457 157.8 131.09 143.778 131.09C129.755 131.09 118.388 142.457 118.388 156.48C118.388 170.502 129.755 181.87 143.778 181.87Z" fill="black"/>
</g>
<path d="M143.778 177.16C157.8 177.16 169.168 165.792 169.168 151.77C169.168 137.747 157.8 126.38 143.778 126.38C129.755 126.38 118.388 137.747 118.388 151.77C118.388 165.792 129.755 177.16 143.778 177.16Z" fill="#112EC1"/>
<path d="M143.778 166.79C143.058 166.79 142.468 160.06 142.468 151.79C142.468 143.52 143.058 136.79 143.778 136.79C144.498 136.79 145.078 143.52 145.078 151.79C145.078 160.06 144.488 166.79 143.778 166.79Z" fill="white"/>
<path d="M158.838 151.77C158.838 152.49 152.118 153.07 143.838 153.07C135.558 153.07 128.838 152.49 128.838 151.77C128.838 151.05 135.558 150.47 143.838 150.47C152.118 150.47 158.838 151.05 158.838 151.77Z" fill="white"/>
</svg>
