<svg width="354" height="354" viewBox="0 0 354 354" fill="none" xmlns="http://www.w3.org/2000/svg">
<path d="M354 270.738H0V270.915H354V270.738Z" fill="#EBEBEB"/>
<path d="M48.5131 277.479H37.1426V277.656H48.5131V277.479Z" fill="#EBEBEB"/>
<path d="M159.067 275.561H121.168V275.738H159.067V275.561Z" fill="#EBEBEB"/>
<path d="M74.8857 284.057H49.2207V284.234H74.8857V284.057Z" fill="#EBEBEB"/>
<path d="M299.01 275.469H268.432V275.646H299.01V275.469Z" fill="#EBEBEB"/>
<path d="M309.8 275.469H305.318V275.646H309.8V275.469Z" fill="#EBEBEB"/>
<path d="M262.59 279.879H224.436V280.056H262.59V279.879Z" fill="#EBEBEB"/>
<path d="M167.796 239.162H31.0883C30.0174 239.16 28.9909 238.733 28.2343 237.975C27.4777 237.217 27.0527 236.19 27.0527 235.119V42.9467C27.0621 41.8819 27.4911 40.8638 28.2467 40.1135C29.0023 39.3632 30.0235 38.9413 31.0883 38.9395H167.796C168.868 38.9395 169.897 39.3654 170.655 40.1235C171.413 40.8817 171.839 41.9099 171.839 42.9821V235.119C171.839 236.191 171.413 237.22 170.655 237.978C169.897 238.736 168.868 239.162 167.796 239.162ZM31.0883 39.0811C30.0643 39.0829 29.0829 39.491 28.3595 40.2158C27.636 40.9405 27.2297 41.9227 27.2297 42.9467V235.119C27.2297 236.143 27.636 237.125 28.3595 237.85C29.0829 238.575 30.0643 238.983 31.0883 238.985H167.796C168.821 238.983 169.803 238.575 170.527 237.851C171.252 237.126 171.66 236.144 171.662 235.119V42.9467C171.66 41.9221 171.252 40.9399 170.527 40.2154C169.803 39.4908 168.821 39.0829 167.796 39.0811H31.0883Z" fill="#EBEBEB"/>
<path d="M320.943 239.162H184.228C183.157 239.16 182.129 238.733 181.372 237.976C180.614 237.218 180.187 236.191 180.186 235.119V42.9467C180.197 41.8813 180.627 40.8631 181.384 40.113C182.141 39.3629 183.163 38.9413 184.228 38.9395H320.943C322.007 38.9431 323.026 39.3658 323.78 40.116C324.534 40.8661 324.962 41.8831 324.972 42.9467V235.119C324.972 236.189 324.548 237.215 323.792 237.973C323.037 238.731 322.013 239.158 320.943 239.162ZM184.228 39.0811C183.204 39.0829 182.221 39.4908 181.497 40.2154C180.772 40.9399 180.364 41.9221 180.363 42.9467V235.119C180.364 236.144 180.772 237.126 181.497 237.851C182.221 238.575 183.204 238.983 184.228 238.985H320.943C321.968 238.983 322.95 238.575 323.674 237.851C324.399 237.126 324.807 236.144 324.809 235.119V42.9467C324.807 41.9221 324.399 40.9399 323.674 40.2154C322.95 39.4908 321.968 39.0829 320.943 39.0811H184.228Z" fill="#EBEBEB"/>
<path d="M280.615 211.557H275.914V270.738H280.615V211.557Z" fill="#F5F5F5"/>
<path d="M282.663 211.557H278.57V270.738H282.663V211.557Z" fill="#F0F0F0"/>
<path d="M170.961 211.557H166.26V270.738H170.961V211.557Z" fill="#F5F5F5"/>
<path d="M173.006 211.557H168.914V270.738H173.006V211.557Z" fill="#F0F0F0"/>
<path d="M298.435 211.557H293.734V270.738H298.435V211.557Z" fill="#F5F5F5"/>
<path d="M300.483 211.557H296.391V270.738H300.483V211.557Z" fill="#F0F0F0"/>
<path d="M188.781 211.557H184.08V270.738H188.781V211.557Z" fill="#F5F5F5"/>
<path d="M166.267 212.676L300.482 212.676V210.431L166.267 210.431V212.676Z" fill="#F0F0F0"/>
<path d="M166.259 212.676H186.734V210.431H166.259V212.676Z" fill="#E6E6E6"/>
<path d="M190.827 211.557H186.734V270.738H190.827V211.557Z" fill="#F0F0F0"/>
<path d="M233.386 167.328H220.691V210.431H233.386V167.328Z" fill="#EBEBEB"/>
<path d="M267.808 210.431H225.668L219.303 159.986H261.443L267.808 210.431Z" fill="#E0E0E0"/>
<path d="M270.285 210.431H226.757L220.393 159.986H263.92L270.285 210.431Z" fill="#F0F0F0"/>
<path d="M245.866 210.431H237.42L239.799 159.986H248.245L245.866 210.431Z" fill="#FAFAFA"/>
<path d="M255.546 210.431H247.234L249.613 159.986H257.925L255.546 210.431Z" fill="#FAFAFA"/>
<path d="M305.113 51.3359H195.635V136.997H305.113V51.3359Z" fill="#E6E6E6"/>
<path d="M308.399 51.3359H197.172V136.997H308.399V51.3359Z" fill="#F0F0F0"/>
<path d="M305.113 136.998H195.635V139.865H305.113V136.998Z" fill="#E6E6E6"/>
<path d="M310.147 136.998H198.92V139.865H310.147V136.998Z" fill="#F0F0F0"/>
<path d="M303.803 132.396V55.9316L201.773 55.9316V132.396H303.803Z" fill="#FAFAFA"/>
<path d="M257.605 132.396L264.969 55.9395H277.713L270.349 132.396H257.605Z" fill="white"/>
<path d="M225.449 132.396L232.812 55.9395H245.556L238.193 132.396H225.449Z" fill="white"/>
<path d="M203.904 106.483C203.811 106.481 203.723 106.443 203.658 106.376C203.593 106.31 203.557 106.221 203.557 106.129V58.9263C203.557 58.8324 203.594 58.7423 203.66 58.6759C203.727 58.6096 203.817 58.5723 203.911 58.5723C204.005 58.5723 204.095 58.6096 204.161 58.6759C204.227 58.7423 204.265 58.8324 204.265 58.9263V106.129C204.265 106.176 204.255 106.222 204.237 106.266C204.219 106.309 204.192 106.349 204.158 106.381C204.125 106.414 204.085 106.44 204.041 106.458C203.997 106.475 203.951 106.484 203.904 106.483Z" fill="#F0F0F0"/>
<path d="M273.082 132.396L280.445 55.9395H285.415L278.052 132.396H273.082Z" fill="white"/>
<path d="M303.803 132.403V55.9395H303.222V132.403H303.803Z" fill="#E6E6E6"/>
<path opacity="0.5" d="M309.489 64.2717H200.011L199.586 57.7227H309.064L309.489 64.2717Z" fill="#E0E0E0"/>
<path opacity="0.5" d="M309.489 75.0412H200.011L199.586 68.4922H309.064L309.489 75.0412Z" fill="#E0E0E0"/>
<path opacity="0.5" d="M309.489 85.8088H200.011L199.586 79.2598H309.064L309.489 85.8088Z" fill="#E0E0E0"/>
<path opacity="0.5" d="M309.489 96.5783H200.011L199.586 90.0293H309.064L309.489 96.5783Z" fill="#E0E0E0"/>
<path opacity="0.5" d="M309.489 107.34H200.011L199.586 100.791H309.064L309.489 107.34Z" fill="#E0E0E0"/>
<path opacity="0.5" d="M309.489 118.108H200.011L199.586 111.559H309.064L309.489 118.108Z" fill="#E0E0E0"/>
<path opacity="0.5" d="M309.489 69.6603H200.011L199.586 63.1113H309.064L309.489 69.6603Z" fill="#E0E0E0"/>
<path opacity="0.5" d="M309.489 80.422H200.011L199.586 73.873H309.064L309.489 80.422Z" fill="#E0E0E0"/>
<path opacity="0.5" d="M309.489 91.1896H200.011L199.586 84.6406H309.064L309.489 91.1896Z" fill="#E0E0E0"/>
<path opacity="0.5" d="M309.489 101.959H200.011L199.586 95.4102H309.064L309.489 101.959Z" fill="#E0E0E0"/>
<path opacity="0.5" d="M309.489 112.727H200.011L199.586 106.178H309.064L309.489 112.727Z" fill="#E0E0E0"/>
<path opacity="0.5" d="M309.489 123.496H200.011L199.586 116.939H309.064L309.489 123.496Z" fill="#E0E0E0"/>
<path d="M70.2343 93.8516H85.0953C86.98 93.8516 88.5078 92.3237 88.5078 90.439V84.7325C88.5078 82.8478 86.98 81.32 85.0953 81.32H70.2343C68.3496 81.32 66.8218 82.8478 66.8218 84.7325V90.439C66.8218 92.3237 68.3496 93.8516 70.2343 93.8516Z" fill="#F5F5F5"/>
<path d="M70.2343 81.3125H85.0953C86.98 81.3125 88.5078 79.7846 88.5078 77.8999V72.1935C88.5078 70.3088 86.98 68.7809 85.0953 68.7809H70.2343C68.3496 68.7809 66.8218 70.3088 66.8218 72.1935V77.8999C66.8218 79.7846 68.3496 81.3125 70.2343 81.3125Z" fill="#F5F5F5"/>
<path d="M75.0904 68.7812H80.2376C80.8906 68.7812 81.4199 68.2519 81.4199 67.5989V65.6236C81.4199 64.9706 80.8906 64.4412 80.2376 64.4412H75.0904C74.4374 64.4412 73.908 64.9706 73.908 65.6236V67.5989C73.908 68.2519 74.4374 68.7812 75.0904 68.7812Z" fill="#E0E0E0"/>
<path d="M70.2343 106.377H85.0953C86.98 106.377 88.5078 104.849 88.5078 102.964V97.2579C88.5078 95.3732 86.98 93.8454 85.0953 93.8454H70.2343C68.3496 93.8454 66.8218 95.3732 66.8218 97.2579V102.964C66.8218 104.849 68.3496 106.377 70.2343 106.377Z" fill="#F5F5F5"/>
<path d="M149.048 97.7031C149.048 97.7031 148.34 106.412 120.806 106.412C93.2717 106.412 92.5566 97.7031 92.5566 97.7031H149.048Z" fill="#F0F0F0"/>
<path d="M64.5979 108.146H42.7773V262.653H64.5979V108.146Z" fill="#F0F0F0"/>
<path d="M154.563 262.652H46.9609V270.738H154.563V262.652Z" fill="#F0F0F0"/>
<path d="M64.597 262.646H158.754L158.754 108.14H64.597L64.597 262.646Z" fill="#F5F5F5"/>
<path d="M73.1717 199.506H150.174V163.044H73.1717V199.506Z" fill="#F0F0F0"/>
<path d="M73.1717 244.104H150.174V207.642H73.1717V244.104Z" fill="#F0F0F0"/>
<path d="M73.1717 257.252H150.174V251.694H73.1717V257.252Z" fill="#F0F0F0"/>
<path d="M131.242 165.934H92.1035C91.2929 165.932 90.516 165.61 89.9428 165.036C89.3696 164.463 89.0468 163.686 89.0449 162.876C89.0487 162.066 89.3723 161.291 89.9453 160.72C90.5183 160.148 91.2941 159.826 92.1035 159.824H131.242C132.051 159.826 132.827 160.148 133.4 160.72C133.973 161.291 134.297 162.066 134.3 162.876C134.298 163.686 133.976 164.463 133.402 165.036C132.829 165.61 132.052 165.932 131.242 165.934Z" fill="#F5F5F5"/>
<path d="M73.1717 154.916H150.174V118.454H73.1717V154.916Z" fill="#F0F0F0"/>
<path d="M131.242 121.344H92.1035C91.2929 121.342 90.516 121.019 89.9428 120.446C89.3696 119.873 89.0468 119.096 89.0449 118.285C89.0468 117.475 89.3696 116.698 89.9428 116.124C90.516 115.551 91.2929 115.228 92.1035 115.227H131.242C132.052 115.228 132.829 115.551 133.402 116.124C133.976 116.698 134.298 117.475 134.3 118.285C134.298 119.096 133.976 119.873 133.402 120.446C132.829 121.019 132.052 121.342 131.242 121.344Z" fill="#F5F5F5"/>
<path d="M131.242 210.531H92.1035C91.2929 210.529 90.516 210.206 89.9428 209.633C89.3696 209.06 89.0468 208.283 89.0449 207.473C89.0468 206.662 89.3696 205.885 89.9428 205.312C90.516 204.739 91.2929 204.416 92.1035 204.414H131.242C132.052 204.416 132.829 204.739 133.402 205.312C133.976 205.885 134.298 206.662 134.3 207.473C134.298 208.283 133.976 209.06 133.402 209.633C132.829 210.206 132.052 210.529 131.242 210.531Z" fill="#F5F5F5"/>
<path d="M161.659 106.383H64.5918V108.146H161.659V106.383Z" fill="#F0F0F0"/>
<path d="M39.7327 108.146H64.5977V106.384H39.7327V108.146Z" fill="#E6E6E6"/>
<path d="M177.001 302.713C252.815 302.713 314.275 299.124 314.275 294.698C314.275 290.272 252.815 286.684 177.001 286.684C101.186 286.684 39.7266 290.272 39.7266 294.698C39.7266 299.124 101.186 302.713 177.001 302.713Z" fill="#F5F5F5"/>
<path d="M312.979 224.513H41.0224L36.0098 219.77H317.992L312.979 224.513Z" fill="#EDA145"/>
<path opacity="0.5" d="M312.979 224.513H41.0224L36.0098 219.77H317.992L312.979 224.513Z" fill="white"/>
<path d="M289.657 227.07H64.3435L60.1875 224.514H293.813L289.657 227.07Z" fill="#EDA145"/>
<path opacity="0.5" d="M289.657 227.07H64.3435L60.1875 224.514H293.813L289.657 227.07Z" fill="black"/>
<path d="M62.5598 294.697H59.3242L69.3566 227.068H76.5711L62.5598 294.697Z" fill="#EDA145"/>
<path opacity="0.5" d="M62.5598 294.697H59.3242L69.3566 227.068H76.5711L62.5598 294.697Z" fill="black"/>
<path d="M80.0761 294.697H76.8477L86.88 227.068H94.0945L80.0761 294.697Z" fill="#EDA145"/>
<path opacity="0.5" d="M80.0761 294.697H76.8477L86.88 227.068H94.0945L80.0761 294.697Z" fill="black"/>
<path d="M291.443 294.697H294.679L284.646 227.068H277.432L291.443 294.697Z" fill="#EDA145"/>
<path opacity="0.5" d="M291.443 294.697H294.679L284.646 227.068H277.432L291.443 294.697Z" fill="black"/>
<path d="M273.927 294.697H277.155L267.123 227.068H259.908L273.927 294.697Z" fill="#EDA145"/>
<path opacity="0.5" d="M273.927 294.697H277.155L267.123 227.068H259.908L273.927 294.697Z" fill="black"/>
<path d="M158.789 67.359L167.93 67.975C168.284 67.9969 168.626 68.1153 168.918 68.3175C169.21 68.5197 169.441 68.7979 169.586 69.122L170.549 71.246C170.758 71.7046 171.136 72.0648 171.604 72.2513C172.751 72.7225 173.863 73.2738 174.932 73.901C175.359 74.1519 175.864 74.2327 176.348 74.1275L178.642 73.5894C178.987 73.5097 179.348 73.5248 179.686 73.6333C180.024 73.7417 180.326 73.9394 180.56 74.2054L186.593 81.1013C186.827 81.3696 186.983 81.6965 187.046 82.047C187.108 82.3974 187.074 82.7583 186.947 83.0908L186.111 85.2856C185.935 85.7582 185.948 86.2806 186.147 86.7441C186.625 87.8949 187.023 89.0778 187.336 90.2841C187.457 90.7728 187.765 91.1946 188.193 91.4594L190.189 92.6984C190.491 92.8847 190.737 93.15 190.899 93.4657C191.061 93.7814 191.134 94.1355 191.11 94.4896L190.501 103.637C190.478 103.991 190.358 104.332 190.155 104.623C189.951 104.914 189.672 105.144 189.347 105.287L187.223 106.249C186.767 106.462 186.408 106.839 186.217 107.304C185.751 108.452 185.202 109.564 184.575 110.632C184.322 111.058 184.241 111.564 184.348 112.048L184.879 114.335C184.961 114.68 184.947 115.042 184.839 115.38C184.73 115.718 184.531 116.02 184.263 116.254L177.367 122.286C177.101 122.52 176.775 122.676 176.426 122.739C176.076 122.801 175.716 122.767 175.385 122.64L173.183 121.804C172.717 121.62 172.198 121.62 171.732 121.804C170.58 122.281 169.397 122.678 168.192 122.994C167.704 123.117 167.283 123.424 167.016 123.85L165.777 125.847C165.589 126.149 165.323 126.394 165.006 126.556C164.689 126.719 164.334 126.792 163.979 126.767L154.839 126.158C154.485 126.135 154.144 126.016 153.852 125.814C153.56 125.612 153.329 125.335 153.182 125.011L152.219 122.887C152.01 122.429 151.632 122.069 151.164 121.882C150.018 121.411 148.906 120.86 147.837 120.232C147.41 119.981 146.904 119.9 146.421 120.006L144.134 120.544C143.788 120.625 143.427 120.611 143.089 120.502C142.751 120.394 142.449 120.195 142.215 119.928L136.176 113.032C135.943 112.763 135.788 112.436 135.725 112.086C135.663 111.736 135.696 111.375 135.822 111.043L136.657 108.848C136.834 108.378 136.821 107.857 136.622 107.396C136.145 106.245 135.747 105.062 135.433 103.856C135.312 103.368 135.004 102.946 134.576 102.681L132.579 101.442C132.277 101.256 132.032 100.99 131.87 100.675C131.707 100.359 131.634 100.005 131.659 99.6509L132.268 90.5036C132.293 90.1489 132.413 89.8076 132.616 89.5159C132.819 89.2243 133.098 88.993 133.422 88.8468L135.546 87.891C136.004 87.6822 136.365 87.3042 136.551 86.8361C137.022 85.6873 137.574 84.573 138.201 83.5014C138.453 83.0754 138.537 82.57 138.434 82.0854L137.896 79.7986C137.815 79.453 137.829 79.0918 137.938 78.7537C138.046 78.4157 138.245 78.1136 138.512 77.8799L145.408 71.8478C145.675 71.6132 146 71.4556 146.349 71.392C146.699 71.3284 147.059 71.3611 147.391 71.4867L149.593 72.3221C150.058 72.5099 150.578 72.5099 151.044 72.3221C152.194 71.8424 153.377 71.445 154.584 71.1327C155.069 71.0074 155.488 70.7041 155.759 70.2831L156.998 68.2865C157.185 67.9847 157.451 67.7392 157.766 67.5759C158.081 67.4126 158.435 67.3377 158.789 67.359ZM144.098 95.941C143.869 99.363 144.66 102.776 146.371 105.749C148.082 108.721 150.636 111.119 153.71 112.64C156.784 114.161 160.24 114.736 163.641 114.293C167.042 113.849 170.235 112.407 172.816 110.149C175.397 107.891 177.25 104.917 178.142 101.606C179.033 98.2938 178.922 94.7921 177.823 91.5433C176.724 88.2945 174.686 85.4445 171.968 83.354C169.249 81.2634 165.971 80.0261 162.549 79.7986C157.962 79.4955 153.443 81.0253 149.984 84.052C146.524 87.0787 144.407 91.3548 144.098 95.941Z" fill="#EDA145"/>
<path d="M195.018 106.001L198.155 104.939C198.321 104.885 198.498 104.876 198.669 104.913C198.839 104.951 198.997 105.033 199.125 105.152L199.641 105.647C199.823 105.81 200.057 105.9 200.3 105.902C200.731 105.902 201.161 105.93 201.588 105.987C201.712 106.007 201.838 106.003 201.96 105.974C202.081 105.944 202.196 105.891 202.296 105.817L202.877 105.4C203.02 105.299 203.188 105.239 203.362 105.225C203.536 105.211 203.711 105.245 203.868 105.322L206.835 106.794C206.991 106.871 207.123 106.988 207.218 107.134C207.313 107.28 207.366 107.449 207.373 107.623V108.331C207.382 108.576 207.483 108.808 207.656 108.982C207.961 109.285 208.245 109.609 208.506 109.952C208.654 110.145 208.868 110.276 209.107 110.32L209.815 110.434C209.987 110.462 210.148 110.537 210.28 110.651C210.413 110.765 210.511 110.912 210.566 111.078L211.628 114.214C211.686 114.379 211.697 114.557 211.661 114.728C211.625 114.899 211.542 115.057 211.423 115.184L210.927 115.701C210.763 115.881 210.673 116.116 210.672 116.359C210.672 116.79 210.644 117.221 210.587 117.648C210.566 117.771 210.57 117.897 210.598 118.018C210.626 118.14 210.678 118.255 210.75 118.356L211.168 118.937C211.271 119.077 211.333 119.243 211.348 119.417C211.363 119.59 211.33 119.765 211.253 119.921L209.78 122.894C209.703 123.05 209.586 123.183 209.44 123.278C209.294 123.372 209.125 123.426 208.952 123.432H208.244C208 123.44 207.769 123.541 207.599 123.716C207.291 124.015 206.967 124.299 206.629 124.565C206.437 124.713 206.305 124.928 206.261 125.167L206.148 125.875C206.119 126.047 206.044 126.208 205.93 126.34C205.817 126.472 205.669 126.571 205.504 126.625L202.367 127.687C202.202 127.744 202.024 127.755 201.852 127.717C201.681 127.68 201.524 127.596 201.397 127.475L200.873 126.987C200.696 126.819 200.459 126.727 200.215 126.732C199.786 126.732 199.358 126.703 198.933 126.647C198.811 126.626 198.685 126.629 198.563 126.657C198.442 126.685 198.327 126.737 198.225 126.81L197.645 127.227C197.503 127.33 197.336 127.393 197.161 127.408C196.986 127.423 196.811 127.39 196.654 127.312L193.687 125.84C193.53 125.762 193.397 125.644 193.302 125.497C193.207 125.349 193.154 125.179 193.149 125.004V124.296C193.138 124.054 193.037 123.824 192.866 123.652C192.562 123.347 192.278 123.023 192.016 122.682C191.945 122.584 191.855 122.501 191.752 122.438C191.649 122.375 191.534 122.333 191.414 122.314L190.706 122.2C190.535 122.169 190.374 122.093 190.241 121.98C190.108 121.867 190.007 121.721 189.949 121.556L188.887 118.413C188.832 118.248 188.823 118.071 188.86 117.902C188.898 117.732 188.98 117.576 189.099 117.45L189.595 116.933C189.759 116.75 189.85 116.513 189.85 116.267C189.85 115.837 189.878 115.406 189.935 114.979C189.974 114.73 189.913 114.475 189.765 114.271L189.354 113.69C189.251 113.55 189.188 113.384 189.174 113.21C189.159 113.037 189.192 112.862 189.269 112.706L190.742 109.733C190.818 109.576 190.935 109.444 191.081 109.35C191.227 109.257 191.397 109.205 191.57 109.202H192.278C192.523 109.192 192.756 109.091 192.93 108.918C193.234 108.615 193.558 108.331 193.9 108.069C194.092 107.921 194.224 107.706 194.268 107.467L194.381 106.759C194.408 106.587 194.482 106.425 194.594 106.291C194.706 106.158 194.853 106.058 195.018 106.001ZM196.894 117.457C197.12 118.119 197.536 118.7 198.091 119.126C198.647 119.551 199.315 119.803 200.014 119.849C200.712 119.895 201.408 119.733 202.014 119.383C202.62 119.034 203.109 118.513 203.419 117.886C203.729 117.259 203.846 116.554 203.756 115.86C203.666 115.166 203.372 114.515 202.912 113.988C202.452 113.461 201.846 113.082 201.17 112.899C200.495 112.717 199.781 112.738 199.117 112.961C198.676 113.11 198.268 113.344 197.917 113.65C197.566 113.957 197.279 114.33 197.072 114.747C196.866 115.165 196.744 115.619 196.713 116.084C196.683 116.549 196.744 117.016 196.894 117.457Z" fill="#EDA145"/>
<path opacity="0.5" d="M195.018 106.001L198.155 104.939C198.321 104.885 198.498 104.876 198.669 104.913C198.839 104.951 198.997 105.033 199.125 105.152L199.641 105.647C199.823 105.81 200.057 105.9 200.3 105.902C200.731 105.902 201.161 105.93 201.588 105.987C201.712 106.007 201.838 106.003 201.96 105.974C202.081 105.944 202.196 105.891 202.296 105.817L202.877 105.4C203.02 105.299 203.188 105.239 203.362 105.225C203.536 105.211 203.711 105.245 203.868 105.322L206.835 106.794C206.991 106.871 207.123 106.988 207.218 107.134C207.313 107.28 207.366 107.449 207.373 107.623V108.331C207.382 108.576 207.483 108.808 207.656 108.982C207.961 109.285 208.245 109.609 208.506 109.952C208.654 110.145 208.868 110.276 209.107 110.32L209.815 110.434C209.987 110.462 210.148 110.537 210.28 110.651C210.413 110.765 210.511 110.912 210.566 111.078L211.628 114.214C211.686 114.379 211.697 114.557 211.661 114.728C211.625 114.899 211.542 115.057 211.423 115.184L210.927 115.701C210.763 115.881 210.673 116.116 210.672 116.359C210.672 116.79 210.644 117.221 210.587 117.648C210.566 117.771 210.57 117.897 210.598 118.018C210.626 118.14 210.678 118.255 210.75 118.356L211.168 118.937C211.271 119.077 211.333 119.243 211.348 119.417C211.363 119.59 211.33 119.765 211.253 119.921L209.78 122.894C209.703 123.05 209.586 123.183 209.44 123.278C209.294 123.372 209.125 123.426 208.952 123.432H208.244C208 123.44 207.769 123.541 207.599 123.716C207.291 124.015 206.967 124.299 206.629 124.565C206.437 124.713 206.305 124.928 206.261 125.167L206.148 125.875C206.119 126.047 206.044 126.208 205.93 126.34C205.817 126.472 205.669 126.571 205.504 126.625L202.367 127.687C202.202 127.744 202.024 127.755 201.852 127.717C201.681 127.68 201.524 127.596 201.397 127.475L200.873 126.987C200.696 126.819 200.459 126.727 200.215 126.732C199.786 126.732 199.358 126.703 198.933 126.647C198.811 126.626 198.685 126.629 198.563 126.657C198.442 126.685 198.327 126.737 198.225 126.81L197.645 127.227C197.503 127.33 197.336 127.393 197.161 127.408C196.986 127.423 196.811 127.39 196.654 127.312L193.687 125.84C193.53 125.762 193.397 125.644 193.302 125.497C193.207 125.349 193.154 125.179 193.149 125.004V124.296C193.138 124.054 193.037 123.824 192.866 123.652C192.562 123.347 192.278 123.023 192.016 122.682C191.945 122.584 191.855 122.501 191.752 122.438C191.649 122.375 191.534 122.333 191.414 122.314L190.706 122.2C190.535 122.169 190.374 122.093 190.241 121.98C190.108 121.867 190.007 121.721 189.949 121.556L188.887 118.413C188.832 118.248 188.823 118.071 188.86 117.902C188.898 117.732 188.98 117.576 189.099 117.45L189.595 116.933C189.759 116.75 189.85 116.513 189.85 116.267C189.85 115.837 189.878 115.406 189.935 114.979C189.974 114.73 189.913 114.475 189.765 114.271L189.354 113.69C189.251 113.55 189.188 113.384 189.174 113.21C189.159 113.037 189.192 112.862 189.269 112.706L190.742 109.733C190.818 109.576 190.935 109.444 191.081 109.35C191.227 109.257 191.397 109.205 191.57 109.202H192.278C192.523 109.192 192.756 109.091 192.93 108.918C193.234 108.615 193.558 108.331 193.9 108.069C194.092 107.921 194.224 107.706 194.268 107.467L194.381 106.759C194.408 106.587 194.482 106.425 194.594 106.291C194.706 106.158 194.853 106.058 195.018 106.001ZM196.894 117.457C197.12 118.119 197.536 118.7 198.091 119.126C198.647 119.551 199.315 119.803 200.014 119.849C200.712 119.895 201.408 119.733 202.014 119.383C202.62 119.034 203.109 118.513 203.419 117.886C203.729 117.259 203.846 116.554 203.756 115.86C203.666 115.166 203.372 114.515 202.912 113.988C202.452 113.461 201.846 113.082 201.17 112.899C200.495 112.717 199.781 112.738 199.117 112.961C198.676 113.11 198.268 113.344 197.917 113.65C197.566 113.957 197.279 114.33 197.072 114.747C196.866 115.165 196.744 115.619 196.713 116.084C196.683 116.549 196.744 117.016 196.894 117.457Z" fill="white"/>
<path d="M176.929 139.999L180.823 133.252C180.967 133.001 181.043 132.717 181.044 132.427C181.044 132.138 180.969 131.853 180.826 131.601C180.683 131.35 180.477 131.14 180.228 130.992C179.979 130.845 179.696 130.764 179.407 130.76H171.619C171.328 130.762 171.044 130.841 170.794 130.988C170.543 131.135 170.336 131.346 170.193 131.598C170.049 131.85 169.975 132.136 169.977 132.426C169.978 132.717 170.056 133.001 170.203 133.252L174.097 139.999C174.246 140.241 174.454 140.44 174.702 140.578C174.95 140.717 175.229 140.789 175.513 140.789C175.796 140.789 176.076 140.717 176.323 140.578C176.571 140.44 176.78 140.241 176.929 139.999Z" fill="#EDA145"/>
<path d="M49.3406 216.945H144.786C145.114 216.946 145.438 216.881 145.74 216.754C146.042 216.627 146.316 216.44 146.544 216.205C146.772 215.969 146.95 215.69 147.068 215.385C147.185 215.079 147.24 214.752 147.229 214.425L144.97 146.188C144.939 145.513 144.652 144.875 144.166 144.405C143.68 143.935 143.033 143.669 142.358 143.66H46.9192C46.5906 143.658 46.265 143.723 45.962 143.85C45.6591 143.977 45.3851 144.165 45.1568 144.401C44.9284 144.637 44.7504 144.918 44.6335 145.225C44.5166 145.532 44.4632 145.859 44.4766 146.188L46.7281 214.425C46.7554 215.1 47.0422 215.739 47.5289 216.209C48.0155 216.678 48.6644 216.942 49.3406 216.945Z" fill="#EDA145"/>
<path d="M50.1196 216.945H145.565C145.893 216.946 146.217 216.881 146.519 216.754C146.821 216.627 147.095 216.44 147.323 216.205C147.551 215.969 147.729 215.69 147.847 215.385C147.964 215.079 148.019 214.752 148.008 214.425L145.749 146.188C145.718 145.513 145.431 144.875 144.945 144.405C144.459 143.935 143.812 143.669 143.137 143.66H47.6983C47.3699 143.659 47.0447 143.724 46.7423 143.852C46.4398 143.98 46.1662 144.167 45.9381 144.403C45.7099 144.639 45.5318 144.919 45.4146 145.226C45.2973 145.532 45.2432 145.86 45.2556 146.188L47.5142 214.425C47.5414 215.099 47.8273 215.737 48.3124 216.207C48.7975 216.676 49.4447 216.94 50.1196 216.945Z" fill="#EDA145"/>
<g opacity="0.6">
<path d="M50.1196 216.945H145.565C145.893 216.946 146.217 216.881 146.519 216.754C146.821 216.627 147.095 216.44 147.323 216.205C147.551 215.969 147.729 215.69 147.847 215.385C147.964 215.079 148.019 214.752 148.008 214.425L145.749 146.188C145.718 145.513 145.431 144.875 144.945 144.405C144.459 143.935 143.812 143.669 143.137 143.66H47.6983C47.3699 143.659 47.0447 143.724 46.7423 143.852C46.4398 143.98 46.1662 144.167 45.9381 144.403C45.7099 144.639 45.5318 144.919 45.4146 145.226C45.2973 145.532 45.2432 145.86 45.2556 146.188L47.5142 214.425C47.5414 215.099 47.8273 215.737 48.3124 216.207C48.7975 216.676 49.4447 216.94 50.1196 216.945Z" fill="#263238"/>
</g>
<path d="M51.3519 216.826H166.621C167.188 216.826 167.744 216.985 168.224 217.286C168.705 217.586 169.092 218.016 169.34 218.525C169.404 218.659 169.432 218.806 169.423 218.953C169.415 219.101 169.368 219.244 169.289 219.368C169.21 219.493 169.1 219.595 168.97 219.666C168.84 219.736 168.695 219.773 168.547 219.771H49.4261C49.2778 219.774 49.1313 219.738 49.0006 219.668C48.8699 219.598 48.7592 219.496 48.6791 219.371C48.5989 219.246 48.552 219.103 48.5427 218.955C48.5334 218.807 48.5621 218.659 48.6261 218.525C48.8755 218.015 49.2633 217.585 49.7453 217.285C50.2272 216.984 50.7839 216.826 51.3519 216.826Z" fill="#EDA145"/>
<path opacity="0.6" d="M166.62 216.826H74.637C74.0691 216.826 73.5124 216.984 73.0305 217.285C72.5485 217.585 72.1607 218.015 71.9112 218.525C71.8473 218.659 71.8186 218.807 71.8279 218.955C71.8371 219.103 71.8841 219.246 71.9642 219.371C72.0443 219.496 72.155 219.598 72.2858 219.668C72.4165 219.738 72.563 219.774 72.7113 219.771H168.546C168.694 219.773 168.839 219.736 168.969 219.666C169.099 219.595 169.209 219.493 169.288 219.368C169.367 219.244 169.414 219.101 169.423 218.953C169.431 218.806 169.403 218.659 169.339 218.525C169.091 218.016 168.704 217.586 168.224 217.286C167.743 216.985 167.187 216.826 166.62 216.826Z" fill="#263238"/>
<path opacity="0.3" d="M111.637 218.695H135.567C135.851 218.697 136.123 218.811 136.323 219.013C136.524 219.215 136.636 219.487 136.636 219.771H110.561C110.561 219.486 110.674 219.212 110.876 219.011C111.078 218.809 111.351 218.695 111.637 218.695Z" fill="white"/>
<path opacity="0.9" d="M145.728 211.955L143.604 148.66C143.591 148.397 143.479 148.149 143.289 147.966C143.1 147.783 142.848 147.679 142.584 147.676H48.4841C48.3543 147.675 48.2256 147.7 48.1062 147.751C47.9867 147.802 47.8791 147.877 47.79 147.971C47.7009 148.066 47.6323 148.177 47.5885 148.3C47.5447 148.422 47.5266 148.552 47.5354 148.681L49.6594 211.976C49.6685 212.239 49.779 212.489 49.9677 212.672C50.1564 212.855 50.4087 212.959 50.6718 212.961H144.836C144.96 212.953 145.082 212.922 145.195 212.867C145.307 212.813 145.408 212.736 145.491 212.643C145.573 212.55 145.637 212.441 145.678 212.323C145.719 212.205 145.736 212.08 145.728 211.955Z" fill="white"/>
<path d="M68.1515 212.939H55.1738L70.1339 147.676H83.1115L68.1515 212.939Z" fill="white"/>
<path d="M76.4209 212.939H71.748L86.7081 147.676H91.3809L76.4209 212.939Z" fill="white"/>
<path d="M124.161 212.939H119.488L134.448 147.676H139.114L124.161 212.939Z" fill="white"/>
<path opacity="0.4" d="M94.7441 145.778C94.7616 145.97 94.8494 146.148 94.9906 146.279C95.1318 146.41 95.3164 146.484 95.5088 146.486C95.6965 146.486 95.8766 146.412 96.0094 146.279C96.1422 146.146 96.2168 145.966 96.2168 145.778C96.2024 145.585 96.1156 145.405 95.9737 145.274C95.8319 145.143 95.6455 145.07 95.4521 145.07C95.2644 145.07 95.0843 145.145 94.9515 145.278C94.8187 145.41 94.7441 145.591 94.7441 145.778Z" fill="white"/>
<path d="M125.132 138.811C126.385 140.821 127.737 142.952 129.089 145.006C130.442 147.059 131.829 149.112 133.245 151.123C135.993 155.118 138.964 158.954 142.145 162.614C143.639 164.322 145.26 165.915 146.995 167.378L147.603 167.86C147.736 167.974 147.876 168.08 148.021 168.178C148.388 168.42 148.769 168.639 149.161 168.837C150.117 169.302 151.106 169.695 152.12 170.012C153.19 170.373 154.315 170.72 155.462 170.982C156.609 171.244 157.792 171.548 159.002 171.796C161.374 172.299 163.852 172.759 166.238 173.17V178.126C164.879 178.324 163.604 178.423 162.28 178.515C160.956 178.607 159.646 178.643 158.315 178.65C155.598 178.659 152.884 178.444 150.202 178.005C148.749 177.753 147.318 177.393 145.918 176.929C145.135 176.66 144.373 176.334 143.639 175.952C143.249 175.768 142.839 175.506 142.442 175.244L141.529 174.607C139.275 172.951 137.167 171.106 135.228 169.092C131.575 165.279 128.194 161.215 125.11 156.928C123.576 154.828 122.099 152.704 120.678 150.556C119.262 148.376 117.846 146.237 116.529 143.915L125.132 138.811Z" fill="#FFC3BD"/>
<path d="M113.216 140.184C112.508 146.4 127.326 161.254 127.326 161.254L137.352 152.885C134.414 147.914 131.162 143.135 127.617 138.577C121.917 131.518 113.988 133.153 113.216 140.184Z" fill="#EDA145"/>
<path opacity="0.3" d="M121.315 144.595C117.358 140.347 115.467 139.25 113.188 140.942C113.492 147.505 127.347 161.24 127.347 161.24C128.254 154.195 124.664 149.664 121.315 144.595Z" fill="black"/>
<path d="M136.538 150.018L137.593 153.076L126.378 162.28L124.162 159.979L136.538 150.018Z" fill="#EDA145"/>
<path opacity="0.3" d="M136.538 150.018L137.593 153.076L126.378 162.28L124.162 159.979L136.538 150.018Z" fill="#263238"/>
<path d="M165.707 173.07L173.495 174.408L169.212 181.248C168.192 181.411 164.128 179.209 162.33 176.476L165.707 173.07Z" fill="#FFC3BD"/>
<path d="M178.275 179.024L175.166 182.55L169.205 181.212L173.481 174.408L178.275 179.024Z" fill="#FFC3BD"/>
<path d="M121.28 134.229C121.28 134.229 129.776 154.209 123.659 191.422H88.2592C87.8274 185.991 90.3195 159.491 84.1953 133.889C88.0924 133.133 92.0351 132.634 95.9977 132.396C101.008 132.105 106.032 132.105 111.043 132.396C114.497 132.742 117.92 133.355 121.28 134.229Z" fill="#EDA145"/>
<path opacity="0.3" d="M92.1032 140.184C92.8112 144.432 91.8625 154.471 88.2517 166.125C87.975 156.129 86.8117 146.178 84.7754 136.389V136.339C87.0835 136.148 91.4023 136.261 92.1032 140.184Z" fill="black"/>
<path d="M96.8972 115.453C98.0158 120.296 99.269 129.167 95.998 132.396C95.998 132.396 97.414 136.403 106.406 136.403C116.318 136.403 111.043 132.396 111.043 132.396C105.599 131.107 105.599 127.1 106.406 123.34L96.8972 115.453Z" fill="#FFC3BD"/>
<path d="M107.015 136.778L109.139 139.022C109.204 139.089 109.246 139.173 109.261 139.264C109.277 139.355 109.264 139.449 109.224 139.532L108.162 141.748C108.128 141.824 108.073 141.888 108.005 141.935C107.936 141.981 107.856 142.007 107.773 142.01L106.166 142.088C106.089 142.091 106.013 142.075 105.945 142.04C105.877 142.005 105.819 141.953 105.776 141.89L104.289 139.766C104.23 139.686 104.197 139.589 104.197 139.49C104.197 139.39 104.23 139.293 104.289 139.214L106.328 136.799C106.369 136.747 106.42 136.705 106.478 136.675C106.537 136.646 106.601 136.629 106.667 136.627C106.732 136.625 106.798 136.638 106.858 136.664C106.918 136.69 106.972 136.729 107.015 136.778Z" fill="white"/>
<path d="M106.668 136.404C105.646 138.048 105.054 139.923 104.947 141.855C104.947 141.855 93.4564 137.926 93.9803 132.177C95.0008 131.682 95.9829 131.112 96.9185 130.471C96.9185 130.471 97.2937 134.103 106.668 136.404Z" fill="#263238"/>
<path d="M106.668 136.403C107.69 137.962 108.426 139.691 108.842 141.508C108.842 141.508 114.166 137.862 112.651 132.177L109.521 131.504C109.521 131.504 110.18 135.171 106.668 136.403Z" fill="#263238"/>
<path d="M107.969 141.77C108.677 144.12 114.016 161.551 114.15 165.721C114.154 165.757 114.154 165.792 114.15 165.828C113.655 168.072 111.431 172.008 110.525 173.552C110.49 173.613 110.439 173.663 110.377 173.696C110.316 173.729 110.246 173.745 110.176 173.74C110.106 173.736 110.038 173.712 109.981 173.671C109.924 173.63 109.879 173.574 109.853 173.509C109.23 171.987 107.729 168.341 106.737 166.21C106.719 166.17 106.707 166.127 106.702 166.082C106.235 158.471 106.107 146.634 105.874 141.904C105.871 141.853 105.878 141.802 105.896 141.754C105.913 141.706 105.941 141.662 105.976 141.625C106.011 141.588 106.053 141.558 106.1 141.538C106.147 141.518 106.198 141.508 106.249 141.508H107.615C107.694 141.509 107.771 141.534 107.835 141.581C107.898 141.628 107.945 141.694 107.969 141.77Z" fill="white"/>
<path opacity="0.2" d="M100.778 118.668L106.406 123.334C106.202 124.211 106.077 125.104 106.031 126.003C103.957 125.705 101.075 123.447 100.756 121.288C100.6 120.421 100.608 119.532 100.778 118.668Z" fill="black"/>
<path d="M110.76 101.06C112.098 102.058 114.385 106.278 111.468 107.382C108.551 108.487 107.482 98.6103 110.76 101.06Z" fill="#263238"/>
<path d="M95.1561 109.647C96.4942 116.097 96.9545 119.928 100.728 122.894C101.944 123.873 103.405 124.501 104.952 124.71C106.499 124.919 108.074 124.7 109.506 124.078C110.939 123.456 112.173 122.455 113.077 121.181C113.981 119.908 114.519 118.412 114.633 116.855C115.185 110.872 112.892 101.336 106.137 99.4523C104.686 99.0076 103.144 98.9521 101.664 99.2914C100.185 99.6307 98.821 100.353 97.7088 101.386C96.5966 102.418 95.7753 103.725 95.3273 105.175C94.8793 106.625 94.8202 108.167 95.1561 109.647Z" fill="#FFC3BD"/>
<path d="M95.9978 114.505L98.7023 112.7L98.8793 111.128C99.1278 108.849 98.7019 106.547 97.6545 104.508C97.6545 104.508 110.802 104.997 112.43 100.883C114.059 96.7697 109.429 93.6758 109.429 93.6758C109.429 93.6758 104.777 96.3449 101.641 96.5573C98.5041 96.7697 88.8965 92.8474 88.8965 100.968C84.6485 102.278 84.7901 109.266 95.9765 114.505" fill="#263238"/>
<path d="M89.37 101.286C89.37 101.286 87.6283 99.9052 88.924 95.6855C87.331 96.4785 86.5663 100.79 89.37 101.286Z" fill="#263238"/>
<path d="M93.25 117.132C94.321 118.413 95.8405 119.236 97.498 119.433C99.6928 119.667 100.33 117.642 99.3813 115.78C98.5034 114.109 96.3086 111.971 94.2837 112.601C92.2588 113.231 91.9402 115.539 93.25 117.132Z" fill="#FFC3BD"/>
<path d="M126.647 212.938H104.027C101.995 200.661 100.359 191.422 100.359 191.422H123.66C123.66 191.422 124.969 200.506 126.647 212.938Z" fill="#263238"/>
<path d="M89.1225 212.938C88.6128 200.661 88.2305 191.422 88.2305 191.422H111.071C111.071 191.422 111.184 200.775 111.233 212.938H89.1225Z" fill="#263238"/>
<path d="M105.301 110.378C105.379 110.909 105.719 111.306 106.066 111.27C106.412 111.235 106.632 110.768 106.554 110.244C106.476 109.72 106.136 109.316 105.789 109.352C105.442 109.387 105.223 109.847 105.301 110.378Z" fill="#263238"/>
<path d="M111.297 109.74C111.375 110.271 111.715 110.667 112.062 110.625C112.409 110.582 112.628 110.129 112.55 109.605C112.472 109.081 112.132 108.678 111.785 108.713C111.439 108.749 111.219 109.187 111.297 109.74Z" fill="#263238"/>
<path d="M109.428 110.193C110.297 111.744 111.368 113.173 112.614 114.441C111.807 115.418 110.15 115.192 110.15 115.192L109.428 110.193Z" fill="#ED847E"/>
<path d="M107.716 116.821C108.081 116.859 108.449 116.859 108.813 116.821C108.834 116.819 108.854 116.813 108.872 116.804C108.89 116.794 108.906 116.781 108.92 116.765C108.933 116.749 108.943 116.731 108.949 116.712C108.955 116.692 108.957 116.671 108.955 116.651C108.95 116.609 108.928 116.571 108.895 116.544C108.862 116.518 108.82 116.505 108.778 116.509C108.111 116.594 107.433 116.524 106.798 116.306C106.162 116.087 105.585 115.726 105.111 115.249C105.097 115.233 105.081 115.22 105.062 115.211C105.044 115.201 105.023 115.195 105.003 115.194C104.982 115.192 104.961 115.195 104.941 115.201C104.922 115.207 104.903 115.218 104.888 115.231C104.872 115.245 104.859 115.261 104.849 115.28C104.84 115.298 104.834 115.318 104.833 115.339C104.831 115.36 104.833 115.381 104.84 115.4C104.846 115.42 104.856 115.438 104.87 115.454C105.626 116.234 106.635 116.719 107.716 116.821Z" fill="#263238"/>
<path d="M103.135 108.649C103.196 108.657 103.257 108.646 103.311 108.618C103.366 108.591 103.41 108.547 103.44 108.494C103.621 108.151 103.884 107.859 104.205 107.642C104.526 107.424 104.895 107.289 105.28 107.248C105.364 107.242 105.442 107.204 105.497 107.142C105.553 107.08 105.582 106.998 105.578 106.915C105.576 106.874 105.566 106.834 105.549 106.797C105.531 106.76 105.507 106.726 105.477 106.699C105.446 106.671 105.411 106.65 105.373 106.636C105.334 106.622 105.293 106.616 105.252 106.618C104.761 106.666 104.29 106.834 103.879 107.107C103.468 107.38 103.13 107.749 102.895 108.182C102.873 108.218 102.86 108.258 102.854 108.3C102.849 108.341 102.852 108.383 102.863 108.424C102.874 108.464 102.893 108.502 102.92 108.534C102.946 108.567 102.978 108.594 103.015 108.614C103.051 108.636 103.093 108.649 103.135 108.649Z" fill="#263238"/>
<path d="M113.541 107.383C113.617 107.389 113.692 107.369 113.754 107.326C113.821 107.279 113.867 107.208 113.883 107.127C113.899 107.047 113.883 106.963 113.839 106.894C113.57 106.469 113.205 106.112 112.773 105.853C112.342 105.593 111.856 105.438 111.354 105.4C111.272 105.4 111.193 105.432 111.133 105.489C111.074 105.545 111.039 105.623 111.035 105.705C111.035 105.788 111.068 105.868 111.126 105.928C111.184 105.987 111.263 106.022 111.347 106.023C111.746 106.061 112.132 106.191 112.473 106.402C112.815 106.613 113.103 106.9 113.315 107.241C113.341 107.279 113.374 107.311 113.413 107.336C113.452 107.36 113.496 107.376 113.541 107.383Z" fill="#263238"/>
<path d="M90.9571 143.837L89.3854 146.556C88.8567 147.5 88.3399 148.444 87.8349 149.388C86.8153 151.276 85.8383 153.178 84.9037 155.095C83.9833 157.013 83.1054 158.939 82.3195 160.879C81.9443 161.842 81.562 162.812 81.2363 163.782L80.7336 165.233L80.3159 166.649L80.2097 167.01L80.1531 167.194C80.1531 167.258 80.1531 167.194 80.1531 167.237C80.1531 167.279 80.1531 167.315 80.1035 167.392C80.0745 167.67 80.0745 167.95 80.1035 168.228C80.1922 169.07 80.3678 169.9 80.6274 170.706C81.2489 172.645 82.006 174.537 82.893 176.37C84.6843 180.214 86.8649 184.094 89.0101 187.882L85.0949 190.941C83.424 189.263 81.9231 187.556 80.4504 185.758C78.9778 183.96 77.6184 182.091 76.2803 180.094C74.9173 178.055 73.7329 175.901 72.7403 173.658C72.1745 172.379 71.7381 171.046 71.4376 169.679C71.2616 168.853 71.1714 168.011 71.1685 167.166C71.1628 166.659 71.2007 166.152 71.2818 165.651L71.3385 165.283L71.388 165.056L71.4801 164.596C71.9388 162.196 72.5609 159.831 73.3421 157.516C74.0926 155.236 74.9705 153.041 75.9051 150.875C76.8396 148.708 77.8662 146.627 78.9636 144.545C79.5159 143.519 80.0752 142.499 80.6628 141.48C81.2505 140.46 81.831 139.497 82.5319 138.414L90.9571 143.837Z" fill="#FFC3BD"/>
<path d="M84.2027 133.891C77.9723 134.804 71.5508 156.497 71.5508 156.497L84.9603 163.924C84.9603 163.924 90.3907 153.602 92.9819 145.941C95.6936 137.912 90.8792 132.914 84.2027 133.891Z" fill="#EDA145"/>
<path d="M71.8262 153.438L71.2598 156.624L85.0374 164.206L86.8712 161.58L71.8262 153.438Z" fill="#EDA145"/>
<path opacity="0.3" d="M71.8262 153.438L71.2598 156.624L85.0374 164.206L86.8712 161.58L71.8262 153.438Z" fill="#263238"/>
<path d="M87.2255 186.409L93.8099 185.262L90.4327 192.887C90.4327 192.887 84.4147 192.851 84.6909 189.75L87.2255 186.409Z" fill="#FFC3BD"/>
<path d="M98.7313 189.092L95.6303 195.252L90.4336 192.887L93.8108 185.262L98.7313 189.092Z" fill="#FFC3BD"/>
<path d="M304.661 216.945H209.216C208.888 216.946 208.563 216.881 208.261 216.754C207.959 216.627 207.686 216.44 207.458 216.205C207.23 215.969 207.052 215.69 206.934 215.385C206.816 215.079 206.762 214.752 206.773 214.425L209.031 146.188C209.062 145.513 209.35 144.875 209.836 144.405C210.321 143.935 210.968 143.669 211.644 143.66H307.082C307.411 143.658 307.737 143.723 308.04 143.85C308.343 143.977 308.616 144.165 308.845 144.401C309.073 144.637 309.251 144.918 309.368 145.225C309.485 145.532 309.538 145.859 309.525 146.188L307.274 214.425C307.246 215.1 306.959 215.739 306.473 216.209C305.986 216.678 305.337 216.942 304.661 216.945Z" fill="#EDA145"/>
<path opacity="0.6" d="M304.661 216.945H209.216C208.888 216.946 208.563 216.881 208.261 216.754C207.959 216.627 207.686 216.44 207.458 216.205C207.23 215.969 207.052 215.69 206.934 215.385C206.816 215.079 206.762 214.752 206.773 214.425L209.031 146.188C209.062 145.513 209.35 144.875 209.836 144.405C210.321 143.935 210.968 143.669 211.644 143.66H307.082C307.411 143.658 307.737 143.723 308.04 143.85C308.343 143.977 308.616 144.165 308.845 144.401C309.073 144.637 309.251 144.918 309.368 145.225C309.485 145.532 309.538 145.859 309.525 146.188L307.274 214.425C307.246 215.1 306.959 215.739 306.473 216.209C305.986 216.678 305.337 216.942 304.661 216.945Z" fill="#263238"/>
<path d="M303.882 216.945H208.436C208.109 216.946 207.784 216.881 207.482 216.754C207.18 216.627 206.907 216.44 206.679 216.205C206.451 215.969 206.272 215.69 206.155 215.385C206.037 215.079 205.982 214.752 205.994 214.425L208.252 146.188C208.283 145.513 208.571 144.875 209.056 144.405C209.542 143.935 210.189 143.669 210.865 143.66H306.303C306.631 143.659 306.957 143.724 307.259 143.852C307.562 143.98 307.835 144.167 308.063 144.403C308.291 144.639 308.469 144.919 308.587 145.226C308.704 145.532 308.758 145.86 308.746 146.188L306.487 214.425C306.46 215.099 306.174 215.737 305.689 216.207C305.204 216.676 304.557 216.94 303.882 216.945Z" fill="#EDA145"/>
<path d="M302.649 216.824H187.38C186.813 216.824 186.257 216.983 185.777 217.284C185.296 217.584 184.909 218.014 184.661 218.523C184.598 218.657 184.569 218.804 184.578 218.951C184.587 219.099 184.633 219.242 184.712 219.366C184.792 219.491 184.901 219.593 185.031 219.664C185.161 219.734 185.306 219.771 185.454 219.77H304.575C304.723 219.772 304.87 219.736 305.001 219.666C305.131 219.596 305.242 219.494 305.322 219.369C305.402 219.244 305.449 219.101 305.459 218.953C305.468 218.805 305.439 218.657 305.375 218.523C305.126 218.013 304.738 217.583 304.256 217.283C303.774 216.983 303.217 216.824 302.649 216.824Z" fill="#EDA145"/>
<path opacity="0.6" d="M302.65 216.824H284.95C284.382 216.824 283.825 216.983 283.343 217.283C282.861 217.583 282.473 218.013 282.224 218.523C282.16 218.657 282.131 218.805 282.14 218.953C282.15 219.101 282.197 219.244 282.277 219.369C282.357 219.494 282.468 219.596 282.598 219.666C282.729 219.736 282.875 219.772 283.024 219.77H304.54C304.688 219.772 304.835 219.736 304.965 219.666C305.096 219.596 305.207 219.494 305.287 219.369C305.367 219.244 305.414 219.101 305.423 218.953C305.433 218.805 305.404 218.657 305.34 218.523C305.093 218.019 304.711 217.592 304.236 217.292C303.761 216.992 303.211 216.83 302.65 216.824Z" fill="#263238"/>
<path opacity="0.2" d="M242.363 218.693H218.432C218.148 218.695 217.876 218.809 217.676 219.011C217.476 219.213 217.363 219.485 217.363 219.77H243.439C243.439 219.484 243.326 219.21 243.124 219.009C242.922 218.807 242.648 218.693 242.363 218.693Z" fill="black"/>
<path opacity="0.9" d="M208.274 211.953L210.398 148.658C210.411 148.395 210.523 148.147 210.713 147.964C210.902 147.781 211.154 147.677 211.418 147.674H305.582C305.71 147.673 305.836 147.698 305.954 147.747C306.072 147.797 306.179 147.87 306.268 147.962C306.356 148.054 306.425 148.163 306.471 148.283C306.516 148.403 306.536 148.53 306.53 148.658L304.406 211.953C304.397 212.216 304.287 212.465 304.098 212.649C303.909 212.832 303.657 212.936 303.394 212.937H209.23C209.102 212.938 208.975 212.913 208.856 212.864C208.738 212.814 208.631 212.742 208.542 212.65C208.452 212.558 208.382 212.448 208.337 212.329C208.291 212.209 208.269 212.081 208.274 211.953Z" fill="white"/>
<path d="M275.214 212.937H262.236L277.196 147.674H290.174L275.214 212.937Z" fill="white"/>
<path d="M218.864 212.937H214.191L229.151 147.674H233.817L218.864 212.937Z" fill="white"/>
<path d="M285.856 212.937H281.184L296.144 147.674H300.816L285.856 212.937Z" fill="white"/>
<path opacity="0.4" d="M259.256 145.776C259.238 145.968 259.151 146.146 259.009 146.277C258.868 146.408 258.684 146.482 258.491 146.484C258.303 146.484 258.123 146.41 257.991 146.277C257.858 146.144 257.783 145.964 257.783 145.776C257.798 145.584 257.884 145.403 258.026 145.272C258.168 145.141 258.354 145.068 258.548 145.068C258.736 145.068 258.916 145.143 259.048 145.276C259.181 145.409 259.256 145.589 259.256 145.776Z" fill="black"/>
<path d="M252.375 115.453C251.263 120.296 250.003 129.167 253.281 132.396C253.281 132.396 251.865 136.403 242.873 136.403C232.961 136.403 238.236 132.396 238.236 132.396C243.681 131.107 243.681 127.1 242.866 123.34L252.375 115.453Z" fill="#B55B52"/>
<path d="M266.782 138.455C267.49 139.538 268.07 140.487 268.651 141.521C269.232 142.554 269.805 143.56 270.357 144.586C271.448 146.654 272.481 148.756 273.416 150.916C274.35 153.075 275.228 155.277 275.972 157.557C276.755 159.872 277.38 162.237 277.841 164.637L277.933 165.097L277.975 165.324L278.039 165.692C278.113 166.194 278.151 166.7 278.152 167.207C278.142 168.051 278.052 168.893 277.883 169.72C277.581 171.087 277.142 172.42 276.574 173.699C275.584 175.944 274.399 178.097 273.034 180.135C271.717 182.11 270.329 183.979 268.856 185.799C267.396 187.603 265.846 189.333 264.212 190.982L260.304 187.923C262.428 184.135 264.63 180.255 266.421 176.411C267.306 174.578 268.06 172.686 268.679 170.747C268.939 169.941 269.115 169.111 269.203 168.269C269.235 167.991 269.235 167.711 269.203 167.434C269.203 167.356 269.203 167.285 269.147 167.278V167.235L269.097 167.051L268.991 166.69L268.566 165.274L268.07 163.823C267.738 162.853 267.362 161.883 266.98 160.92C266.194 158.98 265.316 157.054 264.403 155.136C263.49 153.217 262.484 151.319 261.472 149.429C260.972 148.485 260.455 147.541 259.921 146.597L258.35 143.885L266.782 138.455Z" fill="#B65B52"/>
<path d="M265.077 133.889C271.307 134.802 277.722 156.495 277.722 156.495L264.319 163.922C264.319 163.922 258.882 153.635 256.298 145.939C253.579 137.91 258.422 132.912 265.077 133.889Z" fill="#263238"/>
<path opacity="0.3" d="M261.018 145.775L260.006 155.05C261.018 157.28 262.01 159.298 262.781 160.891C263.072 157.174 263.064 151.128 261.018 145.775Z" fill="black"/>
<path d="M277.444 153.438L278.018 156.624L264.24 164.206L262.406 161.58L277.444 153.438Z" fill="#EDA145"/>
<path opacity="0.3" d="M277.444 153.438L278.018 156.624L264.24 164.206L262.406 161.58L277.444 153.438Z" fill="#263238"/>
<path d="M262.052 186.409L255.461 185.262L258.845 192.887C258.845 192.887 264.856 192.851 264.58 189.75L262.052 186.409Z" fill="#B55B52"/>
<path d="M250.549 189.092L253.643 195.252L258.847 192.887L255.462 185.262L250.549 189.092Z" fill="#B55B52"/>
<path d="M227.977 134.229C227.977 134.229 219.481 154.209 225.606 191.422H261.006C261.437 185.991 258.938 159.491 265.069 133.889C261.177 133.135 257.239 132.636 253.281 132.396C248.27 132.105 243.247 132.105 238.236 132.396C234.774 132.741 231.344 133.354 227.977 134.229Z" fill="#263238"/>
<path opacity="0.3" d="M224.188 151.321C223.674 155.798 223.411 160.301 223.402 164.808C228.217 161.672 229.93 154.478 230.61 149.268L224.188 151.321Z" fill="black"/>
<path d="M232.776 143.921C231.424 146.243 230.058 148.381 228.627 150.562C227.197 152.743 225.732 154.86 224.195 156.934C221.109 161.221 217.726 165.285 214.071 169.098C212.132 171.11 210.027 172.955 207.777 174.613L206.856 175.25C206.46 175.491 206.049 175.753 205.667 175.958C204.929 176.339 204.165 176.665 203.38 176.935C201.981 177.399 200.549 177.759 199.097 178.011C196.415 178.45 193.701 178.665 190.983 178.656C189.659 178.656 188.335 178.656 187.025 178.521C185.716 178.387 184.42 178.33 183.061 178.132V173.176C185.447 172.765 187.925 172.305 190.289 171.802C191.479 171.554 192.661 171.285 193.829 170.988C194.997 170.691 196.109 170.379 197.171 170.018C198.186 169.702 199.175 169.309 200.13 168.843C200.523 168.645 200.903 168.425 201.27 168.184C201.447 168.078 201.554 167.965 201.695 167.866L202.304 167.384C204.035 165.917 205.656 164.324 207.154 162.619C210.33 158.956 213.301 155.12 216.053 151.129C217.469 149.118 218.836 147.065 220.209 145.011C221.583 142.958 222.907 140.827 224.167 138.816L232.776 143.921Z" fill="#B65B52"/>
<path d="M236.055 140.183C236.763 146.399 222.901 161.48 222.901 161.48L211.934 152.899C214.868 147.927 218.117 143.148 221.662 138.59C227.354 131.517 235.269 133.153 236.055 140.183Z" fill="#263238"/>
<path d="M212.74 150.018L211.686 153.076L222.893 162.28L225.116 159.979L212.74 150.018Z" fill="#EDA145"/>
<path opacity="0.3" d="M212.74 150.018L211.686 153.076L222.893 162.28L225.116 159.979L212.74 150.018Z" fill="#263238"/>
<path d="M183.062 173.197L175.168 173.311L178.347 180.702C179.324 181.021 183.685 179.47 185.88 177.049L183.062 173.197Z" fill="#B55B52"/>
<path d="M169.723 177.141L174.034 182.55L178.346 180.695L175.167 173.311L169.723 177.141Z" fill="#B55B52"/>
<path d="M236.012 109.74C235.934 110.271 235.594 110.667 235.247 110.625C234.9 110.582 234.681 110.129 234.752 109.605C234.822 109.081 235.176 108.678 235.523 108.713C235.87 108.749 236.09 109.187 236.012 109.74Z" fill="#263238"/>
<path d="M236.162 110.191C235.292 111.744 234.218 113.172 232.969 114.439C233.783 115.416 235.44 115.19 235.44 115.19L236.162 110.191Z" fill="#A02724"/>
<path d="M235.262 114.1C234.08 114.1 233.011 112.393 232.82 110.213C232.639 109 232.933 107.765 233.641 106.765C233.762 106.618 233.913 106.5 234.084 106.417C234.255 106.333 234.442 106.288 234.632 106.283C235.814 106.283 236.883 107.982 237.075 110.163C237.263 111.376 236.973 112.614 236.267 113.618C236.145 113.763 235.994 113.881 235.823 113.964C235.652 114.047 235.466 114.093 235.276 114.1H235.262ZM234.625 106.637C234.488 106.645 234.355 106.681 234.233 106.743C234.111 106.805 234.003 106.892 233.917 106.998C233.284 107.932 233.031 109.071 233.209 110.184C233.379 112.117 234.335 113.724 235.333 113.724C235.47 113.715 235.604 113.678 235.726 113.615C235.847 113.551 235.955 113.463 236.041 113.356C236.677 112.427 236.931 111.288 236.749 110.177C236.544 108.266 235.588 106.637 234.625 106.637Z" fill="#263238"/>
<path d="M237.889 107.381C237.962 107.387 238.035 107.367 238.094 107.324C238.129 107.302 238.159 107.273 238.182 107.239C238.205 107.206 238.222 107.168 238.23 107.127C238.239 107.087 238.239 107.046 238.232 107.005C238.224 106.965 238.209 106.927 238.187 106.892C237.917 106.467 237.553 106.11 237.121 105.851C236.69 105.591 236.203 105.436 235.701 105.398C235.619 105.398 235.54 105.43 235.481 105.487C235.422 105.543 235.386 105.621 235.383 105.703C235.383 105.786 235.415 105.866 235.474 105.926C235.532 105.985 235.611 106.02 235.694 106.021C236.094 106.059 236.48 106.189 236.821 106.4C237.163 106.611 237.451 106.898 237.663 107.239C237.689 107.277 237.722 107.309 237.761 107.334C237.8 107.358 237.844 107.374 237.889 107.381Z" fill="#263238"/>
<path d="M254.123 109.646C252.777 116.096 252.324 119.926 248.544 122.893C247.327 123.87 245.867 124.496 244.321 124.704C242.775 124.912 241.201 124.693 239.77 124.071C238.34 123.449 237.106 122.448 236.203 121.176C235.299 119.904 234.761 118.409 234.646 116.854C234.093 110.871 236.38 101.334 243.142 99.451C244.592 99.0086 246.134 98.9548 247.612 99.2949C249.09 99.6351 250.454 100.357 251.565 101.389C252.677 102.421 253.498 103.727 253.947 105.176C254.396 106.625 254.456 108.166 254.123 109.646Z" fill="#B55B52"/>
<path d="M262.917 212.938C263.249 205.714 262.618 198.479 261.041 191.422H238.201C239.975 198.455 240.853 205.685 240.814 212.938H262.917Z" fill="#EDA145"/>
<path opacity="0.3" d="M262.917 212.938C263.249 205.714 262.618 198.479 261.041 191.422H238.201C239.975 198.455 240.853 205.685 240.814 212.938H262.917Z" fill="white"/>
<path d="M240.133 111.588C238.873 110.958 237.301 104.664 237.733 102.426C238.165 100.189 243.241 97.7819 248.233 98.6881C253.224 99.5944 255.369 101.343 256.339 105.888C257.338 110.604 253.699 118.455 251.9 119.064C250.834 119.442 249.7 119.588 248.573 119.493C247.446 119.397 246.353 119.063 245.365 118.512C243.758 117.528 242.923 110.292 240.133 111.588Z" fill="#263238"/>
<path d="M238.81 104.684C236.374 104.826 234.052 100.946 236.29 97.4836C236.932 96.4968 237.846 95.7162 238.92 95.2352C239.995 94.7543 241.186 94.5934 242.35 94.772C242.35 94.772 241.33 96.7614 244.729 96.3437C248.127 95.926 254.457 96.8747 256.666 99.2536C259.399 102.185 257.749 107.948 253.636 106.532C249.522 105.116 238.81 104.684 238.81 104.684Z" fill="#263238"/>
<path d="M238.158 104.783C237.648 104.758 237.15 104.626 236.696 104.394C236.242 104.162 235.842 103.836 235.524 103.438C234.888 102.677 234.475 101.754 234.333 100.773C234.19 99.7917 234.323 98.79 234.717 97.8798C234.726 97.8579 234.739 97.838 234.755 97.8212C234.772 97.8044 234.791 97.791 234.813 97.7818C234.835 97.7726 234.858 97.7678 234.882 97.7676C234.905 97.7674 234.929 97.7718 234.95 97.7807C234.972 97.7895 234.992 97.8025 235.009 97.8191C235.026 97.8356 235.039 97.8553 235.048 97.8769C235.058 97.8986 235.062 97.9219 235.063 97.9455C235.063 97.9691 235.058 97.9924 235.05 98.0143C234.676 98.8623 234.547 99.7981 234.679 100.715C234.81 101.633 235.196 102.495 235.793 103.204C236.121 103.643 236.563 103.984 237.071 104.188C237.579 104.393 238.134 104.454 238.675 104.365C238.719 104.356 238.766 104.364 238.805 104.388C238.845 104.411 238.874 104.449 238.887 104.492C238.898 104.538 238.891 104.587 238.867 104.628C238.843 104.669 238.805 104.699 238.76 104.712C238.563 104.76 238.36 104.784 238.158 104.783Z" fill="#263238"/>
<path d="M244.133 110.773C244.237 112.446 243.697 114.095 242.625 115.383C241.209 117.061 239.319 116.048 238.745 114.03C238.228 112.211 238.349 109.152 240.253 108.211C242.158 107.269 243.985 108.727 244.133 110.773Z" fill="#B55B52"/>
<path d="M222.631 212.938H248.013C249.241 205.835 249.543 198.603 248.912 191.422H225.619C225.619 191.422 224.309 200.506 222.631 212.938Z" fill="#EDA145"/>
<path opacity="0.3" d="M222.631 212.938H248.013C249.241 205.835 249.543 198.603 248.912 191.422H225.619C225.619 191.422 224.309 200.506 222.631 212.938Z" fill="white"/>
</svg>
